<svg xmlns="http://www.w3.org/2000/svg" xmlns:xlink="http://www.w3.org/1999/xlink" width="80" zoomAndPan="magnify" viewBox="0 0 60 67.92" height="80" preserveAspectRatio="xMidYMid meet" version="1.0"><path stroke-linecap="round" transform="matrix(1.325997, 0, 0, 1.304315, 1.39419, -8.062907)" fill-opacity="1" fill="#fadd3d" fill-rule="nonzero" stroke-linejoin="round" d="M 39.937782 29.287112 C 39.937782 39.625392 31.715784 48.008023 21.573061 48.008023 C 11.430337 48.008023 3.208339 39.625392 3.208339 29.287112 C 3.208339 18.948833 11.430337 10.566201 21.573061 10.566201 C 31.715784 10.566201 39.937782 18.948833 39.937782 29.287112 Z M 39.937782 29.287112 " stroke="#fadd3d" stroke-width="3" stroke-opacity="1" stroke-miterlimit="4"/><path stroke-linecap="round" transform="matrix(1.274592, 0, 0, 1.278095, -679.847361, -7.0305)" fill-opacity="1" fill="#ffffff" fill-rule="nonzero" stroke-linejoin="round" d="M 558.003125 19.972369 L 558.57316 18.704003 L 559.207554 17.570113 L 560.105513 16.549307 L 560.758296 15.898314 L 561.898366 15.08228 L 562.876008 14.63606 C 563.283614 14.565765 563.734126 14.416006 564.126408 14.406837 L 564.901779 14.385443 L 566.081691 14.541314 L 567.381126 14.984479 L 568.196338 15.445981 C 568.754115 15.7944 569.11575 16.103087 569.529485 16.420942 L 570.540839 17.533437 L 571.162974 18.483949 C 571.530739 19.229687 571.83108 19.975426 572.060933 20.72422 L 572.24788 22.050657 L 572.146745 23.447389 L 571.634939 25.048893 L 570.884086 26.408949 L 569.771597 27.662034 L 568.435385 28.575869 C 567.85922 28.930401 567.298379 29.092385 566.501556 29.315495 C 565.778285 29.41941 565.015173 29.388846 564.261255 29.41941 L 562.59099 29.141286 C 561.959661 28.96402 561.374302 28.734797 560.837978 28.447504 C 560.18826 28.077691 559.636613 27.646752 559.127872 27.18525 C 558.778495 26.846 558.567031 26.488413 558.318789 26.136937 C 558.003125 25.620422 557.852954 25.027499 557.626166 24.455969 C 557.491319 23.829427 557.433089 23.20594 557.457607 22.579398 L 557.650683 21.292693 C 557.73956 20.889261 557.852954 20.455266 558.003125 19.972369 Z M 558.003125 19.972369 " stroke="#ffffff" stroke-width="0.05" stroke-opacity="1" stroke-miterlimit="4"/><path stroke-linecap="round" transform="matrix(1.274592, 0, 0, 1.278095, -679.847361, -7.0305)" fill-opacity="1" fill="#fadd3d" fill-rule="nonzero" stroke-linejoin="round" d="M 559.143195 22.402132 C 559.25046 22.811677 559.311754 23.26401 559.492572 23.600204 L 560.065672 24.535433 L 560.798137 25.268947 L 561.65319 25.880208 L 562.508243 26.286696 L 563.608473 26.613721 L 564.340938 26.696241 L 565.484073 26.858226 L 566.863191 26.668735 L 567.886803 26.329485 L 568.784762 25.718224 L 569.762403 24.779938 L 570.249691 23.88444 L 570.657297 23.028675 L 570.556162 23.844708 L 570.412121 24.495701 L 570.127103 25.229215 L 569.596909 26.042192 C 569.308827 26.427286 568.993162 26.76348 568.662174 27.062998 L 568.092138 27.469487 L 566.991909 28.041016 L 566.25025 28.218281 L 565.441167 28.325252 L 564.301096 28.40166 L 562.915849 28.080748 L 561.778843 27.744554 L 560.684743 27.069111 C 560.415049 26.827662 560.169872 26.528145 559.860337 26.207232 C 559.535478 25.825194 559.379178 25.446212 559.167713 25.067231 C 559.04206 24.672967 559.014478 24.232859 558.965442 23.80192 L 558.965442 23.190659 Z M 559.143195 22.402132 " stroke="#fadd3d" stroke-width="0.05" stroke-opacity="1" stroke-miterlimit="4"/><path stroke-linecap="round" transform="matrix(1.274592, 0, 0, 1.278095, -679.847361, -7.0305)" fill-opacity="1" fill="#fadd3d" fill-rule="nonzero" stroke-linejoin="round" d="M 566.461714 15.65381 L 567.194179 15.491825 L 567.316767 15.449037 C 567.362738 15.415418 567.350479 15.323729 567.316767 15.204533 L 566.746732 15.002817 L 565.523914 14.880564 L 564.831291 14.880564 L 564.261255 15.002817 L 564.138667 15.164801 C 564.319485 15.378742 564.543208 15.394024 564.708702 15.510163 L 565.508591 15.623247 Z M 566.461714 15.65381 " stroke="#fadd3d" stroke-width="0.05" stroke-opacity="1" stroke-miterlimit="4"/><path stroke-linecap="round" transform="matrix(1.257093, -0.211058, 0.21048, 1.260548, -695.032491, 120.881653)" fill-opacity="1" fill="#ffffff" fill-rule="nonzero" stroke-linejoin="round" d="M 558.003098 19.97113 L 558.572265 18.706033 L 559.20991 17.570157 L 560.104455 16.551668 L 560.757573 15.898705 L 561.897911 15.082509 L 562.876923 14.635955 C 563.283004 14.567598 563.733948 14.416885 564.126912 14.408308 L 564.901255 14.386115 L 566.08362 14.543797 L 567.380262 14.984016 L 568.194763 15.44577 C 568.754881 15.793658 569.113492 16.10161 569.529028 16.422191 L 570.539312 17.533397 L 571.163231 18.483848 C 571.53229 19.230487 571.832832 19.978049 572.059318 20.722508 L 572.247339 22.049308 L 572.146663 23.448626 L 571.63634 25.048955 L 570.883258 26.410312 L 569.772513 27.662202 L 568.435664 28.575646 C 567.857703 28.92821 567.298943 29.091859 566.500358 29.314517 C 565.777377 29.419681 565.015141 29.388122 564.260947 29.419886 L 562.589432 29.140018 C 561.960243 28.963397 561.373891 28.735071 560.837938 28.447008 C 560.18815 28.077908 559.635614 27.64762 559.12591 27.184219 C 558.778392 26.847136 558.567912 26.489615 558.319141 26.138077 C 558.004927 25.62064 557.852455 25.028021 557.625415 24.453906 C 557.493607 23.83066 557.433844 23.203983 557.457205 22.581926 L 557.648027 21.293766 C 557.737321 20.890372 557.853829 20.454349 558.003098 19.97113 Z M 558.003098 19.97113 " stroke="#ffffff" stroke-width="0.05" stroke-opacity="1" stroke-miterlimit="4"/><path stroke-linecap="round" transform="matrix(1.257093, -0.211058, 0.21048, 1.260548, -695.032491, 120.881653)" fill-opacity="1" fill="#fadd3d" fill-rule="nonzero" stroke-linejoin="round" d="M 559.143973 22.399521 C 559.249143 22.810683 559.312989 23.264509 559.493248 23.598378 L 560.063265 24.536705 L 560.798084 25.270212 L 561.652845 25.881253 L 562.507666 26.287781 L 563.608869 26.614707 L 564.341366 26.693968 L 565.482418 26.857128 L 566.865397 26.670341 L 567.885689 26.329862 L 568.783639 25.717891 L 569.760783 24.781407 L 570.249736 23.884037 L 570.657061 23.02878 L 570.558072 23.842697 L 570.414798 24.494258 L 570.126909 25.230064 L 569.599189 26.043472 C 569.308383 26.425521 568.993912 26.763323 568.661317 27.060905 L 568.089384 27.470256 L 566.990431 28.039275 L 566.252315 28.216278 L 565.441673 28.325359 L 564.301053 28.400882 L 562.915707 28.08216 L 561.779242 27.743133 L 560.686709 27.06749 C 560.416242 26.826977 560.170983 26.528708 559.861244 26.207247 C 559.536409 25.827479 559.379843 25.444897 559.166851 25.065263 C 559.04253 24.675684 559.013946 24.233961 558.964703 23.804272 L 558.964887 23.190731 Z M 559.143973 22.399521 " stroke="#fadd3d" stroke-width="0.05" stroke-opacity="1" stroke-miterlimit="4"/><path stroke-linecap="round" transform="matrix(1.257093, -0.211058, 0.21048, 1.260548, -695.032491, 120.881653)" fill-opacity="1" fill="#fadd3d" fill-rule="nonzero" stroke-linejoin="round" d="M 566.460127 15.654249 L 567.195719 15.492317 L 567.317651 15.450756 C 567.364011 15.415134 567.351443 15.323163 567.315205 15.205537 L 566.746479 15.001854 L 565.5238 14.880805 L 564.831079 14.879478 L 564.260744 15.000904 L 564.139783 15.166582 C 564.318567 15.379349 564.545775 15.395699 564.709978 15.50996 L 565.508463 15.621961 Z M 566.460127 15.654249 " stroke="#fadd3d" stroke-width="0.05" stroke-opacity="1" stroke-miterlimit="4"/><path stroke-linecap="round" transform="matrix(1.274592, 0, 0, 1.278095, -258.278748, -409.942064)" fill-opacity="1" fill="#ffffff" fill-rule="nonzero" stroke-linejoin="round" d="M 237.463749 349.232317 L 237.914261 350.030013 L 238.174761 351.374787 L 238.067496 352.575915 L 237.479072 354.055167 L 237.071466 354.803962 L 236.746608 355.357153 C 236.562725 355.726966 236.46159 355.751417 236.237866 356.072329 L 235.640249 356.714153 L 234.920043 357.340696 L 234.340813 357.80831 L 233.691095 358.208686 C 233.078154 358.456247 233.194613 358.505148 232.692001 358.654907 L 231.787913 358.88413 L 230.604936 359.021664 C 229.783595 358.881074 229.578259 358.862736 228.839665 358.609062 L 227.531035 357.768578 L 226.807765 357.096191 L 225.961906 355.98064 L 225.474617 354.935383 L 225.051688 353.550877 L 225.039429 352.041062 C 225.088464 351.368675 225.116047 350.885779 225.404129 350.109477 C 225.744312 349.458484 225.9711 348.862504 226.3879 348.232905 L 227.552488 346.799498 C 228.067359 346.393009 228.594488 346.215744 229.143071 345.949845 C 229.820371 345.638102 230.332177 345.729791 231.006412 345.589201 C 231.484507 345.503625 231.977924 345.665609 232.410048 345.668665 C 233.01073 345.717566 233.703354 346.227969 234.300972 346.380784 C 234.886331 346.637514 235.018113 346.836174 235.511531 347.221268 L 236.400296 347.884487 C 236.673055 348.19623 237.163408 348.828885 237.466814 349.232317 Z M 237.463749 349.232317 " stroke="#ffffff" stroke-width="0.05" stroke-opacity="1" stroke-miterlimit="4"/><path stroke-linecap="round" transform="matrix(1.274592, 0, 0, 1.278095, -679.847361, -7.0305)" fill-opacity="1" fill="#fadd3d" fill-rule="nonzero" stroke-linejoin="round" d="M 561.475437 31.977537 C 561.475437 31.977537 561.475437 31.977537 561.165902 32.212873 L 560.850237 32.48794 L 560.50086 32.814965 L 560.206649 33.086976 L 559.838884 33.441508 L 559.520154 33.838827 L 559.186101 34.248372 L 558.499607 35.315023 L 558.012319 36.503926 L 557.770207 37.784518 L 557.761013 38.881731 C 557.78553 39.303501 557.901989 39.755835 558.027642 40.205112 L 558.401536 41.161735 L 558.855113 41.986938 L 558.217654 41.40624 L 557.773272 40.908062 L 557.313566 40.244844 L 556.887572 39.327952 C 556.74966 38.869506 556.59336 38.414117 556.547389 37.970952 L 556.525936 37.283284 L 556.64546 36.030198 L 556.884507 35.076631 L 557.258401 34.309498 L 557.865213 33.300917 C 558.10426 32.937217 558.419925 32.60408 558.824466 32.304562 C 559.051254 31.98365 559.514025 31.849172 559.890984 31.6444 C 560.182131 31.494641 560.574413 31.406008 561.031055 31.357107 C 561.383496 31.277643 560.991213 31.369332 561.432531 31.30515 C 561.932078 31.265418 561.879978 31.250137 562.312102 31.302094 C 562.74729 31.424346 562.008696 31.396839 561.925949 31.638287 L 561.680772 31.846116 Z M 561.475437 31.977537 " stroke="#fadd3d" stroke-width="0.05" stroke-opacity="1" stroke-miterlimit="4"/><path stroke-linecap="round" transform="matrix(1.274592, 0, 0, 1.278095, -679.847361, -7.0305)" fill-opacity="1" fill="#fadd3d" fill-rule="nonzero" stroke-linejoin="round" d="M 565.526979 40.9264 L 565.229702 41.617125 L 565.189861 41.739377 C 565.189861 41.797447 565.272608 41.843291 565.389067 41.883023 C 565.56682 41.898305 565.747638 41.733264 565.925391 41.626294 C 566.627208 40.788866 566.428003 41.192298 566.804961 40.596319 L 567.111432 40.061465 L 567.34435 39.526612 L 567.28612 39.331008 C 567.007232 39.199587 566.860126 39.492992 566.670114 39.590794 L 566.112338 40.171492 Z M 565.526979 40.9264 " stroke="#fadd3d" stroke-width="0.05" stroke-opacity="1" stroke-miterlimit="4"/></svg>