<svg xmlns="http://www.w3.org/2000/svg" xmlns:xlink="http://www.w3.org/1999/xlink" width="80" zoomAndPan="magnify" viewBox="0 0 60 67.92" height="80" preserveAspectRatio="xMidYMid meet" version="1.0"><path stroke-linecap="round" transform="matrix(1.325997, 0, 0, 1.304315, 1.394197, -8.067956)" fill-opacity="1" fill="#54bf36" fill-rule="nonzero" stroke-linejoin="round" d="M 39.937777 29.287989 C 39.937777 39.626268 31.715779 48.0089 21.573056 48.0089 C 11.430332 48.0089 3.208334 39.626268 3.208334 29.287989 C 3.208334 18.949709 11.430332 10.567078 21.573056 10.567078 C 31.715779 10.567078 39.937777 18.949709 39.937777 29.287989 Z M 39.937777 29.287989 " stroke="#54bf36" stroke-width="3" stroke-opacity="1" stroke-miterlimit="4"/><path stroke-linecap="round" transform="matrix(1.274592, 0, 0, 1.278095, -452.352064, -7.655095)" fill-opacity="1" fill="#ffffff" fill-rule="nonzero" stroke-linejoin="round" d="M 386.128884 18.563096 L 386.089043 18.239127 L 385.984843 18.031298 L 385.822413 17.811244 L 385.672243 17.698161 L 385.500619 17.600359 L 385.203343 17.545346 L 384.489266 17.536177 L 384.041819 17.487276 L 383.906972 17.429206 L 384.069401 17.59119 L 384.173601 17.762344 L 384.299254 18.009904 L 384.336031 18.26969 L 384.326837 18.535589 L 384.241025 18.72508 L 384.213442 18.877895 L 384.268607 19.058217 L 384.480072 19.192695 L 384.755895 19.318003 L 385.089948 19.382186 L 385.678372 19.296609 L 385.926613 19.134625 L 386.06146 18.972641 L 386.107431 18.792319 Z M 386.128884 18.563096 " stroke="#ffffff" stroke-width="0.05" stroke-opacity="1" stroke-miterlimit="4"/><path stroke-linecap="round" transform="matrix(1.274592, 0, 0, 1.278095, -452.352064, -7.655095)" fill-opacity="1" fill="#ffffff" fill-rule="nonzero" stroke-linejoin="round" d="M 374.58107 18.621165 L 374.875282 18.508082 L 375.000935 18.346098 L 375.077553 18.193283 L 375.095941 17.991567 L 375.0561 17.783738 L 374.970288 17.523952 L 374.856894 17.114407 L 374.798664 16.934085 L 374.78947 16.640679 L 374.866088 16.429794 L 375.019323 16.335049 L 375.218529 16.249472 L 375.439188 16.200572 L 375.684364 16.218909 L 375.914217 16.316711 L 376.131812 16.46647 L 376.35247 16.58261 L 376.637488 16.695693 L 376.934765 16.677355 L 377.143165 16.591779 L 377.363824 16.420625 L 377.639647 16.087488 L 377.820465 15.849096 L 378.038059 15.638211 L 378.258718 15.50679 L 378.55293 15.457889 L 378.828753 15.497621 L 379.343624 15.687112 L 379.650095 15.772689 L 379.935112 15.809364 L 380.134318 15.809364 L 380.440789 15.696281 L 380.771777 15.583198 L 381.21003 15.497621 L 381.516501 15.515959 L 381.832166 15.638211 L 382.15396 15.809364 L 382.393007 16.056925 L 382.687219 16.448132 L 382.907878 16.790438 L 383.097889 17.172477 L 382.907878 17.135801 L 382.325583 17.114407 L 382.000724 17.135801 L 381.706513 17.172477 L 381.381654 17.239715 L 380.992436 17.383362 L 380.685965 17.505614 L 380.563377 17.64926 L 380.495954 17.860145 L 380.495954 18.040467 L 380.554183 18.248296 L 380.685965 18.670066 L 380.192548 18.46835 L 379.772683 18.278859 L 379.2762 18.040467 L 378.742941 17.829582 L 378.399694 17.716499 L 377.924665 17.640091 L 377.581418 17.658429 L 377.278012 17.820413 L 377.038965 18.058805 L 376.943959 18.391943 L 376.867341 18.935965 L 376.772335 19.373017 L 376.609906 19.764224 L 376.398441 19.8498 L 376.113423 19.813125 L 375.770176 19.65114 L 375.304341 19.327172 L 374.807858 18.859557 Z M 374.58107 18.621165 " stroke="#ffffff" stroke-width="0.05" stroke-opacity="1" stroke-miterlimit="4"/><path stroke-linecap="round" transform="matrix(1.274592, 0, 0, 1.278095, -452.352064, -7.655095)" fill-opacity="1" fill="#ffffff" fill-rule="nonzero" stroke-linejoin="round" d="M 372.85564 20.882832 L 372.85564 20.296021 L 372.929193 19.834519 L 373.303088 19.26299 L 373.477776 18.917627 C 373.505358 18.844276 373.514552 18.737305 373.505358 18.599771 C 373.416482 18.450012 373.300023 18.413337 373.186629 18.364436 L 372.677887 18.205508 C 372.478682 18.220789 372.258023 18.18717 372.120111 18.275803 C 371.807511 18.413337 371.856546 18.480575 371.786058 18.572265 L 371.543946 19.159075 L 371.372323 19.434143 L 371.130211 19.571676 L 370.814546 19.657253 C 370.793093 19.712267 370.744058 19.758111 370.82374 19.788674 L 371.13634 20.134037 C 371.289575 20.302133 371.415228 20.482455 371.439746 20.717791 L 371.445876 21.026478 C 371.421358 21.225138 371.320223 21.377953 371.234411 21.539937 L 371.059723 21.71109 L 371.476523 21.607176 L 371.96994 21.506318 L 372.408193 21.332108 L 372.717729 21.160955 Z M 372.85564 20.882832 " stroke="#ffffff" stroke-width="0.05" stroke-opacity="1" stroke-miterlimit="4"/><path stroke-linecap="round" transform="matrix(1.274592, 0, 0, 1.278095, -452.352064, -7.655095)" fill-opacity="1" fill="#ffffff" fill-rule="nonzero" stroke-linejoin="round" d="M 374.069264 18.914571 L 373.790376 19.394411 L 373.612623 19.910926 L 373.548264 20.360203 L 373.483905 20.748354 L 373.437935 21.084548 L 373.290829 21.295433 L 373.097752 21.518543 L 372.889352 21.631626 L 372.503199 21.891412 L 372.13237 21.986158 L 371.602176 22.13286 L 371.03827 22.242887 L 370.652117 22.340689 L 370.376293 22.438491 L 370.909552 22.661601 L 371.424423 22.838867 L 372.003652 23.016133 L 372.840317 23.2912 L 373.581976 23.434847 L 373.870058 23.596831 L 374.2746 24.208092 L 374.498323 24.385358 L 374.740435 24.498441 L 375.126588 24.498441 L 375.334988 24.611524 L 375.531129 24.755171 L 375.626135 25.030238 L 375.531129 25.335869 L 375.531129 25.577317 L 375.5771 25.705682 L 375.754853 25.818765 L 375.834535 27.18799 L 375.852923 30.696628 L 375.67517 31.968051 L 375.482094 34.446715 L 375.338053 35.929023 L 375.255306 37.524415 L 375.255306 38.47187 L 375.319664 39.856376 L 375.512741 40.712141 L 375.819212 41.338684 L 376.09197 41.677934 L 376.205365 41.723779 L 376.527159 42.466461 L 376.897988 42.949357 L 377.3485 43.285551 L 377.704006 43.481154 L 377.71933 43.526999 L 378.169841 43.594238 L 378.81343 43.673702 L 379.441695 43.640082 L 379.69913 43.462816 L 380.020924 43.270269 L 380.312071 42.866837 L 380.58483 42.530643 L 380.747259 42.255576 C 380.970983 42.108873 381.118089 42.099704 381.464401 41.73906 L 381.826036 41.112518 L 382.083471 40.452356 L 382.25816 39.599646 L 382.322519 38.762219 L 382.25816 37.347149 L 382.163154 36.008487 L 382.083471 34.929612 L 382.034436 33.884355 L 382.000724 32.420385 L 382.065083 29.697217 L 381.970077 27.380537 L 381.970077 26.060213 L 381.936366 25.04552 L 382.046695 25.024125 L 382.163154 25.134152 L 382.380748 25.201391 L 382.530919 25.231954 L 382.589148 25.173884 L 382.858842 24.825466 L 383.183701 24.480103 L 383.364519 24.25088 L 383.40436 24.113346 L 383.40436 23.972756 L 383.431942 23.874955 L 383.600501 23.587662 L 383.959072 23.278975 L 384.336031 23.022245 L 384.771219 22.805248 L 385.28609 22.594363 L 385.712084 22.346802 L 386.027749 22.129804 L 386.257602 21.952538 L 386.386319 21.811948 L 386.493584 21.674415 L 386.315831 21.674415 L 385.969519 21.613289 L 385.681437 21.524656 L 385.503684 21.40546 L 385.424001 21.277095 L 385.405613 21.060097 L 385.552719 20.742241 L 385.871449 20.30519 L 386.138078 19.978165 L 386.248408 19.800899 L 386.32809 19.65114 L 386.364866 19.553339 L 386.208566 19.632803 L 385.951131 19.712267 L 385.632402 19.79173 L 385.325931 19.810068 L 385.068496 19.831462 L 384.709925 19.810068 L 384.464748 19.751998 C 384.464748 19.751998 384.283931 19.593071 384.283931 19.672535 C 384.283931 19.751998 384.008107 19.504438 384.008107 19.504438 L 383.808901 19.296609 L 383.720025 19.027654 L 383.720025 18.770924 L 383.799707 18.355267 L 383.857937 18.095481 L 383.778254 17.918215 L 383.609695 17.759287 L 383.214348 17.630922 L 382.837389 17.582022 L 382.36236 17.582022 L 381.976207 17.600359 L 381.657477 17.661486 L 381.390848 17.780681 L 381.231483 18.037411 L 381.222289 18.434731 L 381.271324 18.761755 L 381.203901 19.027654 L 381.013889 19.097949 L 380.698224 19.067386 L 380.22013 18.917627 L 379.757359 18.761755 L 379.199583 18.541702 L 378.693906 18.355267 L 378.347594 18.275803 L 378.099353 18.24524 L 377.903212 18.254409 L 377.605935 18.333873 L 377.415924 18.541702 L 377.357694 18.877895 L 377.278012 19.305778 L 377.219782 19.623634 L 377.109453 19.880363 L 376.950088 20.097361 L 376.732494 20.265458 L 376.484253 20.326584 L 376.147135 20.326584 L 375.822276 20.237951 L 375.41467 19.999559 L 374.970288 19.703098 L 374.642364 19.40358 L 374.403317 19.186582 L 374.155076 18.987922 Z M 374.069264 18.914571 " stroke="#ffffff" stroke-width="0.05" stroke-opacity="1" stroke-miterlimit="4"/><path stroke-linecap="round" transform="matrix(1.274592, 0, 0, 1.278095, -452.352064, -7.655095)" fill-opacity="1" fill="#54bf36" fill-rule="nonzero" stroke-linejoin="round" d="M 380.707418 23.052808 L 380.627736 22.071734 L 380.587895 21.258757 L 380.548054 21.050928 L 380.440789 21.325996 L 380.351912 21.634683 L 380.281424 21.931144 L 380.232389 22.258169 L 380.22013 22.527124 L 380.250777 22.903049 L 380.281424 23.615169 L 380.259971 24.321175 L 380.232389 25.360319 L 380.312071 25.35115 L 380.299812 25.846272 L 380.339654 26.601179 L 380.370301 27.056569 L 380.42853 27.887884 L 380.578701 30.335984 L 380.538859 31.396522 L 380.508212 32.240063 L 380.529665 32.961351 L 380.517407 33.35867 L 380.538859 35.131328 L 380.646124 36.699212 L 380.698224 37.579428 L 380.747259 38.056212 L 380.925012 40.712141 L 380.95566 41.020828 L 380.915818 41.396754 L 380.866783 41.604583 L 380.854524 41.794074 L 381.075183 41.622921 L 381.252936 41.436486 L 381.341813 41.295896 L 381.430689 41.140024 L 381.537954 40.782437 L 381.639089 40.186457 L 381.727966 38.701092 L 381.727966 37.658892 L 381.67893 36.390526 L 381.608442 35.064089 L 381.559407 34.171648 L 381.479724 33.071378 L 381.439883 32.695452 L 381.439883 31.732716 L 381.421495 30.959471 L 381.390848 30.106761 L 381.32036 26.301661 L 381.32036 25.134152 L 381.280518 24.776565 L 381.231483 24.348682 L 381.191642 23.905518 L 381.191642 23.578493 L 381.151801 23.340101 L 381.11196 23.220905 L 381.062924 23.15061 L 380.995501 23.132272 L 380.885171 23.101709 L 380.826942 23.101709 Z M 380.707418 23.052808 " stroke="#54bf36" stroke-width="0.05" stroke-opacity="1" stroke-miterlimit="4"/><path stroke-linecap="round" transform="matrix(1.274592, 0, 0, 1.278095, -452.352064, -7.655095)" fill-opacity="1" fill="#54bf36" fill-rule="nonzero" stroke-linejoin="round" d="M 376.009223 21.60412 L 376.444412 21.833343 L 376.833629 21.99227 L 377.069612 22.059509 L 377.3485 22.080903 L 377.517059 21.99227 L 377.535447 21.802779 L 377.455765 21.585782 L 377.486412 21.524656 L 377.734653 21.842511 L 378.080965 22.319295 L 378.684712 23.190342 L 379.012636 23.706858 L 379.469277 24.360907 L 379.625577 24.785734 L 379.757359 25.192222 L 379.806395 25.540641 L 379.886077 25.568148 L 379.886077 25.983805 L 379.913659 26.390294 L 379.953501 27.463057 L 379.886077 29.55357 L 379.806395 32.279795 L 379.913659 33.844623 L 380.103671 36.986505 L 380.192548 38.532996 L 380.232389 40.424849 L 380.152706 41.415092 L 379.904465 42.148605 L 379.717518 42.448123 L 379.429436 42.683459 L 379.02183 42.882118 L 378.715359 42.982976 L 378.289365 42.982976 L 377.952247 42.833218 L 377.486412 42.466461 L 377.130906 41.910213 L 376.852018 41.088067 L 376.781529 40.186457 L 376.802982 39.465169 L 376.821371 38.383237 L 376.870406 37.839214 L 376.950088 36.323287 L 377.167682 34.587305 L 377.406729 32.65572 L 377.535447 31.228426 L 377.566094 30.433786 L 377.575288 30.088424 L 377.575288 29.761399 L 377.5569 29.296841 L 377.654971 29.999791 L 377.694812 30.672178 L 377.783688 31.524887 L 377.854177 32.188105 L 378.010477 33.933256 L 378.13 35.342213 L 378.24033 36.738944 L 378.289365 37.292136 L 378.289365 38.71943 L 378.280171 39.562971 L 378.228071 40.424849 L 378.320012 40.562383 L 378.418083 40.623509 L 378.5468 40.61434 L 378.654065 40.544045 L 378.644871 40.47375 L 378.715359 39.028117 L 378.693906 38.166239 L 378.706165 37.778088 L 378.626483 36.292724 L 378.485506 34.538404 L 378.3384 32.952182 L 378.041124 29.978397 L 377.912406 28.352442 L 377.783688 27.184933 L 377.762235 27.096301 L 377.725459 27.084075 L 377.841918 25.757639 L 377.930794 25.788202 L 377.903212 25.687344 L 377.854177 25.540641 L 377.863371 25.302249 L 377.832724 24.834634 L 377.832724 24.577905 L 377.792883 24.180585 L 377.654971 23.706858 L 377.486412 23.300369 L 377.207524 22.832754 L 376.852018 22.359027 L 376.5149 22.041171 L 376.288112 21.833343 Z M 376.009223 21.60412 " stroke="#54bf36" stroke-width="0.05" stroke-opacity="1" stroke-miterlimit="4"/><path stroke-linecap="round" transform="matrix(1.274592, 0, 0, 1.278095, -452.352064, -7.655095)" fill-opacity="1" fill="#54bf36" fill-rule="nonzero" stroke-linejoin="round" d="M 376.110359 40.8619 L 376.076647 39.691335 L 376.147135 37.930904 L 376.628294 34.761515 L 377.075741 31.900813 L 377.179941 30.831106 L 377.179941 29.761399 L 377.250429 25.659837 L 377.042029 24.868254 L 376.870406 24.593186 L 376.652812 24.260049 L 376.361665 23.914687 L 375.911153 23.569324 L 376.067453 24.000263 L 376.239076 24.293668 L 376.413765 24.620693 L 376.413765 24.966056 L 376.429088 25.277799 L 376.395376 25.604823 L 376.324888 25.846272 L 376.376988 26.017425 L 376.429088 26.518659 L 376.447476 27.172708 L 376.499576 28.257697 L 376.5149 29.18987 L 376.4628 30.378773 L 376.4628 30.895288 L 376.239076 33.13556 L 376.085841 34.171648 L 376.000029 35.274974 L 375.929541 35.825109 L 375.877441 37.25546 L 375.843729 38.429081 L 375.810017 39.153426 L 375.843729 39.911389 L 375.895829 40.360666 L 376.000029 40.739648 Z M 376.110359 40.8619 " stroke="#54bf36" stroke-width="0.05" stroke-opacity="1" stroke-miterlimit="4"/></svg>