<svg xmlns="http://www.w3.org/2000/svg" xmlns:xlink="http://www.w3.org/1999/xlink" width="80" zoomAndPan="magnify" viewBox="0 0 60 67.92" height="80" preserveAspectRatio="xMidYMid meet" version="1.0"><path stroke-linecap="round" transform="matrix(1.325997, 0, 0, 1.304315, 1.394222, -7.94068)" fill-opacity="1" fill="#c27344" fill-rule="nonzero" stroke-linejoin="round" d="M 39.937758 29.289239 C 39.937758 39.627518 31.71576 48.007155 21.573037 48.007155 C 11.430313 48.007155 3.208315 39.627518 3.208315 29.289239 C 3.208315 18.947964 11.430313 10.568328 21.573037 10.568328 C 31.71576 10.568328 39.937758 18.947964 39.937758 29.289239 Z M 39.937758 29.289239 " stroke="#c27344" stroke-width="3" stroke-opacity="1" stroke-miterlimit="4"/><path stroke-linecap="round" transform="matrix(1.274592, 0, 0, 1.278095, -226.175956, -5.784675)" fill-opacity="1" fill="#ffffff" fill-rule="nonzero" stroke-linejoin="round" d="M 207.505279 28.54246 L 207.958856 27.555273 L 208.535021 26.708677 L 209.086668 26.173823 L 209.668962 25.718434 L 210.379974 25.354733 L 211.323903 25.070497 L 212.255574 24.881006 L 212.948198 24.786261 L 213.610174 24.740416 L 214.38248 24.81988 L 214.854445 24.96047 L 215.154786 25.165243 L 215.421416 25.418916 L 215.596104 25.669533 L 215.688045 26.079078 L 215.706434 26.488623 L 215.666592 26.653663 L 210.793709 29.425732 L 215.810634 26.919562 L 215.948545 27.063208 L 216.114039 27.21908 L 216.31631 27.481922 L 216.457287 27.750877 L 216.536969 27.958706 L 216.592134 28.206267 L 216.616651 28.462996 L 216.561487 28.820584 L 216.487934 29.071201 L 216.36841 29.358494 L 216.21211 29.630505 L 216.019034 29.917798 L 215.84741 30.140908 L 215.544004 30.470989 L 215.335604 30.66048 L 214.906545 31.030293 L 214.514263 31.326754 L 213.870674 31.742412 L 213.297574 32.063324 L 212.804157 32.310885 L 212.218798 32.567614 L 211.544562 32.799894 L 211.029692 32.91909 L 210.772256 32.94354 L 210.524015 32.958822 L 210.205286 32.934371 L 209.960109 32.897695 L 209.699609 32.839626 L 209.475885 32.760162 L 209.288938 32.683754 L 208.866009 32.43925 L 208.617768 32.252815 L 208.317426 31.977747 L 208.121285 31.748525 L 207.882238 31.449007 L 207.627867 31.039462 L 207.486891 30.767451 L 207.413338 30.574903 L 207.352044 30.348737 L 207.324461 30.150077 L 207.296879 29.84139 L 207.309138 29.529647 L 207.345914 29.16289 L 207.434791 28.790021 Z M 207.505279 28.54246 " stroke="#ffffff" stroke-width="0.05" stroke-opacity="1" stroke-miterlimit="4"/><path stroke-linecap="round" transform="matrix(1.274592, 0, 0, 1.278095, -226.175956, -5.784675)" fill-opacity="1" fill="#ffffff" fill-rule="nonzero" stroke-linejoin="round" d="M 203.74182 41.815995 L 202.748855 41.152777 L 202.178819 40.272561 L 201.878478 39.54516 L 201.633302 38.799421 L 201.424902 38.032289 L 201.345219 37.048158 L 201.259407 36.097647 L 201.311508 35.354965 L 201.434096 34.618395 L 201.734437 34.004078 L 201.973484 33.573139 L 202.233984 33.322522 L 202.53739 33.111637 L 202.819343 32.995497 L 203.239208 32.989385 L 203.643749 33.056623 L 203.796984 33.129975 L 205.415149 39.318993 L 204.088132 33.044398 L 204.241367 32.830457 L 204.458961 32.683754 L 204.759302 32.494263 L 205.019802 32.442306 L 205.271108 32.408687 L 205.510155 32.408687 L 205.810497 32.485094 L 206.120032 32.659304 L 206.411179 32.8274 L 206.588932 33.007722 L 206.82185 33.215551 L 207.063961 33.463112 L 207.244779 33.68011 L 207.505279 34.04381 L 207.64932 34.288314 L 207.922079 34.786492 L 208.127415 35.229657 L 208.476791 35.914269 L 208.721968 36.635557 L 208.813909 37.152073 L 208.927303 37.748052 L 208.951821 38.441834 L 208.961015 38.970574 L 208.930368 39.224248 L 208.893591 39.471809 L 208.804715 39.777439 L 208.718903 40.009718 L 208.605509 40.251166 L 208.482921 40.455939 L 208.366462 40.624036 L 208.038538 40.98468 L 207.869979 41.235297 L 207.630932 41.473689 L 207.382691 41.678461 L 207.054767 41.913797 L 206.662485 42.060499 L 206.306979 42.112456 L 206.006638 42.146076 L 205.776785 42.170526 L 205.510155 42.173583 L 205.219008 42.16747 L 204.93399 42.136907 L 204.630585 42.088006 L 204.173943 41.953529 Z M 203.74182 41.815995 " stroke="#ffffff" stroke-width="0.05" stroke-opacity="1" stroke-miterlimit="4"/><path stroke-linecap="round" transform="matrix(1.274592, 0, 0, 1.278095, -226.175956, -5.784675)" fill="none" stroke-linejoin="round" d="M 194.737712 24.089423 L 195.503889 22.179232 L 196.38346 20.519658 L 197.345777 18.866197 L 198.20083 17.594774 L 199.417519 16.381421 L 200.333866 15.754878 L 201.709919 15.330051 L 203.312761 15.119166 L 205.022867 15.281151 L 206.472473 16.07579 L 207.64932 16.998794 L 208.299038 18.099064 L 208.501309 19.287967 L 208.458403 20.690811 L 208.216291 21.928615 L 207.627867 23.105293 L 207.048638 23.765455 L 205.948408 24.569263 L 204.983026 25.308889 L 203.521161 26.351089 L 202.083814 27.475809 L 201.348284 28.502728 L 200.34919 30.290667 L 199.521719 32.301716 L 198.574725 33.759574 L 197.47756 34.731479 L 196.27926 35.575019 L 194.284136 36.247406 L 192.285947 36.568318 L 190.453253 36.663064 L 188.954611 36.494967 L 187.998423 36.213787 L 187.253699 35.724778 L 186.585593 34.82928 L 186.245411 32.372011 L 186.588658 30.929435 L 187.339511 29.227073 L 188.179241 28.016776 L 189.509323 26.610875 L 191.256206 25.446423 L 192.429988 24.84433 L 193.573124 24.434786 Z M 194.737712 24.089423 " stroke="#ffffff" stroke-width="1.9" stroke-opacity="1" stroke-miterlimit="4"/><path stroke-linecap="round" transform="matrix(1.274592, 0, 0, 1.278095, -226.175956, -5.784675)" fill="none" stroke-linejoin="round" d="M 198.786189 17.949305 L 200.465649 18.257992 L 202.408672 18.875366 L 204.134102 19.758638 L 205.945344 21.042286 L 207.578832 22.368723 " stroke="#ffffff" stroke-width="0.4" stroke-opacity="1" stroke-miterlimit="4"/><path stroke-linecap="butt" transform="matrix(1.274592, 0, 0, 1.278095, -226.175956, -5.784675)" fill="none" stroke-linejoin="miter" d="M 196.708318 20.953654 L 199.049754 21.130919 L 200.906966 21.748293 L 202.764178 23.163362 L 204.486543 25.01854 " stroke="#ffffff" stroke-width="0.4" stroke-opacity="1" stroke-miterlimit="4"/><path stroke-linecap="butt" transform="matrix(1.274592, 0, 0, 1.278095, -226.175956, -5.784675)" fill="none" stroke-linejoin="miter" d="M 195.028859 24.798486 L 196.046342 24.798486 L 196.840101 25.01854 L 198.344872 25.770391 L 199.35929 26.433609 L 199.97836 27.050983 L 201.038749 28.200154 " stroke="#ffffff" stroke-width="0.4" stroke-opacity="1" stroke-miterlimit="4"/><path stroke-linecap="butt" transform="matrix(1.274592, 0, 0, 1.278095, -226.175956, -5.784675)" fill="none" stroke-linejoin="miter" d="M 189.680947 27.050983 L 191.139747 27.274093 L 192.950988 27.760046 L 194.587542 28.423264 L 196.000371 29.437958 L 196.974948 30.455707 L 197.459172 31.250347 L 198.430683 33.062736 " stroke="#ffffff" stroke-width="0.4" stroke-opacity="1" stroke-miterlimit="4"/><path stroke-linecap="butt" transform="matrix(1.274592, 0, 0, 1.278095, -226.175956, -5.784675)" fill="none" stroke-linejoin="miter" d="M 187.29354 29.92391 L 189.8587 30.498496 L 191.182653 31.030293 L 192.7763 31.86772 L 194.100253 33.062736 L 194.8082 33.857375 L 196.046342 35.403866 " stroke="#ffffff" stroke-width="0.4" stroke-opacity="1" stroke-miterlimit="4"/><path stroke-linecap="butt" transform="matrix(1.274592, 0, 0, 1.278095, -226.175956, -5.784675)" fill="none" stroke-linejoin="miter" d="M 200.640337 16.445603 L 200.554525 18.169359 L 199.889484 19.673062 L 198.875066 21.748293 L 196.751224 25.01854 L 193.61603 28.068733 L 191.936571 29.615223 L 190.342923 30.764394 L 188.709435 32.090831 L 188.047458 32.665416 L 186.72044 33.591477 L 186.941099 33.417267 " stroke="#ffffff" stroke-width="0.4" stroke-opacity="1" stroke-miterlimit="4"/><path stroke-linecap="butt" transform="matrix(1.274592, 0, 0, 1.278095, -226.175956, -5.784675)" fill="none" stroke-linejoin="miter" d="M 187.912611 35.626976 L 188.663464 35.2266 L 192.022382 32.619572 L 193.879594 30.984448 L 195.381301 29.437958 L 197.370295 27.139616 L 198.740219 25.238594 L 200.156113 23.383416 L 201.305378 21.308185 L 201.789602 20.247647 L 202.454643 18.786733 L 202.984837 16.888767 L 203.205496 15.516486 " stroke="#ffffff" stroke-width="0.4" stroke-opacity="1" stroke-miterlimit="4"/><path stroke-linecap="butt" transform="matrix(1.274592, 0, 0, 1.278095, -226.175956, -5.784675)" fill="none" stroke-linejoin="miter" d="M 205.369179 15.782385 L 204.707202 17.726195 L 203.956349 20.11317 L 203.11662 22.457356 L 201.746696 24.578432 L 200.554525 26.124922 L 199.800607 27.050983 L 198.565531 28.952005 L 197.67983 30.058388 L 197.017854 30.807182 L 195.779712 32.179464 L 194.541571 33.105524 L 190.741335 36.24435 " stroke="#ffffff" stroke-width="0.4" stroke-opacity="1" stroke-miterlimit="4"/><path stroke-linecap="butt" transform="matrix(1.274592, 0, 0, 1.278095, -226.175956, -5.784675)" fill="none" stroke-linejoin="miter" d="M 206.653291 16.711502 L 206.254879 18.743945 L 206.077126 19.935904 L 205.724685 21.219552 L 205.016738 23.163362 L 204.397667 24.887119 " stroke="#ffffff" stroke-width="0.4" stroke-opacity="1" stroke-miterlimit="4"/></svg>