<svg xmlns="http://www.w3.org/2000/svg" xmlns:xlink="http://www.w3.org/1999/xlink" width="80" zoomAndPan="magnify" viewBox="0 0 60 67.92" height="80" preserveAspectRatio="xMidYMid meet" version="1.0"><path stroke-linecap="round" transform="matrix(1.325997, 0, 0, 1.304315, 1.394208, -8.063791)" fill-opacity="1" fill="#1cb6f1" fill-rule="nonzero" stroke-linejoin="round" d="M 39.937769 29.28779 C 39.937769 39.62607 31.71577 48.008701 21.573047 48.008701 C 11.430324 48.008701 3.208325 39.62607 3.208325 29.28779 C 3.208325 18.949511 11.430324 10.566879 21.573047 10.566879 C 31.71577 10.566879 39.937769 18.949511 39.937769 29.28779 Z M 39.937769 29.28779 " stroke="#1cb6f1" stroke-width="3" stroke-opacity="1" stroke-miterlimit="4"/><path stroke-linecap="butt" transform="matrix(1.274592, 0, 0, 1.278095, -280.436448, -449.981693)" fill-opacity="1" fill="#ffffff" fill-rule="nonzero" stroke-linejoin="miter" d="M 250.211001 378.655814 L 249.975018 380.633243 L 249.723713 381.525685 C 249.631771 381.883272 249.490795 382.210297 249.328365 382.528153 C 249.169001 382.775714 248.86253 382.983542 248.629612 383.209709 L 247.394536 384.108263 L 246.441412 384.710355 L 245.727335 385.06183 L 244.256276 385.074055 L 243.428806 385.046548 C 242.736182 385.083224 241.97307 385.046548 241.24367 385.046548 C 240.465234 384.731749 239.720511 384.163276 238.957399 383.717056 L 237.611993 382.607617 L 237.195193 381.684612 L 236.858075 380.153403 L 236.658869 378.065947 L 236.827428 377.197956 L 237.127769 376.678384 L 237.431175 376.314684 L 237.780552 375.516988 L 238.439463 373.875752 L 238.78884 373.343955 L 239.365005 372.854946 L 240.106664 372.503471 L 240.443781 372.249797 L 240.624599 372.026687 L 240.710411 371.843309 L 240.808482 371.479608 L 240.934135 371.198428 L 241.311093 371.115908 L 241.703376 371.256498 L 242.126305 371.534622 L 242.503264 371.620198 L 242.91087 371.565185 L 243.235729 371.568241 C 243.306217 371.589635 243.287829 371.614086 243.303153 371.63548 L 243.434935 371.650762 L 243.4901 371.696606 L 243.514617 371.620198 L 243.628011 371.626311 L 243.695435 371.562129 L 243.894641 371.559072 L 244.155141 371.592692 L 244.363541 371.589635 L 244.587265 371.598804 L 244.777276 371.556016 L 244.933576 371.485721 L 245.203271 371.299286 L 245.3136 371.256498 L 245.457641 371.204541 L 245.653782 371.143415 L 245.883635 371.152584 L 246.061388 371.277892 L 246.15333 371.501003 L 246.211559 371.928885 L 246.331083 372.078644 L 246.591583 372.362881 L 247.167747 372.65323 L 247.523253 372.821327 L 247.881824 373.078056 L 248.114742 373.316448 L 248.378306 373.774894 L 248.464118 373.946047 L 248.712359 374.438112 L 249.009636 375.168569 L 249.110771 375.437524 L 249.426436 376.158812 L 249.778877 376.684497 L 250.054701 377.152111 L 250.109866 377.30187 L 250.22326 377.561656 Z M 250.211001 378.655814 " stroke="#ffffff" stroke-width="0.05" stroke-opacity="1" stroke-miterlimit="4"/><path stroke-linecap="butt" transform="matrix(1.274592, 0, 0, 1.278095, -53.284726, -6.01922)" fill-opacity="1" fill="#ffffff" fill-rule="nonzero" stroke-linejoin="miter" d="M 58.48652 29.294445 L 58.820573 28.869618 L 58.848155 28.869618 L 58.983002 28.689296 L 59.329314 27.757123 L 59.614332 26.916639 L 58.131014 25.78275 L 58.397643 25.370148 L 58.578461 24.737493 L 58.569267 23.704462 L 58.397643 22.726444 L 59.10559 22.319956 L 60.123073 21.525316 L 61.207979 20.336413 L 61.808661 19.150567 L 62.03545 17.946382 C 62.004803 17.646864 62.013997 17.423754 61.912861 16.986702 L 61.808661 16.519088 L 61.46235 17.151743 L 60.981191 17.931101 L 60.365185 18.640164 L 59.825796 19.223918 L 59.179143 19.749603 L 58.563137 20.156091 L 58.131014 20.382258 L 58.158596 19.526492 L 58.489584 17.738554 L 59.044296 16.311259 L 59.586749 15.018442 L 58.983002 15.467719 L 58.081978 16.039248 L 57.631467 16.38461 L 56.984813 17.032547 L 56.445425 17.723272 L 55.948943 18.429279 L 55.437137 19.511211 L 55.032595 20.938505 L 54.913072 21.913467 L 54.882425 22.6806 L 55.001948 23.793095 L 55.182766 24.499101 L 55.424878 25.235671 L 55.679249 25.669666 L 55.964266 25.941678 L 56.218637 26.134225 L 56.518978 26.662966 L 56.699796 27.02361 L 57.134984 27.848812 L 57.588561 28.420341 L 57.888902 28.780985 L 58.16779 29.074391 L 58.348608 29.251656 C 58.449743 29.230262 58.43442 29.19053 58.48652 29.294445 Z M 58.48652 29.294445 " stroke="#ffffff" stroke-width="0.05" stroke-opacity="1" stroke-miterlimit="4"/><path stroke-linecap="butt" transform="matrix(1.274592, 0, 0, 1.278095, -53.284726, -6.01922)" fill-opacity="1" fill="#ffffff" fill-rule="nonzero" stroke-linejoin="miter" d="M 58.468131 29.373909 L 57.760184 29.147742 L 57.208537 28.964364 L 56.644631 28.814605 L 56.332031 28.747366 L 56.080725 28.701521 L 55.912166 28.732084 L 55.768125 28.787098 L 55.66086 28.878787 L 55.461654 29.04994 L 55.360519 29.129404 L 55.290031 29.260825 L 55.30229 29.401415 L 55.342131 29.572568 L 55.480043 29.789566 L 55.673119 29.966832 L 55.866196 30.119647 L 56.172666 30.351926 L 56.555755 30.556699 L 56.874484 30.71257 L 57.214666 30.865386 L 57.916484 31.149622 L 57.248378 31.247424 L 56.525108 31.354395 L 55.918296 31.42469 L 55.495366 31.491928 L 55.283901 31.595843 L 55.124537 31.760883 L 55.03566 31.98705 L 54.965172 32.225442 L 54.971301 32.448552 L 55.096954 32.641099 L 55.329872 32.784746 L 55.61489 32.879491 L 55.961202 32.965068 L 56.29219 33.0048 L 56.70899 33.023137 L 57.180955 33.017025 L 57.567108 32.983405 L 57.996167 32.943673 L 58.091173 32.922279 L 57.919549 32.983405 L 57.652919 33.075095 L 57.128855 33.313486 L 56.644631 33.643567 L 56.402519 33.842227 L 56.157343 34.07145 L 55.887649 34.377081 L 55.682313 34.685768 L 55.568919 34.930272 L 55.535207 35.232846 L 55.642472 35.459013 L 55.780384 35.614884 L 55.912166 35.700461 L 56.065402 35.782981 L 56.237025 35.828826 L 56.411713 35.795206 L 56.663019 35.703517 L 56.880613 35.602659 L 57.141114 35.443731 L 57.447584 35.248128 L 57.659049 35.128932 L 57.916484 35.015849 L 58.281184 34.869146 L 58.553943 34.792738 L 58.673467 34.759119 L 58.483455 34.872202 L 58.302637 35.015849 L 58.005361 35.28786 L 57.876643 35.477351 L 57.686631 35.7677 L 57.527267 36.097781 L 57.426131 36.369792 L 57.38629 36.534832 L 57.401614 36.739605 L 57.453714 36.984109 L 57.637596 37.146093 L 57.784702 37.201107 L 57.858255 37.20722 L 57.999231 37.274458 L 58.161661 37.320303 L 58.394578 37.246952 L 58.599914 37.100249 L 58.866543 36.825181 L 59.099461 36.666253 L 59.589814 36.369792 L 59.908543 36.229202 L 59.975967 36.18947 L 59.78902 36.039711 L 59.516261 35.819657 L 59.326249 35.608772 L 59.127043 35.352042 L 58.986067 35.122819 L 58.701049 34.462657 L 58.569267 34.031718 L 58.37619 33.206516 L 58.348608 32.943673 L 58.170855 31.718095 L 58.131014 31.134341 L 58.155531 30.358039 L 58.183114 30.177717 L 58.210696 30.131872 L 58.204567 30.079915 L 58.222955 29.887368 L 58.348608 29.6123 Z M 58.468131 29.373909 " stroke="#ffffff" stroke-width="0.05" stroke-opacity="1" stroke-miterlimit="4"/><path stroke-linecap="butt" transform="matrix(1.274592, 0, 0, 1.278095, -53.284726, -6.01922)" fill-opacity="1" fill="#ffffff" fill-rule="nonzero" stroke-linejoin="miter" d="M 53.693319 27.567632 L 53.760742 27.723504 L 53.913978 27.986346 L 54.085601 28.267526 L 54.238837 28.46313 L 54.404331 28.68624 L 54.52079 28.814605 L 54.615795 28.887956 L 54.759837 28.958251 L 54.876295 28.973533 L 55.03566 28.96742 L 55.188896 28.894069 L 55.342131 28.738197 L 55.427943 28.527312 L 55.440201 28.331708 L 55.35439 28.010796 L 55.195025 27.830474 L 54.882425 27.439267 L 54.529984 26.934977 L 54.290937 26.571276 L 54.14996 26.348166 L 53.978336 26.189238 L 53.855748 26.109774 L 53.68106 26.066986 L 53.500242 26.14645 L 53.377654 26.268702 L 53.347007 26.445968 L 53.377654 26.641571 L 53.432819 26.892189 L 53.521695 27.158087 L 53.573795 27.310902 L 53.641219 27.44538 Z M 53.693319 27.567632 " stroke="#ffffff" stroke-width="0.05" stroke-opacity="1" stroke-miterlimit="4"/><path stroke-linecap="butt" transform="matrix(1.274592, 0, 0, 1.278095, -53.284726, -6.01922)" fill-opacity="1" fill="#ffffff" fill-rule="nonzero" stroke-linejoin="miter" d="M 53.016019 23.893953 L 52.994566 24.080387 L 52.963919 24.263766 L 52.970048 24.587734 L 52.976177 24.862802 L 52.988436 25.085912 L 53.012954 25.364036 L 53.028278 25.529076 L 53.04973 25.632991 L 53.104895 25.730792 L 53.172319 25.828594 L 53.248936 25.871383 L 53.359266 25.917227 L 53.481854 25.901946 L 53.610572 25.856101 L 53.690254 25.758299 L 53.739289 25.672723 L 53.769936 25.574921 L 53.776066 25.489344 L 53.78526 25.415993 L 53.748484 25.367092 L 53.68106 25.150094 L 53.586054 24.786394 L 53.533954 24.548002 L 53.515566 24.413525 L 53.429754 24.123176 L 53.334748 23.793095 L 53.25813 23.594435 L 53.221354 23.539421 L 53.175383 23.511915 L 53.10796 23.58221 L 53.061989 23.719743 L 53.040536 23.82977 Z M 53.016019 23.893953 " stroke="#ffffff" stroke-width="0.05" stroke-opacity="1" stroke-miterlimit="4"/><path stroke-linecap="butt" transform="matrix(1.274592, 0, 0, 1.278095, -53.284726, -6.01922)" fill-opacity="1" fill="#ffffff" fill-rule="nonzero" stroke-linejoin="miter" d="M 51.618513 27.472887 L 51.566413 27.524844 L 51.523507 27.695997 L 51.498989 27.864094 L 51.480601 28.09026 L 51.468342 28.368384 L 51.471407 28.551762 L 51.480601 28.732084 L 51.511248 28.958251 L 51.563348 29.193587 L 51.621577 29.425866 L 51.670613 29.50533 L 51.713518 29.618413 L 51.774813 29.713159 L 51.866754 29.762059 L 51.995471 29.783454 L 52.096607 29.755947 L 52.133383 29.72844 L 52.27436 29.64592 L 52.335654 29.554231 L 52.360172 29.493105 L 52.387754 29.395303 L 52.360172 29.230262 L 52.286619 29.126348 L 52.096607 28.747366 L 51.980148 28.411172 L 51.848366 27.943558 L 51.762554 27.66849 L 51.704324 27.509562 L 51.670613 27.454549 Z M 51.618513 27.472887 " stroke="#ffffff" stroke-width="0.05" stroke-opacity="1" stroke-miterlimit="4"/><path stroke-linecap="butt" transform="matrix(1.274592, 0, 0, 1.278095, -53.284726, -6.01922)" fill-opacity="1" fill="#ffffff" fill-rule="nonzero" stroke-linejoin="miter" d="M 52.957789 31.406352 L 52.786166 31.241311 L 52.596154 31.097665 L 52.403077 30.932624 L 52.308071 30.792034 L 52.21613 30.608656 L 52.142577 30.440559 L 52.130319 30.32442 L 52.133383 30.134929 L 52.22226 30.040183 L 52.317266 29.98517 C 52.381624 29.902649 52.442919 29.905706 52.507277 29.911818 L 52.73713 30.00962 L 53.086507 30.263293 L 53.429754 30.510854 L 53.791389 30.724796 L 54.244966 30.975413 L 54.57289 31.164904 L 54.646442 31.183241 L 54.784354 31.326888 L 54.842584 31.388014 L 54.888554 31.494985 L 54.88549 31.580561 L 54.854843 31.702813 L 54.799678 31.81284 L 54.732254 31.913698 L 54.67096 31.971768 L 54.557566 32.026782 L 54.422719 32.063457 L 54.263354 32.057345 L 54.137701 32.042063 L 53.877201 31.947318 L 53.595248 31.794503 L 53.313295 31.629462 L 53.114089 31.519435 Z M 52.957789 31.406352 " stroke="#ffffff" stroke-width="0.046" stroke-opacity="1" stroke-miterlimit="4"/><path stroke-linecap="butt" transform="matrix(1.274592, 0, 0, 1.278095, -53.284726, -6.01922)" fill-opacity="1" fill="#ffffff" fill-rule="nonzero" stroke-linejoin="miter" d="M 55.50456 37.436442 L 55.841678 36.690704 C 55.896843 36.602071 55.976525 36.55317 55.955072 36.339229 C 55.902972 36.171132 55.902972 36.152794 55.841678 36.04888 C 55.755866 35.880783 55.673119 35.883839 55.590372 35.813544 C 55.418749 35.697405 55.323743 35.7677 55.204219 35.773812 C 54.974366 35.905233 54.925331 35.999979 54.815001 36.10695 L 54.413525 37.130812 L 54.275613 37.732904 L 54.214319 38.417517 L 54.346101 38.814836 L 54.609666 39.013496 L 54.860972 38.955426 L 55.001948 38.759823 L 55.30229 37.949902 Z M 55.50456 37.436442 " stroke="#ffffff" stroke-width="0.05" stroke-opacity="1" stroke-miterlimit="4"/><path stroke-linecap="butt" transform="matrix(1.274592, 0, 0, 1.278095, -53.284726, -6.01922)" fill-opacity="1" fill="#ffffff" fill-rule="nonzero" stroke-linejoin="miter" d="M 54.471754 39.435266 L 54.585148 39.294676 L 54.664831 39.251888 L 54.772095 39.23355 L 54.928395 39.242719 L 55.063243 39.294676 L 55.121472 39.435266 L 55.142925 39.517787 L 55.204219 39.670602 L 55.24406 39.832586 L 55.317613 40.101541 L 55.427943 40.382721 L 55.568919 40.718915 L 55.66086 40.981757 L 55.774254 41.186529 L 55.82329 41.296556 L 55.82329 41.388245 L 55.722154 41.397414 L 55.550531 41.31795 L 55.397296 41.217092 L 55.152119 41.003151 L 54.959043 40.737252 L 54.704672 40.352158 L 54.594342 40.101541 L 54.490142 39.805079 L 54.450301 39.588082 Z M 54.471754 39.435266 " stroke="#ffffff" stroke-width="0.05" stroke-opacity="1" stroke-miterlimit="4"/><path stroke-linecap="butt" transform="matrix(1.274592, 0, 0, 1.278095, -53.284726, -6.01922)" fill-opacity="1" fill="#ffffff" fill-rule="nonzero" stroke-linejoin="miter" d="M 59.096396 40.315482 L 59.16382 40.242131 L 59.249632 40.174892 L 59.356896 40.101541 L 59.525455 40.101541 L 59.853379 40.202399 L 60.184367 40.300201 L 60.405026 40.367439 L 60.705367 40.456072 L 60.941349 40.501917 L 61.217173 40.569156 L 61.437832 40.636394 L 61.545097 40.737252 L 61.511385 40.792266 L 61.41025 40.83811 L 61.290726 40.87173 L 61.155879 40.893124 L 60.968932 40.938969 L 60.72682 40.960363 L 60.558261 40.966475 L 60.303891 40.966475 L 60.083232 40.945081 L 59.813538 40.917574 L 59.605137 40.877842 L 59.344637 40.816716 L 59.176079 40.709746 L 59.068814 40.569156 L 59.068814 40.388834 Z M 59.096396 40.315482 " stroke="#ffffff" stroke-width="0.05" stroke-opacity="1" stroke-miterlimit="4"/><path stroke-linecap="butt" transform="matrix(1.274592, 0, 0, 1.278095, -53.284726, -6.01922)" fill-opacity="1" fill="#ffffff" fill-rule="nonzero" stroke-linejoin="miter" d="M 58.210696 38.805667 L 58.183114 38.625345 L 58.176984 38.441967 L 58.176984 38.316658 L 58.204567 38.182181 L 58.204567 38.093548 L 58.210696 38.014084 L 58.176984 37.873494 L 58.06359 37.705397 L 57.968584 37.604539 L 57.80309 37.537301 L 57.695825 37.470062 L 57.585496 37.470062 L 57.465972 37.491456 L 57.358708 37.558695 L 57.199343 37.659553 L 57.076755 37.839875 L 57.043043 37.96824 L 57.003202 38.200519 L 57.009331 38.457248 L 57.043043 38.759823 L 57.092078 39.019609 L 57.156437 39.276338 L 57.285155 39.557518 L 57.459843 39.805079 L 57.701955 40.101541 L 57.962455 40.248244 L 58.170855 40.382721 L 58.419096 40.44996 L 58.593784 40.468298 L 58.74089 40.428566 L 58.814443 40.33382 L 58.875737 40.220737 L 58.915579 40.101541 L 58.875737 39.905937 L 58.753149 39.725615 L 58.53862 39.45666 L 58.385384 39.248832 L 58.299573 39.09296 L 58.238278 38.946257 Z M 58.210696 38.805667 " stroke="#ffffff" stroke-width="0.05" stroke-opacity="1" stroke-miterlimit="4"/><path stroke-linecap="butt" transform="matrix(-1.274592, 0, 0, 1.278095, 113.284671, -5.813277)" fill-opacity="1" fill="#ffffff" fill-rule="nonzero" stroke-linejoin="miter" d="M 58.486476 29.295296 L 58.820529 28.870469 L 58.848112 28.870469 L 58.982959 28.690147 L 59.329271 27.757974 L 59.614288 26.91749 L 58.13097 25.783601 L 58.3976 25.367943 L 58.578417 24.738344 L 58.569223 23.705313 L 58.3976 22.724239 L 59.105547 22.320807 L 60.12303 21.526167 L 61.207936 20.337264 L 61.808618 19.148362 L 62.035406 17.947234 C 62.004759 17.644659 62.013953 17.424605 61.912818 16.987554 L 61.808618 16.519939 L 61.462306 17.152594 L 60.981147 17.931952 L 60.365141 18.637959 L 59.825753 19.224769 L 59.1791 19.750454 L 58.563094 20.156942 L 58.13097 20.383109 L 58.158553 19.524287 L 58.489541 17.736349 L 59.044253 16.309054 L 59.586706 15.019293 L 58.982959 15.46857 L 58.081935 16.040099 L 57.631423 16.385461 L 56.98477 17.030342 L 56.445382 17.721067 L 55.948899 18.427074 L 55.440158 19.509006 L 55.032552 20.9363 L 54.913029 21.914318 L 54.882382 22.681451 L 55.001905 23.79089 L 55.182723 24.496896 L 55.424835 25.233466 L 55.679205 25.670518 L 55.964223 25.939472 L 56.218594 26.135076 L 56.518935 26.660761 L 56.699752 27.021405 L 57.134941 27.849663 L 57.588517 28.418136 L 57.888859 28.77878 L 58.167747 29.075242 L 58.348565 29.249451 C 58.4497 29.231113 58.434376 29.188325 58.486476 29.295296 Z M 58.486476 29.295296 " stroke="#ffffff" stroke-width="0.05" stroke-opacity="1" stroke-miterlimit="4"/><path stroke-linecap="butt" transform="matrix(-1.274592, 0, 0, 1.278095, 113.284671, -5.813277)" fill-opacity="1" fill="#ffffff" fill-rule="nonzero" stroke-linejoin="miter" d="M 58.468088 29.37476 L 57.760141 29.145537 L 57.208494 28.965215 L 56.644588 28.815456 L 56.331988 28.748217 L 56.080682 28.702373 L 55.912123 28.729879 L 55.768082 28.787949 L 55.660817 28.879638 L 55.461611 29.050791 L 55.360476 29.130255 L 55.289988 29.261676 L 55.302246 29.402267 L 55.342088 29.57342 L 55.479999 29.790417 L 55.673076 29.964627 L 55.866152 30.120498 L 56.172623 30.352778 L 56.555711 30.55755 L 56.874441 30.713422 L 57.214623 30.866237 L 57.916441 31.150473 L 57.248335 31.248275 L 56.525064 31.355246 L 55.918252 31.422484 L 55.495323 31.492779 L 55.283858 31.593638 L 55.124493 31.758678 L 55.035617 31.987901 L 54.965129 32.226293 L 54.971258 32.449403 L 55.096911 32.64195 L 55.329829 32.785597 L 55.614846 32.880342 L 55.961158 32.965919 L 56.292146 33.005651 L 56.708947 33.023989 L 57.180911 33.017876 L 57.567064 32.984257 L 57.996123 32.944525 L 58.091129 32.920074 L 57.92257 32.984257 L 57.652876 33.075946 L 57.128811 33.314338 L 56.644588 33.644419 L 56.402476 33.843078 L 56.157299 34.072301 L 55.887605 34.377932 L 55.68227 34.686619 L 55.568876 34.931123 L 55.535164 35.233697 L 55.642429 35.459864 L 55.780341 35.612679 L 55.912123 35.698256 L 56.065358 35.783832 L 56.236982 35.829677 L 56.41167 35.796058 L 56.662976 35.704368 L 56.88057 35.60351 L 57.14107 35.441526 L 57.447541 35.248979 L 57.659006 35.129783 L 57.916441 35.0167 L 58.281141 34.866941 L 58.5539 34.793589 L 58.673423 34.75997 L 58.483412 34.873053 L 58.302594 35.0167 L 58.005317 35.288711 L 57.8766 35.478202 L 57.686588 35.768551 L 57.527223 36.098632 L 57.426088 36.370643 L 57.386247 36.535684 L 57.40157 36.740456 L 57.45367 36.98496 L 57.637553 37.143888 L 57.784659 37.201958 L 57.858211 37.208071 L 58.002253 37.275309 L 58.161617 37.321154 L 58.394535 37.247803 L 58.59987 37.098044 L 58.8665 36.826033 L 59.099418 36.667105 L 59.589771 36.370643 L 59.9085 36.226997 L 59.975924 36.187265 L 59.788977 36.040562 L 59.516218 35.817452 L 59.326206 35.606567 L 59.127 35.352893 L 58.986023 35.12367 L 58.701006 34.463508 L 58.569223 34.029513 L 58.376147 33.204311 L 58.348565 32.944525 L 58.170812 31.718946 L 58.13097 31.132135 L 58.155488 30.35889 L 58.18307 30.175512 L 58.210653 30.132724 L 58.204523 30.080766 L 58.222912 29.885163 L 58.348565 29.613152 Z M 58.468088 29.37476 " stroke="#ffffff" stroke-width="0.05" stroke-opacity="1" stroke-miterlimit="4"/><path stroke-linecap="butt" transform="matrix(-1.274592, 0, 0, 1.278095, 113.284671, -5.813277)" fill-opacity="1" fill="#ffffff" fill-rule="nonzero" stroke-linejoin="miter" d="M 53.693275 27.565427 L 53.760699 27.724355 L 53.913934 27.984141 L 54.085558 28.265321 L 54.238793 28.463981 L 54.404287 28.687091 L 54.520746 28.8124 L 54.615752 28.888807 L 54.759793 28.956046 L 54.876252 28.974384 L 55.035617 28.968271 L 55.188852 28.89492 L 55.345152 28.739048 L 55.427899 28.528163 L 55.440158 28.329503 L 55.354346 28.011648 L 55.194982 27.831326 L 54.882382 27.437062 L 54.52994 26.932772 L 54.290893 26.572128 L 54.149917 26.349017 L 53.978293 26.190089 L 53.855705 26.110626 L 53.681017 26.067837 L 53.500199 26.147301 L 53.377611 26.269553 L 53.346964 26.443763 L 53.377611 26.642423 L 53.432775 26.889983 L 53.573752 27.311754 L 53.641175 27.446231 Z M 53.693275 27.565427 " stroke="#ffffff" stroke-width="0.05" stroke-opacity="1" stroke-miterlimit="4"/><path stroke-linecap="butt" transform="matrix(-1.274592, 0, 0, 1.278095, 113.284671, -5.813277)" fill-opacity="1" fill="#ffffff" fill-rule="nonzero" stroke-linejoin="miter" d="M 53.015975 23.894804 L 52.997587 24.078182 L 52.963875 24.261561 L 52.970005 24.585529 L 52.976134 24.863653 L 52.988393 25.086763 L 53.012911 25.364887 L 53.028234 25.526871 L 53.049687 25.633842 L 53.104852 25.731644 L 53.172275 25.829445 L 53.248893 25.872234 L 53.359222 25.918078 L 53.481811 25.902797 L 53.610528 25.856952 L 53.690211 25.75915 L 53.739246 25.673574 L 53.769893 25.575772 L 53.776023 25.490196 L 53.785217 25.413788 L 53.751505 25.367943 L 53.681017 25.147889 L 53.586011 24.787245 L 53.533911 24.548853 L 53.515522 24.414376 L 53.429711 24.120971 L 53.334705 23.793946 L 53.258087 23.595286 L 53.221311 23.540273 L 53.17534 23.512766 L 53.107917 23.583061 L 53.061946 23.720595 L 53.040493 23.827565 Z M 53.015975 23.894804 " stroke="#ffffff" stroke-width="0.05" stroke-opacity="1" stroke-miterlimit="4"/><path stroke-linecap="butt" transform="matrix(-1.274592, 0, 0, 1.278095, 113.284671, -5.813277)" fill-opacity="1" fill="#ffffff" fill-rule="nonzero" stroke-linejoin="miter" d="M 51.618469 27.473738 L 51.566369 27.525695 L 51.523463 27.696848 L 51.498946 27.864945 L 51.480557 28.091111 L 51.468299 28.369235 L 51.471363 28.552614 L 51.480557 28.729879 L 51.511204 28.959102 L 51.563304 29.191381 L 51.621534 29.426717 L 51.670569 29.506181 L 51.713475 29.619264 L 51.774769 29.710953 L 51.86671 29.762911 L 51.995428 29.781248 L 52.096563 29.753742 L 52.13334 29.726235 L 52.274316 29.646771 L 52.335611 29.555082 L 52.360128 29.493956 L 52.387711 29.396154 L 52.360128 29.231113 L 52.286575 29.127199 L 52.096563 28.748217 L 51.980105 28.412024 L 51.848322 27.941353 L 51.76251 27.669341 L 51.704281 27.507357 L 51.670569 27.4554 Z M 51.618469 27.473738 " stroke="#ffffff" stroke-width="0.05" stroke-opacity="1" stroke-miterlimit="4"/><path stroke-linecap="butt" transform="matrix(-1.274592, 0, 0, 1.278095, 113.284671, -5.813277)" fill-opacity="1" fill="#ffffff" fill-rule="nonzero" stroke-linejoin="miter" d="M 52.957746 31.404147 L 52.786122 31.242162 L 52.596111 31.098516 L 52.403034 30.933476 L 52.308028 30.792886 L 52.216087 30.609507 L 52.142534 30.44141 L 52.130275 30.325271 L 52.13334 30.13578 L 52.222216 30.041034 L 52.317222 29.982965 C 52.381581 29.900444 52.442875 29.906557 52.507234 29.91267 L 52.737087 30.010471 L 53.086464 30.264145 L 53.429711 30.511705 L 53.791346 30.725647 L 54.244923 30.976264 L 54.572846 31.162699 L 54.646399 31.184093 L 54.784311 31.327739 L 54.84254 31.388865 L 54.888511 31.495836 L 54.885446 31.578356 L 54.854799 31.703665 L 54.799634 31.813692 L 54.732211 31.91455 L 54.670917 31.969563 L 54.557523 32.027633 L 54.422676 32.064309 L 54.263311 32.058196 L 54.137658 32.039858 L 53.877158 31.948169 L 53.595205 31.792297 L 53.313252 31.630313 L 53.114046 31.520286 Z M 52.957746 31.404147 " stroke="#ffffff" stroke-width="0.046" stroke-opacity="1" stroke-miterlimit="4"/><path stroke-linecap="butt" transform="matrix(-1.274592, 0, 0, 1.278095, 113.284671, -5.813277)" fill-opacity="1" fill="#ffffff" fill-rule="nonzero" stroke-linejoin="miter" d="M 55.504517 37.437294 L 55.841635 36.691555 C 55.896799 36.602922 55.976482 36.554021 55.955029 36.34008 C 55.902929 36.168927 55.902929 36.150589 55.841635 36.049731 C 55.755823 35.881634 55.673076 35.88469 55.590329 35.814395 C 55.418705 35.698256 55.323699 35.765495 55.204176 35.774663 C 54.974323 35.906085 54.925287 36.00083 54.814958 36.104744 L 54.413481 37.128607 L 54.27557 37.730699 L 54.214276 38.418368 L 54.346058 38.815687 L 54.609623 39.014347 L 54.860929 38.953221 L 55.001905 38.760674 L 55.302246 37.950753 Z M 55.504517 37.437294 " stroke="#ffffff" stroke-width="0.05" stroke-opacity="1" stroke-miterlimit="4"/><path stroke-linecap="butt" transform="matrix(-1.274592, 0, 0, 1.278095, 113.284671, -5.813277)" fill-opacity="1" fill="#ffffff" fill-rule="nonzero" stroke-linejoin="miter" d="M 54.471711 39.436117 L 54.585105 39.292471 L 54.664787 39.252739 L 54.772052 39.234401 L 54.928352 39.24357 L 55.063199 39.292471 L 55.121429 39.436117 L 55.142882 39.518638 L 55.204176 39.671453 L 55.244017 39.833437 L 55.31757 40.102392 L 55.427899 40.380516 L 55.568876 40.716709 L 55.660817 40.982608 L 55.774211 41.184324 L 55.823246 41.297407 L 55.823246 41.389097 L 55.722111 41.398266 L 55.550488 41.318802 L 55.397252 41.214887 L 55.152076 41.000946 L 54.958999 40.738104 L 54.704629 40.353009 L 54.594299 40.102392 L 54.490099 39.80593 L 54.453323 39.588933 Z M 54.471711 39.436117 " stroke="#ffffff" stroke-width="0.05" stroke-opacity="1" stroke-miterlimit="4"/><path stroke-linecap="butt" transform="matrix(-1.274592, 0, 0, 1.278095, 113.284671, -5.813277)" fill-opacity="1" fill="#ffffff" fill-rule="nonzero" stroke-linejoin="miter" d="M 59.096353 40.316333 L 59.163776 40.239926 L 59.249588 40.172687 L 59.356853 40.102392 L 59.525412 40.102392 L 59.853335 40.200194 L 60.404983 40.368291 L 60.705324 40.456923 L 60.941306 40.502768 L 61.21713 40.570007 L 61.437789 40.637246 L 61.545053 40.738104 L 61.511342 40.790061 L 61.410206 40.838962 L 61.290683 40.872581 L 61.155836 40.890919 L 60.968888 40.93982 L 60.726777 40.958158 L 60.558218 40.96427 L 60.303847 40.96427 L 60.083188 40.945932 L 59.813494 40.918426 L 59.605094 40.878694 L 59.344594 40.817568 L 59.176035 40.710597 L 59.068771 40.570007 L 59.068771 40.389685 Z M 59.096353 40.316333 " stroke="#ffffff" stroke-width="0.05" stroke-opacity="1" stroke-miterlimit="4"/><path stroke-linecap="butt" transform="matrix(-1.274592, 0, 0, 1.278095, 113.284671, -5.813277)" fill-opacity="1" fill="#ffffff" fill-rule="nonzero" stroke-linejoin="miter" d="M 58.210653 38.806519 L 58.18307 38.62314 L 58.176941 38.442818 L 58.176941 38.314453 L 58.204523 38.183032 L 58.204523 38.094399 L 58.210653 38.014935 L 58.176941 37.874345 L 58.063547 37.706249 L 57.968541 37.60539 L 57.803047 37.538152 L 57.695782 37.470913 L 57.588517 37.470913 L 57.465929 37.489251 L 57.358664 37.55649 L 57.1993 37.657348 L 57.076711 37.840726 L 57.043 37.966035 L 57.003158 38.20137 L 57.009288 38.4581 L 57.043 38.757618 L 57.092035 39.02046 L 57.156394 39.274133 L 57.285111 39.55837 L 57.4598 39.80593 L 57.701911 40.102392 L 57.962411 40.249095 L 58.170812 40.383572 L 58.419053 40.447755 L 58.593741 40.469149 L 58.740847 40.429417 L 58.8144 40.334671 L 58.875694 40.221588 L 58.915535 40.102392 L 58.875694 39.906788 L 58.753106 39.72341 L 58.538576 39.457512 L 58.385341 39.249683 L 58.299529 39.093811 L 58.238235 38.947109 Z M 58.210653 38.806519 " stroke="#ffffff" stroke-width="0.05" stroke-opacity="1" stroke-miterlimit="4"/></svg>