<svg xmlns="http://www.w3.org/2000/svg" xmlns:xlink="http://www.w3.org/1999/xlink" width="80" zoomAndPan="magnify" viewBox="0 0 60 67.92" height="80" preserveAspectRatio="xMidYMid meet" version="1.0"><defs><g/></defs><path stroke-linecap="round" transform="matrix(1.317061, 0, 0, 1.296259, 1.75414, -8.279621)" fill-opacity="1" fill="#82104e" fill-rule="nonzero" stroke-linejoin="round" d="M 39.935462 29.286749 C 39.935462 39.625996 31.71403 48.009495 21.573669 48.009495 C 11.430343 48.009495 3.20891 39.625996 3.20891 29.286749 C 3.20891 18.947501 11.430343 10.567015 21.573669 10.567015 C 31.71403 10.567015 39.935462 18.947501 39.935462 29.286749 Z M 39.935462 29.286749 " stroke="#82104e" stroke-width="3" stroke-opacity="1" stroke-miterlimit="4"/><g fill="#ffffff" fill-opacity="1"><g transform="translate(19.095721, 22.020383)"><g><path d="M 1.15625 -9.265625 L 7.578125 -9.265625 L 7.578125 -7.453125 L 3.546875 -7.453125 L 3.546875 -5.734375 L 7.34375 -5.734375 L 7.34375 -3.921875 L 3.546875 -3.921875 L 3.546875 -1.8125 L 7.71875 -1.8125 L 7.71875 0 L 1.15625 0 Z M 1.15625 -9.265625 "/></g></g></g><g fill="#ffffff" fill-opacity="1"><g transform="translate(26.602466, 22.090662)"><g><path d="M 0.6875 -4.5625 L 4.5625 -4.5625 L 4.5625 -2.75 L 0.6875 -2.75 Z M 0.6875 -4.5625 "/></g></g></g><g fill="#ffffff" fill-opacity="1"><g transform="translate(30.606837, 22.020383)"><g><path d="M 6.296875 -4.71875 L 9.5 0 L 7.03125 0 L 4.875 -3.15625 L 2.734375 0 L 0.234375 0 L 3.4375 -4.71875 L 0.359375 -9.265625 L 2.84375 -9.265625 L 4.875 -6.28125 L 6.890625 -9.265625 L 9.375 -9.265625 Z M 6.296875 -4.71875 "/></g></g></g><path stroke-linecap="round" transform="matrix(1.266002, 0, 0, 1.270201, -619.969683, -8.399013)" fill-opacity="1" fill="#ffffff" fill-rule="nonzero" stroke-linejoin="round" d="M 519.660743 43.214572 L 519.64223 41.953699 L 525.671298 38.370974 L 525.594161 30.931823 L 519.602119 27.539766 L 519.586691 26.162032 L 518.667212 26.158957 L 518.667212 27.509013 L 513.492828 30.528958 L 508.219707 27.475185 L 508.241306 26.183559 L 507.365023 26.168183 L 507.365023 27.459809 L 501.379152 30.888768 L 501.326699 38.466308 L 507.358852 41.956774 L 507.355767 43.186894 L 508.26599 43.217647 L 508.256733 41.944473 L 513.412605 38.909151 L 518.667212 41.901418 L 518.627101 43.236099 Z M 519.660743 43.214572 " stroke="#ffffff" stroke-width="0.05" stroke-opacity="1" stroke-miterlimit="4"/><path stroke-linecap="butt" transform="matrix(1.266002, 0, 0, 1.270201, -619.969683, -8.399013)" fill-opacity="1" fill="#82104e" fill-rule="nonzero" stroke-linejoin="miter" d="M 507.849447 29.120471 L 512.650486 31.900542 L 512.665913 37.454534 L 507.790823 40.366844 L 502.912646 37.552944 L 502.934245 31.839036 Z M 507.849447 29.120471 " stroke="#82104e" stroke-width="0.05" stroke-opacity="1" stroke-miterlimit="4"/><path stroke-linecap="butt" transform="matrix(1.266002, 0, 0, 1.270201, -619.969683, -8.399013)" fill-opacity="1" fill="#ffffff" fill-rule="nonzero" stroke-linejoin="miter" d="M 503.850638 32.18347 L 504.328891 32.986123 L 508.037663 30.830338 L 507.590265 30.03691 Z M 503.850638 32.18347 " stroke="#ffffff" stroke-width="0.05" stroke-opacity="1" stroke-miterlimit="4"/><path stroke-linecap="butt" transform="matrix(1.266002, 0, 0, 1.270201, -619.969683, -8.399013)" fill-opacity="1" fill="#82104e" fill-rule="nonzero" stroke-linejoin="miter" d="M 519.275056 28.822167 L 524.07918 31.599163 L 524.091522 37.153155 L 519.216431 40.065464 L 514.338255 37.251564 L 514.359853 31.540732 Z M 519.275056 28.822167 " stroke="#82104e" stroke-width="0.05" stroke-opacity="1" stroke-miterlimit="4"/><path stroke-linecap="butt" transform="matrix(1.266002, 0, 0, 1.270201, -619.969683, -8.399013)" fill-opacity="1" fill="#ffffff" fill-rule="nonzero" stroke-linejoin="miter" d="M 515.196024 32.174244 L 515.674276 32.976897 L 519.383048 30.821112 L 518.935651 30.027684 Z M 515.196024 32.174244 " stroke="#ffffff" stroke-width="0.05" stroke-opacity="1" stroke-miterlimit="4"/><path stroke-linecap="butt" transform="matrix(1.266002, 0, 0, 1.270201, -619.969683, -8.399013)" fill-opacity="1" fill="#ffffff" fill-rule="nonzero" stroke-linejoin="miter" d="M 522.397582 32.564807 L 523.283121 32.583259 L 523.267693 37.070122 L 519.346022 39.391973 L 518.904796 38.577019 L 522.379069 36.608827 Z M 522.397582 32.564807 " stroke="#ffffff" stroke-width="0.05" stroke-opacity="1" stroke-miterlimit="4"/><path stroke-linecap="butt" transform="matrix(1.266002, 0, 0, 1.270201, -619.969683, -8.399013)" fill-opacity="1" fill="#ffffff" fill-rule="nonzero" stroke-linejoin="miter" d="M 511.005914 32.555581 L 511.980932 32.574033 L 511.962419 37.060896 L 508.043834 39.382748 L 507.528555 38.620073 L 511.005914 36.636504 Z M 511.005914 32.555581 " stroke="#ffffff" stroke-width="0.05" stroke-opacity="1" stroke-miterlimit="4"/><path stroke-linecap="round" transform="matrix(1.284901, 0, 0, 1.321271, -626.560864, -6.180576)" fill-opacity="1" fill="#ffffff" fill-rule="nonzero" stroke-linejoin="round" d="M 501.389985 28.692862 C 501.389985 29.423101 500.781962 30.017344 500.031053 30.017344 C 499.283185 30.017344 498.675161 29.423101 498.675161 28.692862 C 498.675161 27.962623 499.283185 27.368379 500.031053 27.368379 C 500.781962 27.368379 501.389985 27.962623 501.389985 28.692862 Z M 501.389985 28.692862 " stroke="#82104e" stroke-width="0.779" stroke-opacity="1" stroke-miterlimit="4"/><path stroke-linecap="round" transform="matrix(1.284901, 0, 0, 1.321271, -626.641217, 1.736927)" fill-opacity="1" fill="#ffffff" fill-rule="nonzero" stroke-linejoin="round" d="M 501.38868 28.693214 C 501.38868 29.423453 500.780656 30.017697 500.032788 30.017697 C 499.281879 30.017697 498.673855 29.423453 498.673855 28.693214 C 498.673855 27.960019 499.281879 27.368732 500.032788 27.368732 C 500.780656 27.368732 501.38868 27.960019 501.38868 28.693214 Z M 501.38868 28.693214 " stroke="#82104e" stroke-width="0.779" stroke-opacity="1" stroke-miterlimit="4"/><path stroke-linecap="round" transform="matrix(1.284901, 0, 0, 1.321271, -612.375548, 2.123112)" fill-opacity="1" fill="#ffffff" fill-rule="nonzero" stroke-linejoin="round" d="M 501.388646 28.693618 C 501.388646 29.423857 500.780622 30.0181 500.032754 30.0181 C 499.281845 30.0181 498.673821 29.423857 498.673821 28.693618 C 498.673821 27.960423 499.281845 27.369136 500.032754 27.369136 C 500.780622 27.369136 501.388646 27.960423 501.388646 28.693618 Z M 501.388646 28.693618 " stroke="#82104e" stroke-width="0.779" stroke-opacity="1" stroke-miterlimit="4"/><path stroke-linecap="round" transform="matrix(1.284901, 0, 0, 1.321271, -598.00661, 1.955859)" fill-opacity="1" fill="#ffffff" fill-rule="nonzero" stroke-linejoin="round" d="M 501.387283 28.693076 C 501.387283 29.423316 500.782299 30.017559 500.031391 30.017559 C 499.280482 30.017559 498.675499 29.423316 498.675499 28.693076 C 498.675499 27.962837 499.280482 27.368594 500.031391 27.368594 C 500.782299 27.368594 501.387283 27.962837 501.387283 28.693076 Z M 501.387283 28.693076 " stroke="#82104e" stroke-width="0.779" stroke-opacity="1" stroke-miterlimit="4"/></svg>