<svg xmlns="http://www.w3.org/2000/svg" xmlns:xlink="http://www.w3.org/1999/xlink" width="80" zoomAndPan="magnify" viewBox="0 0 60 67.92" height="80" preserveAspectRatio="xMidYMid meet" version="1.0"><path stroke-linecap="round" transform="matrix(1.325997, 0, 0, 1.304315, 1.394207, -8.045379)" fill-opacity="1" fill="#da4752" fill-rule="nonzero" stroke-linejoin="round" d="M 39.937769 29.288648 C 39.937769 39.626927 31.715771 48.009559 21.573048 48.009559 C 11.430324 48.009559 3.208326 39.626927 3.208326 29.288648 C 3.208326 18.947374 11.430324 10.567737 21.573048 10.567737 C 31.715771 10.567737 39.937769 18.947374 39.937769 29.288648 Z M 39.937769 29.288648 " stroke="#da4752" stroke-width="3" stroke-opacity="1" stroke-miterlimit="4"/><path stroke-linecap="butt" transform="matrix(1.274592, 0, 0, 1.278095, -394.660088, -6.011808)" fill-opacity="1" fill="#fefefe" fill-rule="nonzero" stroke-linejoin="miter" d="M 333.216281 15.244921 L 332.49301 17.43018 C 331.993463 19.25785 331.65941 21.247505 331.303904 23.215766 C 331.215027 23.927885 331.172122 24.621666 330.945333 25.37963 L 330.644992 26.999472 L 330.574504 28.17615 L 330.473368 29.915188 L 330.464174 32.40302 L 330.712416 34.817502 L 331.003563 36.727693 L 331.604245 39.068823 L 332.266222 40.627538 L 332.447039 41.058477 L 332.80561 41.348826 L 332.505269 39.667858 L 331.723769 37.326728 L 331.126151 34.985598 L 330.87178 33.335193 L 330.779839 30.425591 C 330.764516 29.389503 330.850327 28.604033 330.93001 27.809393 L 331.153733 25.682204 L 331.785063 22.677856 L 332.447039 20.394796 L 332.971104 18.857474 C 333.311287 18.224819 333.590175 17.601333 333.881322 17.066479 C 333.636146 17.631896 333.424681 18.301227 333.225475 19.013346 C 333.087563 19.557368 332.955781 20.104447 332.866904 20.694314 L 332.419457 23.331906 L 332.137504 25.669979 L 331.938298 27.29899 L 331.665539 28.860762 L 331.55521 30.361408 L 331.610375 32.09739 L 331.665539 33.604148 L 331.785063 35.16592 L 332.02411 36.904958 L 332.447039 38.647052 L 332.820934 39.640352 L 332.995622 40.111023 L 333.43081 39.383622 L 334.068269 39.249145 L 334.816057 39.686196 L 335.928546 40.596975 L 336.949093 41.049308 L 337.608005 41.049308 L 337.18814 40.32802 C 337.117652 39.787054 336.976676 39.246088 337.041034 38.702066 C 337.117652 37.555951 337.209593 36.419006 337.384281 35.367637 L 337.608005 37.50705 L 337.730593 39.188018 L 337.96964 41.110435 C 338.456929 40.957619 338.968735 40.826198 339.410052 40.627538 L 340.620611 40.043784 C 340.939341 39.298045 341.3684 38.598151 341.460341 37.766836 L 341.693259 36.966084 C 341.83117 37.314503 341.880206 37.720992 341.871012 38.167212 L 341.907788 38.873219 L 341.871012 39.36834 L 342.833329 38.527856 C 343.213353 38.090805 343.418688 37.724048 343.553535 37.387855 C 343.829359 36.834663 343.942753 36.321204 344.0255 35.816913 C 344.1818 35.153695 344.267612 34.417126 344.279871 33.604148 L 344.212447 30.480604 C 344.086794 29.444517 343.936624 28.408429 343.663865 27.369285 C 343.455465 26.498238 343.096894 25.57829 342.744453 24.658342 C 342.330718 23.949279 341.938435 23.243273 341.337753 22.53421 C 340.7432 21.748739 340.044447 20.981607 339.155682 20.248093 L 338.030935 19.435116 L 337.087005 18.848305 L 335.928546 18.233988 L 334.73331 17.402673 L 333.826157 16.491894 L 333.467587 15.892858 Z M 333.216281 15.244921 " stroke="#fefefe" stroke-width="0.05" stroke-opacity="1" stroke-miterlimit="4"/><path stroke-linecap="butt" transform="matrix(1.274592, 0, 0, 1.278095, -394.660088, -6.011808)" fill-opacity="1" fill="#da4752" fill-rule="nonzero" stroke-linejoin="miter" d="M 335.242052 22.338606 L 335.242052 21.822091 L 335.15011 21.229167 L 334.99994 20.767665 L 334.779281 19.976082 L 334.429904 19.199781 L 334.301187 18.774954 L 334.151016 18.478492 L 334.11424 19.089754 L 334.11424 19.569594 L 334.169404 20.104447 L 334.337963 20.749327 L 334.561687 21.360589 L 334.88961 21.858766 Z M 335.242052 22.338606 " stroke="#da4752" stroke-width="0.05" stroke-opacity="1" stroke-miterlimit="4"/><path stroke-linecap="butt" transform="matrix(1.274592, 0, 0, 1.278095, -394.660088, -6.011808)" fill-opacity="1" fill="#da4752" fill-rule="nonzero" stroke-linejoin="miter" d="M 337.788823 19.948575 L 338.181105 20.364233 L 338.637746 20.847129 L 339.210846 21.436996 L 339.563288 21.892386 L 339.891211 22.295818 L 340.16397 22.690081 L 340.491894 23.157696 L 340.700294 23.588635 L 340.896435 24.007349 L 341.077253 24.438288 L 341.169194 24.765313 L 341.288717 25.15652 L 341.365335 25.559952 L 340.960794 24.960916 L 340.127194 23.891209 L 339.615388 23.197428 L 339.146488 22.546435 L 338.714364 21.892386 L 338.285305 21.161929 L 337.932864 20.468147 Z M 337.788823 19.948575 " stroke="#da4752" stroke-width="0.05" stroke-opacity="1" stroke-miterlimit="4"/><path stroke-linecap="butt" transform="matrix(1.274592, 0, 0, 1.278095, -394.660088, -6.011808)" fill-opacity="1" fill="#da4752" fill-rule="nonzero" stroke-linejoin="miter" d="M 338.714364 25.507995 L 338.962605 26.162044 L 339.302788 27.10033 L 339.53877 27.870519 L 339.839111 28.588751 L 340.099611 29.322264 L 340.37237 29.948807 L 340.568511 30.327789 L 340.464311 29.374222 L 340.335594 28.09363 L 340.21607 27.363173 L 339.983152 26.724405 L 339.734911 26.17427 L 339.48667 25.938934 L 338.990188 25.587459 L 338.846146 25.535502 Z M 338.714364 25.507995 " stroke="#da4752" stroke-width="0.05" stroke-opacity="1" stroke-miterlimit="4"/><path stroke-linecap="butt" transform="matrix(1.274592, 0, 0, 1.278095, -394.660088, -6.011808)" fill-opacity="1" fill="#da4752" fill-rule="nonzero" stroke-linejoin="miter" d="M 336.066458 25.507995 L 336.051134 26.330141 L 336.051134 27.192019 L 336.118558 28.029447 L 336.247275 29.163336 L 336.339217 29.753203 L 336.483258 30.391971 L 336.587458 29.255026 L 336.71924 28.356472 L 336.743758 27.726873 L 336.731499 27.127837 L 336.66714 26.580758 L 336.56294 26.149819 L 336.366799 25.810569 Z M 336.066458 25.507995 " stroke="#da4752" stroke-width="0.05" stroke-opacity="1" stroke-miterlimit="4"/><path stroke-linecap="butt" transform="matrix(1.274592, 0, 0, 1.278095, -394.660088, -6.011808)" fill-opacity="1" fill="#da4752" fill-rule="nonzero" stroke-linejoin="miter" d="M 334.497328 31.672563 L 334.328769 31.174385 L 334.196987 30.456154 L 334.080528 29.753203 L 333.976328 29.071647 L 333.911969 28.68044 L 333.807769 28.105855 L 333.688246 27.610733 L 333.559528 27.885801 L 333.415487 28.368697 L 333.335804 28.824087 L 333.323545 29.203068 L 333.335804 29.701246 L 333.455328 30.300282 L 333.663728 30.810685 L 333.911969 31.186611 L 334.132628 31.461678 Z M 334.497328 31.672563 " stroke="#da4752" stroke-width="0.05" stroke-opacity="1" stroke-miterlimit="4"/><path stroke-linecap="butt" transform="matrix(1.274592, 0, 0, 1.278095, -394.660088, -6.011808)" fill-opacity="1" fill="#da4752" fill-rule="nonzero" stroke-linejoin="miter" d="M 338.389505 33.87616 L 338.505964 33.500234 L 338.585646 33.173209 L 338.637746 32.754495 L 338.677588 32.40302 L 338.689846 31.996532 L 338.662264 31.657282 L 338.597905 31.201892 L 338.521288 30.651757 L 338.377246 30.012989 L 338.233205 29.673739 L 338.101423 30.077172 L 338.024805 30.57535 L 337.957382 31.214117 L 337.957382 32.06377 L 338.037064 32.610849 L 338.153523 33.145702 L 338.257723 33.512459 Z M 338.389505 33.87616 " stroke="#da4752" stroke-width="0.05" stroke-opacity="1" stroke-miterlimit="4"/><path stroke-linecap="butt" transform="matrix(1.274592, 0, 0, 1.278095, -394.660088, -6.011808)" fill-opacity="1" fill="#da4752" fill-rule="nonzero" stroke-linejoin="miter" d="M 342.814941 34.126777 L 342.971241 33.289349 L 343.103024 31.776478 L 343.063182 30.874868 L 342.946724 29.948807 L 342.658641 29.126661 L 342.346041 28.616258 L 341.978276 28.301458 L 341.653417 28.173093 L 341.861818 28.588751 L 342.030376 29.059422 L 342.162159 29.58205 L 342.266359 30.208593 L 342.398141 31.201892 L 342.4625 31.944574 L 342.526859 32.571117 L 342.606541 33.093745 L 342.658641 33.368813 Z M 342.814941 34.126777 " stroke="#da4752" stroke-width="0.05" stroke-opacity="1" stroke-miterlimit="4"/><path stroke-linecap="butt" transform="matrix(1.274592, 0, 0, 1.278095, -394.660088, -6.011808)" fill-opacity="1" fill="#da4752" fill-rule="nonzero" stroke-linejoin="miter" d="M 339.578611 38.512575 L 339.826852 38.213057 L 340.05977 37.858526 L 340.203811 37.207532 L 340.231394 36.529033 L 340.16397 35.914715 L 340.035253 35.104794 L 339.943311 34.634123 L 339.878952 34.374337 L 339.719588 34.789995 L 339.630711 35.379862 L 339.551029 36.082812 L 339.53877 36.620722 L 339.53877 38.576757 Z M 339.578611 38.512575 " stroke="#da4752" stroke-width="0.05" stroke-opacity="1" stroke-miterlimit="4"/><path stroke-linecap="butt" transform="matrix(1.274592, 0, 0, 1.278095, -394.660088, -6.011808)" fill-opacity="1" fill="#da4752" fill-rule="nonzero" stroke-linejoin="miter" d="M 333.636146 33.341306 L 333.728087 33.915891 L 333.844546 34.502702 L 334.080528 35.104794 L 334.393128 35.887209 L 334.668952 36.422062 L 334.957034 36.972197 L 335.177693 37.390911 L 335.333993 37.730161 L 335.438193 37.977721 L 335.661916 38.5248 L 335.085752 37.910483 L 334.380869 37.140294 L 333.872128 36.345654 L 333.479845 35.667155 L 333.283704 34.738038 L 333.299028 34.346831 L 333.363387 33.931173 L 333.507428 33.564416 Z M 333.636146 33.341306 " stroke="#da4752" stroke-width="0.05" stroke-opacity="1" stroke-miterlimit="4"/><path stroke-linecap="butt" transform="matrix(1.274592, 0, 0, 1.278095, -394.660088, -6.011808)" fill-opacity="1" fill="#fefefe" fill-rule="nonzero" stroke-linejoin="miter" d="M 331.959751 41.241856 L 330.985174 39.884856 L 330.430463 38.634827 C 329.976886 37.656809 329.796068 36.587102 329.612186 35.517396 C 329.238292 33.481896 329.127962 31.446397 329.026827 29.413953 L 329.229098 26.504351 C 329.327168 25.416306 329.538633 24.349655 329.866557 23.307455 L 330.718545 20.627075 L 331.846357 17.647177 L 332.094598 16.797524 L 331.251804 17.39656 L 329.866557 18.267607 L 328.233068 19.224231 C 327.574156 19.551256 327.043962 19.976082 326.565868 20.443697 C 325.827274 21.180267 325.321597 21.916836 324.803662 22.653406 C 324.288791 23.63448 323.810697 24.746975 323.387767 25.911427 C 323.111944 26.779418 322.879026 27.647409 322.698208 28.5154 C 322.502067 29.209181 322.379479 30.269719 322.223179 31.165217 L 322.066879 33.729457 C 322.118979 34.249029 322.008649 34.771657 322.26302 35.294285 C 322.287538 35.700774 322.658367 36.110319 322.891285 36.519864 L 323.985385 37.702654 L 324.460415 38.136649 L 323.93022 37.198364 L 323.807632 36.38233 L 323.896509 35.893321 C 324.383797 36.529033 324.66575 37.14335 325.036579 37.766836 L 325.833403 38.934345 L 326.841691 39.93987 C 327.423986 40.260782 328.024668 40.645876 328.521151 40.612257 L 329.250551 40.716171 C 329.085056 40.107966 328.78778 39.395847 329.008439 38.787642 L 329.976886 40.276063 L 330.421268 39.863462 C 330.684833 40.153811 330.926945 40.633651 331.39891 40.924 C 331.447945 41.00652 331.634892 41.113491 331.959751 41.241856 Z M 331.959751 41.241856 " stroke="#fefefe" stroke-width="0.05" stroke-opacity="1" stroke-miterlimit="4"/><path stroke-linecap="butt" transform="matrix(1.274592, 0, 0, 1.278095, -394.660088, -6.011808)" fill-opacity="1" fill="#da4752" fill-rule="nonzero" stroke-linejoin="miter" d="M 327.908209 21.556192 L 328.239198 21.076352 L 328.585509 20.47426 L 329.118768 19.664339 C 329.278133 19.484017 329.41298 19.270076 329.618315 19.163105 L 329.118768 19.2334 C 328.928756 19.273132 328.760198 19.34954 328.613092 19.441229 C 328.426145 19.563481 328.361786 19.682677 328.272909 19.801873 L 328.015474 20.284769 L 327.758039 20.819622 L 327.378015 21.250562 L 326.96428 21.681501 L 326.826368 22.060482 L 326.80798 22.369169 L 327.102191 22.249973 L 327.463827 22.008525 L 327.68755 21.767077 Z M 327.908209 21.556192 " stroke="#da4752" stroke-width="0.05" stroke-opacity="1" stroke-miterlimit="4"/><path stroke-linecap="butt" transform="matrix(1.274592, 0, 0, 1.278095, -394.660088, -6.011808)" fill-opacity="1" fill="#da4752" fill-rule="nonzero" stroke-linejoin="miter" d="M 327.840786 29.248913 L 327.911274 27.436524 L 328.101286 25.608853 L 328.205486 24.731693 L 328.395498 23.680324 L 328.606962 22.836784 C 328.334203 22.989599 328.20855 23.224935 328.015474 23.420538 L 327.601739 24.401612 L 327.430115 25.404081 L 327.378015 26.351535 L 327.463827 27.332609 L 327.568027 28.127249 L 327.825462 29.181674 Z M 327.840786 29.248913 " stroke="#da4752" stroke-width="0.05" stroke-opacity="1" stroke-miterlimit="4"/><path stroke-linecap="butt" transform="matrix(1.274592, 0, 0, 1.278095, -394.660088, -6.011808)" fill-opacity="1" fill="#da4752" fill-rule="nonzero" stroke-linejoin="miter" d="M 325.468703 28.472611 C 325.563709 28.197544 325.637262 27.931645 325.65565 27.629071 C 325.692426 27.271483 325.747591 26.929177 325.704685 26.522689 L 325.704685 25.697486 L 325.55145 24.731693 L 325.361438 24.267135 L 325.033515 25.419362 L 325.018191 26.369873 C 324.97835 26.644941 325.033515 26.920008 325.085615 27.195076 L 325.171426 27.644353 L 325.379826 28.240332 Z M 325.468703 28.472611 " stroke="#da4752" stroke-width="0.05" stroke-opacity="1" stroke-miterlimit="4"/><path stroke-linecap="butt" transform="matrix(1.274592, 0, 0, 1.278095, -394.660088, -6.011808)" fill-opacity="1" fill="#da4752" fill-rule="nonzero" stroke-linejoin="miter" d="M 323.663591 28.03556 L 323.639073 28.711003 L 323.620685 30.850417 L 323.706497 32.195191 L 323.82602 33.295461 L 323.951673 34.530209 L 323.516485 33.625542 C 323.317279 33.130421 323.173238 32.635299 323.05065 32.143234 L 322.931126 30.987951 L 322.931126 30.281944 C 322.958708 29.915188 322.99855 29.548431 323.10275 29.1939 C 323.173238 28.931057 323.277438 28.665159 323.41535 28.402316 C 323.46132 28.261726 323.56552 28.148643 323.663591 28.03556 Z M 323.663591 28.03556 " stroke="#da4752" stroke-width="0.05" stroke-opacity="1" stroke-miterlimit="4"/><path stroke-linecap="butt" transform="matrix(1.274592, 0, 0, 1.278095, -394.660088, -6.011808)" fill-opacity="1" fill="#da4752" fill-rule="nonzero" stroke-linejoin="miter" d="M 325.931474 31.259962 C 326.054062 31.61755 326.109227 31.907899 326.167456 32.201304 L 326.308432 33.194603 L 326.498444 34.383506 L 326.630227 34.832783 L 326.91218 35.468495 L 327.01638 35.780238 L 327.102191 36.15922 L 327.086868 36.666566 L 326.896856 36.550427 L 326.746685 36.360936 L 326.642485 36.030855 C 326.630227 35.859702 326.446344 35.670211 326.326821 35.486832 L 325.879374 34.967261 L 325.670974 34.52104 L 325.585162 33.763076 L 325.585162 33.209885 L 325.842597 31.574761 L 325.879374 31.168273 Z M 325.931474 31.259962 " stroke="#da4752" stroke-width="0.05" stroke-opacity="1" stroke-miterlimit="4"/></svg>