<svg xmlns="http://www.w3.org/2000/svg" xmlns:xlink="http://www.w3.org/1999/xlink" width="80" zoomAndPan="magnify" viewBox="0 0 60 67.92" height="80" preserveAspectRatio="xMidYMid meet" version="1.0"><path stroke-linecap="round" transform="matrix(1.325997, 0, 0, 1.304315, 1.394209, -8.134591)" fill-opacity="1" fill="#f47039" fill-rule="nonzero" stroke-linejoin="round" d="M 39.937768 29.288164 C 39.937768 39.626444 31.71577 48.009075 21.573047 48.009075 C 11.430323 48.009075 3.208325 39.626444 3.208325 29.288164 C 3.208325 18.949885 11.430323 10.567253 21.573047 10.567253 C 31.71577 10.567253 39.937768 18.949885 39.937768 29.288164 Z M 39.937768 29.288164 " stroke="#f47039" stroke-width="3" stroke-opacity="1" stroke-miterlimit="4"/><path stroke-linecap="round" transform="matrix(1.274592, 0, 0, 1.278095, 2.978206, -7.159395)" fill-opacity="1" fill="#ffffff" fill-rule="nonzero" stroke-linejoin="round" d="M 14.375248 48.664957 L 15.785013 46.37884 L 17.240749 44.282215 L 16.925084 44.092724 L 16.673778 43.808487 L 16.419407 43.084143 L 16.465378 42.075562 L 17.050737 40.278454 L 17.777072 38.890892 L 18.469696 37.882311 L 18.595349 38.73502 L 18.659708 40.3732 L 18.610673 41.601835 L 18.500343 42.769343 L 19.321684 41.886071 L 20.329973 40.908053 L 20.863232 40.3732 L 20.581279 39.930036 L 20.532243 39.398238 L 20.642573 38.829766 L 20.826455 38.398827 L 21.243255 37.503329 L 22.000238 36.464185 L 22.472203 35.929332 L 22.987073 35.360859 L 23.612273 33.899945 L 24.191503 32.218977 L 23.967779 33.141981 L 23.624532 34.291152 L 23.223056 35.428098 L 23.011591 36.999039 L 22.800126 38.135984 L 22.55495 39.0162 L 24.48265 37.677539 L 24.271185 37.399415 L 24.191503 37.020433 L 24.258926 36.430566 L 24.626691 35.651208 L 25.662562 34.434798 L 26.597297 33.600427 L 26.909897 33.365091 L 27.645427 32.118119 L 28.249174 30.89254 L 27.789468 32.008092 L 27.357345 32.876083 L 27.044745 33.478175 L 26.744403 34.792386 L 26.36438 35.883487 L 25.94145 36.843167 L 27.970286 35.895712 L 27.758821 35.55035 L 27.725109 35.125523 L 27.97948 34.492868 L 28.313533 34.013028 L 29.015351 33.297853 L 29.695716 32.796619 L 30.308657 32.408468 L 30.443504 32.30761 L 30.912404 31.684123 L 31.402757 31.002567 L 31.690839 30.580797 L 31.936016 30.155971 L 31.534539 30.92616 L 31.034992 31.726912 L 30.587545 32.396243 L 30.198327 33.423161 L 29.796851 34.346166 L 29.373921 35.07051 L 29.061321 35.495336 L 30.179939 35.131636 L 31.601963 34.725147 L 31.761328 34.694584 L 31.856334 34.682359 L 31.868592 34.657909 L 31.752134 34.410348 C 31.752134 34.376729 31.74294 34.336997 31.739875 34.306434 C 31.73681 34.208632 31.74294 34.129168 31.782781 34.000803 C 31.877787 33.756299 31.99731 33.569864 32.214904 33.37426 C 32.447822 33.172544 32.67461 32.95249 32.925916 32.808844 L 33.453046 32.47265 L 33.603216 32.384017 L 34.053728 31.818601 L 34.298905 31.494633 L 34.488916 31.216509 L 34.108893 31.818601 L 33.630799 32.484875 L 33.495952 32.665198 L 32.956563 33.741017 L 32.637834 34.245307 L 32.288457 34.605951 L 32.907528 34.477587 L 33.673705 34.352278 L 34.387781 34.263645 L 35.432846 34.147506 L 34.473593 34.291152 C 33.759516 34.361447 33.100604 34.541769 32.447822 34.725147 L 33.161899 34.914638 L 33.77484 35.183593 L 34.096634 35.315014 L 34.734093 35.415872 L 35.625923 35.626758 L 34.620699 35.440323 L 34.121152 35.406704 L 33.495952 35.528956 L 32.561216 35.626758 L 31.948275 35.562575 L 31.623416 35.415872 L 31.390498 35.159143 L 31.344528 35.049116 C 30.823528 35.140805 30.33011 35.357803 29.827498 35.538125 L 28.71501 36.017965 L 29.116486 36.072978 L 30.075739 36.274694 L 30.68868 36.47641 L 31.601963 36.775928 L 31.991181 36.809548 L 32.895269 36.9318 L 33.630799 37.075446 L 34.185511 37.222149 L 33.229322 37.066277 L 32.147481 36.953194 L 31.568251 36.944025 L 30.943051 37.176304 L 29.962345 37.390246 L 28.938733 37.512498 L 28.258368 37.466653 L 27.813986 37.332176 L 27.467674 37.075446 L 27.24395 36.754534 L 26.309215 37.255768 L 25.383674 37.83341 L 26.09775 37.845635 L 27.133621 38.001507 L 28.046904 38.169604 L 28.837598 38.368264 L 29.505704 38.346869 L 30.143163 38.359095 L 30.943051 38.426333 L 31.344528 38.447727 L 31.73681 38.502741 L 30.575286 38.469122 L 28.739527 38.582205 L 28.148039 38.805315 L 27.611715 39.037594 L 26.385833 39.404351 L 25.47255 39.52966 L 24.838156 39.49604 L 24.415226 39.395182 L 24.114885 39.205691 L 23.85745 38.927567 C 23.170956 39.181241 22.772544 39.691644 22.34042 40.17454 L 23.066756 40.119527 L 23.85745 40.107301 L 24.614432 40.140921 L 25.395933 40.208159 L 25.831121 40.296792 L 26.398092 40.208159 L 27.066198 40.128696 L 27.746562 40.064513 L 28.338051 40.018669 L 29.196168 40.006443 L 28.313533 40.098132 L 26.955868 40.284567 L 25.984356 40.498508 L 25.150756 41.008911 L 24.090368 41.534596 L 23.27822 41.858564 L 22.432361 42.090844 L 21.595697 42.136688 L 21.148249 42.03583 L 20.860167 41.913578 L 20.682414 41.7791 C 19.986726 42.344517 19.487179 43.105537 18.932467 43.808487 L 19.646543 43.628165 L 20.547567 43.4509 L 21.393426 43.328647 L 22.018626 43.261409 L 22.585597 43.206395 L 23.100467 43.026073 L 23.90342 42.747949 L 24.694115 42.524839 L 25.438838 42.335348 L 26.09775 42.179476 L 25.239632 42.4576 L 24.360062 42.747949 L 23.443715 43.105537 L 22.708185 43.429505 L 22.475267 43.551758 L 21.371973 44.499212 L 20.547567 45.144093 L 19.566861 45.712566 L 18.877302 46.036534 L 18.37469 46.158786 L 17.850625 46.201575 L 17.550284 46.146561 L 17.326561 46.070153 C 16.569578 47.023721 16.100678 48.032301 15.634843 49.043939 Z M 14.375248 48.664957 " stroke="#ffffff" stroke-width="0.05" stroke-opacity="1" stroke-miterlimit="4"/><path stroke-linecap="round" transform="matrix(1.274592, 0, 0, 1.278095, 2.978206, -7.159395)" fill-opacity="1" fill="#ffffff" fill-rule="nonzero" stroke-linejoin="round" d="M 9.100889 46.100716 L 10.164342 46.770047 L 10.525977 44.823181 L 11.007136 42.784625 L 11.567977 40.53824 L 11.733471 40.602423 L 12.174789 40.733844 L 12.732566 40.743013 L 13.118719 40.672718 L 13.514066 40.53824 L 13.860378 40.34875 L 14.35686 40.049232 L 14.939154 39.560223 L 15.475478 39.010088 L 15.996478 38.435502 L 16.358113 37.937324 L 16.735072 37.41164 L 17.286719 36.552818 L 17.862884 35.599251 L 18.193872 34.991046 L 18.429855 34.526488 L 19.894785 33.203107 L 20.801938 32.478763 L 21.840873 31.665786 L 22.441556 31.240959 L 21.966526 31.531308 L 21.139055 32.075331 L 20.035761 32.824125 L 19.137802 33.527076 L 18.564702 33.973296 L 18.334849 34.196407 L 18.144837 34.327828 L 18.003861 34.471474 L 17.081384 34.890188 L 16.223266 35.305845 L 15.355954 35.74901 L 14.562195 36.189118 L 13.719401 36.717859 L 13.088072 37.133516 L 12.37706 37.708102 L 13.449707 34.526488 L 13.535519 34.526488 L 13.955383 34.691528 L 14.267984 34.740429 L 14.963672 34.667078 L 15.625648 34.39201 L 16.223266 33.991634 L 16.80556 33.487344 L 17.522702 32.683535 L 18.469696 31.366268 L 18.981502 30.547178 L 19.297167 30.042887 L 19.634284 29.398007 L 20.982755 28.151034 L 21.739738 27.521435 L 22.463008 26.94685 L 23.158697 26.433391 L 23.416132 26.253069 L 22.873679 26.592319 L 21.911361 27.221917 L 21.19422 27.726208 L 20.431108 28.279399 L 19.778326 28.814253 L 19.462661 29.083207 L 18.475825 29.514147 L 17.531896 29.963423 L 16.830078 30.333236 L 16.272302 30.641923 L 15.309984 31.23179 L 14.537678 31.791094 L 14.522354 31.705518 L 15.570484 29.28798 L 15.947443 29.459133 L 16.483766 29.547766 L 17.246878 29.373557 L 17.807719 29.104602 L 18.273555 28.75007 L 18.736325 28.334413 L 19.257326 27.796503 L 19.799779 27.102722 L 20.296261 26.427278 L 20.77742 25.709046 L 21.243255 24.920519 L 22.08605 24.190062 L 22.858356 23.581858 L 23.489685 23.117299 L 23.897291 22.833063 L 24.268121 22.60384 L 24.724762 22.28904 L 24.212956 22.582446 L 23.636791 22.927808 L 23.063691 23.28234 L 22.39252 23.701054 L 21.635538 24.260357 L 21.062438 24.676015 L 19.643479 25.253657 L 18.610673 25.724328 L 17.587061 26.26835 L 16.719749 26.836823 L 18.138708 24.12588 L 18.350172 24.300089 L 18.721002 24.440679 L 19.101026 24.471243 L 19.533149 24.400947 L 20.060279 24.156443 L 20.706932 23.701054 L 21.55892 22.778049 L 22.312838 21.699173 L 22.793997 20.895365 L 23.164826 20.247428 L 23.771638 19.682012 L 24.519426 19.067694 L 25.031232 18.673431 L 25.457227 18.349463 L 26.042586 17.955199 L 25.521585 18.269999 L 24.930097 18.62453 L 24.418291 18.979062 L 23.661309 19.516971 L 23.18015 19.892897 L 22.904326 20.12212 L 22.006367 20.516383 L 21.148249 20.919816 L 20.219643 21.4455 L 19.634284 21.818369 L 19.337008 22.038423 L 20.841779 19.697293 L 20.991949 19.831771 L 21.273902 20.012093 L 21.690702 20.067106 L 22.125891 20.012093 L 22.597856 19.831771 L 23.28435 19.358043 L 23.952456 18.713163 L 24.338609 18.263886 L 24.985262 17.411177 L 25.356091 16.836591 L 25.42658 16.751015 L 25.83725 16.402596 L 26.474709 15.953319 L 27.050874 15.562112 L 27.492192 15.277876 L 27.859956 15.024202 L 28.105133 14.883612 L 27.743498 15.057822 L 27.167333 15.339002 L 26.67085 15.617126 L 26.168239 15.931925 L 25.803538 16.182542 L 25.567556 16.34147 L 25.251891 16.552355 L 24.574591 16.790747 L 23.725668 17.129997 L 22.968685 17.490641 L 22.34655 17.820722 L 21.92975 18.083564 L 24.041332 15.283988 L 24.332479 14.944738 L 23.780832 15.268707 L 21.785708 17.615949 L 21.801032 16.631819 L 21.635538 15.687421 L 21.408749 14.828599 L 21.19422 14.085916 L 20.857102 13.18125 L 20.752902 12.093205 L 20.682414 11.472775 L 20.51692 10.595616 L 20.385138 9.959904 L 20.455626 10.519208 L 20.541438 11.243552 L 20.587408 12.032079 L 20.636443 13.110955 L 20.415785 13.700822 L 20.25642 14.449617 L 20.054149 15.442916 L 19.965273 16.216161 L 19.980596 17.050533 L 20.164479 17.719864 L 20.431108 18.159972 L 20.722255 18.419758 L 20.982755 18.529785 L 21.102279 18.578686 L 19.012149 21.524964 L 18.950855 20.540834 L 18.751649 19.682012 L 18.549378 18.933217 L 18.255167 18.169141 L 17.933372 17.356163 L 17.666743 16.741846 L 17.531896 16.48206 L 17.372531 15.52238 L 17.216231 14.773585 L 17.06606 14.104254 L 16.91589 13.511331 L 16.704425 12.835888 L 16.860725 13.505218 L 17.010896 14.354871 L 17.161066 15.35734 L 17.246878 16.427046 L 17.262202 16.592087 L 17.06606 17.475359 L 16.925084 18.254717 L 16.799431 19.30303 L 16.799431 20.666142 L 16.900566 21.295741 L 17.145743 21.958959 L 17.531896 22.454081 L 17.807719 22.60384 L 18.003861 22.713867 L 18.144837 22.747486 L 18.249037 22.762768 L 16.508284 25.739609 L 16.443925 25.015265 L 16.302949 24.315371 L 16.051643 23.337353 L 15.766625 22.432687 L 15.475478 21.634991 L 15.230301 21.005392 L 15.024966 20.516383 L 14.893184 19.373325 L 14.749142 18.563404 L 14.598972 17.799328 L 14.412025 16.980238 L 14.191366 16.14281 L 14.323148 16.900774 L 14.482513 17.869623 L 14.568325 18.719276 L 14.648007 19.66673 L 14.693978 20.32078 L 14.473319 21.124588 L 14.25266 22.068986 L 14.111683 22.833063 L 13.986031 23.921108 L 13.955383 24.755479 L 14.032001 25.583738 L 14.197495 26.237787 L 14.537678 26.867386 L 14.853342 27.197467 L 15.150619 27.380845 L 15.371278 27.466422 L 15.570484 27.530604 L 14.378313 29.963423 L 14.025872 28.554467 L 13.535519 27.182185 L 13.189207 26.323364 L 12.827572 25.495105 L 12.652883 25.119179 L 12.582395 24.975533 L 12.416901 24.021966 L 12.125754 22.652741 L 11.969454 21.989522 L 11.825413 21.439387 L 11.69363 20.980942 L 11.558783 20.540834 L 11.472971 20.232147 L 11.644595 21.005392 L 11.880577 22.093437 L 12.046071 23.10813 L 12.156401 23.911939 L 12.260601 24.834943 L 12.085913 25.528724 L 11.898965 26.528136 L 11.724277 27.570336 L 11.623142 28.734789 L 11.623142 29.957311 L 11.733471 30.776401 L 12.000101 31.714687 L 12.245277 32.139513 L 12.521101 32.478763 L 12.781601 32.683535 L 12.983872 32.808844 L 13.127913 32.879139 L 12.275924 35.055228 L 12.046071 34.077211 L 11.69363 32.943321 L 11.347318 31.995867 L 10.976489 31.060637 L 10.470812 29.972592 L 10.179665 29.358275 L 10.029495 28.530016 L 9.824159 27.585618 L 9.658665 26.867386 L 9.416553 25.953551 L 9.116212 24.94497 L 8.88023 24.211457 L 9.091694 25.015265 L 9.376712 26.292801 L 9.612694 27.570336 L 9.778189 28.844816 L 9.842547 29.388838 L 9.628018 30.421869 L 9.438006 31.415169 L 9.266383 32.714098 L 9.1867 34.08638 L 9.235736 35.021609 L 9.306224 35.709278 L 9.493171 36.503917 L 9.802706 37.21298 L 10.1245 37.662257 L 10.565818 38.05652 L 10.991812 38.221561 L 11.166501 38.285743 L 10.581142 40.263173 L 10.029495 42.17642 L 9.533012 44.227201 Z M 9.100889 46.100716 " stroke="#ffffff" stroke-width="0.05" stroke-opacity="1" stroke-miterlimit="4"/></svg>