<svg xmlns="http://www.w3.org/2000/svg" xmlns:xlink="http://www.w3.org/1999/xlink" width="80" zoomAndPan="magnify" viewBox="0 0 60 67.92" height="80" preserveAspectRatio="xMidYMid meet" version="1.0"><path stroke-linecap="round" transform="matrix(1.325997, 0, 0, 1.304315, 1.394204, -7.934128)" fill-opacity="1" fill="#9a8e6c" fill-rule="nonzero" stroke-linejoin="round" d="M 39.937772 29.28721 C 39.937772 39.625489 31.715774 48.008121 21.57305 48.008121 C 11.430327 48.008121 3.208329 39.625489 3.208329 29.28721 C 3.208329 18.94893 11.430327 10.566299 21.57305 10.566299 C 31.715774 10.566299 39.937772 18.94893 39.937772 29.28721 Z M 39.937772 29.28721 " stroke="#9a8e6c" stroke-width="3" stroke-opacity="1" stroke-miterlimit="4"/><path stroke-linecap="round" transform="matrix(1.274592, 0, 0, 1.278095, -252.045651, -396.109896)" fill-opacity="1" fill="#ffffff" fill-rule="nonzero" stroke-linejoin="round" d="M 224.053596 331.423118 L 224.332484 331.050249 L 224.825902 330.585691 L 225.506267 330.090569 L 226.557461 329.286761 L 227.440097 328.715232 L 228.230791 328.235392 L 229.049068 327.770833 L 230.164621 327.275712 L 231.32308 326.890617 L 231.880856 326.811153 L 232.282333 326.841716 L 232.484603 326.982306 C 230.69175 328.962792 228.855991 330.937166 226.897644 332.87792 C 226.971197 333.015453 226.870061 333.305802 227.240891 333.186607 C 229.12875 331.261134 230.979833 329.314267 232.748168 327.306275 L 232.794139 327.831959 C 232.775751 328.125365 232.745103 328.449333 232.683809 328.822202 L 232.438633 330.090569 L 231.972797 331.267247 L 230.799015 333.773417 L 230.115585 334.980658 L 229.652815 335.72334 L 229.156332 336.294869 L 228.475967 336.900018 L 227.673014 337.486828 L 226.511491 337.905542 C 226.103885 338.027794 225.696279 338.128653 225.291737 338.043076 L 224.363131 337.764952 L 223.649055 337.36152 C 223.348714 337.065058 223.109666 336.70747 222.846102 336.374333 C 222.649961 335.918944 222.558019 335.506342 222.567213 335.136529 L 222.628508 334.020978 C 222.830778 333.403604 223.180155 332.663978 223.403878 332.349179 Z M 224.053596 331.423118 " stroke="#ffffff" stroke-width="0.05" stroke-opacity="1" stroke-miterlimit="4"/><path stroke-linecap="round" transform="matrix(1.274592, 0, 0, 1.278095, -252.045651, -396.109896)" fill-opacity="1" fill="#ffffff" fill-rule="nonzero" stroke-linejoin="round" d="M 217.133489 333.617546 L 216.894442 333.932345 L 216.471512 334.323552 L 215.895348 334.736153 L 215.003518 335.411597 L 214.258794 335.888381 L 213.590688 336.2857 L 212.898065 336.673851 L 211.960265 337.08034 L 210.985688 337.392083 L 210.516788 337.450153 L 210.182735 337.416533 L 210.017241 337.294281 C 211.546529 335.619426 213.112594 333.953739 214.779794 332.318616 C 214.721565 332.196364 214.810441 331.948803 214.500906 332.046605 C 212.888871 333.669503 211.310547 335.313795 209.802711 337.010045 L 209.772064 336.554655 C 209.793517 336.304038 209.824164 336.028971 209.879329 335.705002 L 210.106117 334.620014 L 210.513723 333.614489 L 211.537335 331.481188 L 212.125759 330.454269 L 212.527235 329.824671 L 212.950165 329.338718 L 213.529394 328.831371 L 214.209759 328.339306 L 215.184336 328.000056 C 215.527583 327.902254 215.87083 327.82279 216.207948 327.902254 L 216.980254 328.155928 L 217.565613 328.513515 C 217.813854 328.776358 218.00693 329.088101 218.22146 329.37845 C 218.37776 329.772713 218.448248 330.130301 218.432924 330.448157 L 218.362436 331.40478 C 218.184683 331.936578 217.881277 332.56312 217.691266 332.829019 Z M 217.133489 333.617546 " stroke="#ffffff" stroke-width="0.042" stroke-opacity="1" stroke-miterlimit="4"/><path stroke-linecap="round" transform="matrix(1.274592, 0, 0, 1.278095, -252.045651, -396.109896)" fill-opacity="1" fill="#ffffff" fill-rule="nonzero" stroke-linejoin="round" d="M 220.011248 325.03544 L 219.873336 324.717584 L 219.738489 324.219406 L 219.643484 323.583695 L 219.468795 322.584283 L 219.386048 321.783531 L 219.327819 321.077524 L 219.291042 320.356236 L 219.321689 319.421007 L 219.428954 318.488833 L 219.545413 318.079289 L 219.68026 317.81339 L 219.821236 317.721701 C 220.480148 319.625779 221.120672 321.554308 221.709096 323.559244 C 221.813296 323.559244 221.957337 323.724285 221.991049 323.430879 C 221.396496 321.4779 220.771295 319.543259 220.090931 317.648349 L 220.418854 317.795052 C 220.587413 317.905079 220.771295 318.0365 220.976631 318.201541 L 221.66006 318.800577 L 222.227031 319.515752 L 223.376296 321.17227 L 223.897296 322.049429 L 224.206831 322.620958 L 224.402973 323.152756 L 224.565402 323.828199 L 224.681861 324.58005 L 224.592984 325.521392 C 224.547014 325.845361 224.488784 326.16016 224.320226 326.410777 L 223.881972 326.957856 L 223.43759 327.312387 C 223.170961 327.422414 222.889008 327.465203 222.613184 327.535498 C 222.28526 327.51716 222.012502 327.443809 221.791843 327.309331 L 221.148254 326.890617 C 220.835654 326.545255 220.498537 326.05319 220.375948 325.79646 Z M 220.011248 325.03544 " stroke="#ffffff" stroke-width="0.036" stroke-opacity="1" stroke-miterlimit="4"/><path stroke-linecap="round" transform="matrix(1.274592, 0, 0, 1.278095, -252.045651, -396.109896)" fill-opacity="1" fill="#ffffff" fill-rule="nonzero" stroke-linejoin="round" d="M 223.170961 316.664219 L 222.962561 316.551136 L 222.680608 316.324969 L 222.358813 315.994888 L 221.843943 315.490598 L 221.460854 315.053546 L 221.132931 314.656226 L 220.805007 314.240569 L 220.424984 313.656814 L 220.087866 313.033328 L 219.977537 312.718529 L 219.937695 312.480137 L 219.974472 312.342603 C 221.129866 313.121961 222.288325 313.925769 223.446784 314.805985 C 223.501949 314.744859 223.649055 314.766253 223.544855 314.564537 C 222.401719 313.720997 221.24939 312.904963 220.084801 312.143943 L 220.320784 312.046141 C 220.458695 312.018635 220.611931 311.994184 220.792748 311.975846 L 221.408754 311.94834 L 222.012502 312.061423 L 223.327261 312.409842 L 223.973914 312.642121 L 224.378455 312.813274 L 224.709443 313.024159 L 225.080273 313.342015 L 225.460296 313.730166 L 225.812738 314.353652 C 225.923067 314.573706 226.027267 314.796816 226.042591 315.047433 L 226.042591 315.625075 L 225.956779 316.095746 C 225.861773 316.312744 225.726926 316.499179 225.610467 316.700895 C 225.429649 316.875104 225.251896 316.985131 225.080273 317.030976 L 224.559273 317.144059 C 224.246673 317.11044 223.86052 317.006525 223.685831 316.917892 Z M 223.170961 316.664219 " stroke="#ffffff" stroke-width="0.027" stroke-opacity="1" stroke-miterlimit="4"/><path stroke-linecap="round" transform="matrix(1.274592, 0, 0, 1.278095, -252.045651, -396.109896)" fill-opacity="1" fill="#ffffff" fill-rule="nonzero" stroke-linejoin="round" d="M 219.943825 346.55183 L 219.723166 346.261481 L 219.484119 345.79081 L 219.269589 345.179549 L 218.907954 344.225982 L 218.687295 343.452737 L 218.515672 342.768124 L 218.362436 342.065174 L 218.264366 341.145226 L 218.264366 340.216109 L 218.353242 339.800452 L 218.485024 339.519272 L 218.650519 339.412301 C 219.753813 341.191071 220.838719 342.997347 221.865396 344.883088 C 221.997178 344.867806 222.202513 345.011452 222.205578 344.718047 C 221.172772 342.884264 220.109319 341.071875 218.978442 339.30533 L 219.410566 339.403132 C 219.640419 339.488708 219.88866 339.592623 220.173678 339.730157 L 221.120672 340.225278 L 221.935884 340.851821 L 223.624537 342.318847 L 224.406037 343.11043 L 224.874937 343.626946 L 225.199796 344.125124 L 225.500137 344.763892 L 225.754508 345.48518 L 225.779026 346.420409 C 225.769832 346.741321 225.739185 347.059177 225.564496 347.328132 L 225.095596 347.921055 L 224.58379 348.3306 C 224.265061 348.47119 223.915684 348.550654 223.578567 348.657625 C 223.161766 348.682075 222.806261 348.6454 222.515113 348.544542 L 221.641672 348.220573 C 221.200354 347.924112 220.703872 347.48706 220.51386 347.248668 Z M 219.943825 346.55183 " stroke="#ffffff" stroke-width="0.04" stroke-opacity="1" stroke-miterlimit="4"/></svg>