<svg xmlns="http://www.w3.org/2000/svg" xmlns:xlink="http://www.w3.org/1999/xlink" width="80" zoomAndPan="magnify" viewBox="0 0 60 67.92" height="80" preserveAspectRatio="xMidYMid meet" version="1.0"><path stroke-linecap="round" transform="matrix(1.325997, 0, 0, 1.304315, 1.394177, -8.073697)" fill-opacity="1" fill="#f68d2f" fill-rule="nonzero" stroke-linejoin="round" d="M 39.937792 29.2864 C 39.937792 39.627675 31.715794 48.007312 21.573071 48.007312 C 11.430347 48.007312 3.208349 39.627675 3.208349 29.2864 C 3.208349 18.948121 11.430347 10.568484 21.573071 10.568484 C 31.715794 10.568484 39.937792 18.948121 39.937792 29.2864 Z M 39.937792 29.2864 " stroke="#f68d2f" stroke-width="3" stroke-opacity="1" stroke-miterlimit="4"/><path stroke-linecap="butt" transform="matrix(1.274592, 0, 0, 1.278095, -110.914299, -6.475376)" fill-opacity="1" fill="#fefefe" fill-rule="nonzero" stroke-linejoin="miter" d="M 95.370784 28.150701 L 95.824361 26.145765 L 96.314714 24.629838 C 96.556826 24.107209 96.752967 23.514286 97.18509 22.866349 L 98.021755 21.796642 C 98.245479 21.481843 98.622438 21.206775 98.965685 20.922539 L 100.06285 20.467149 C 100.467391 20.396854 100.871932 20.418249 101.276473 20.506881 C 101.702468 20.623021 101.99055 20.751386 102.257179 20.882807 C 102.686238 21.090636 103.017227 21.347365 103.354344 21.604095 L 104.377956 22.701309 C 104.816209 23.13836 105.119615 23.660989 105.43528 24.177504 L 106.042092 25.19831 L 106.572286 26.408607 L 107.139257 27.997886 L 107.51928 29.626897 L 107.632675 30.611027 L 107.632675 31.631833 L 107.479439 32.579288 L 107.289427 33.487011 L 107.025863 34.318326 L 106.419051 35.378864 L 105.778527 36.097096 L 104.981703 36.778652 L 104.034709 37.3838 L 102.790438 37.713881 C 102.211209 37.83919 101.803603 37.753613 101.423579 37.83919 L 99.836061 37.686375 L 98.358873 36.968143 L 97.224932 36.173503 C 96.762161 35.58058 96.342296 34.987657 96.014373 34.394734 L 95.444337 32.955214 L 95.25739 31.897732 L 95.217549 30.280946 L 95.294167 29.211239 Z M 95.370784 28.150701 " stroke="#fefefe" stroke-width="0.05" stroke-opacity="1" stroke-miterlimit="4"/><path stroke-linecap="butt" transform="matrix(1.274592, 0, 0, 1.278095, -110.914299, -6.475376)" fill-opacity="1" fill="#f68d2f" fill-rule="nonzero" stroke-linejoin="miter" d="M 98.96262 26.420833 L 99.287479 25.37252 L 99.713473 24.547317 L 100.363191 23.749622 L 101.034362 23.31257 L 101.236632 23.074178 L 101.310185 22.588225 C 101.294862 22.475142 101.175338 22.32844 100.960809 22.151174 L 100.660467 22.025865 L 100.335609 22.025865 L 99.688956 22.475142 L 99.311997 22.823561 L 98.938102 23.175036 L 98.490655 23.749622 L 98.190314 24.2967 L 97.991108 24.846835 L 97.739802 25.494772 L 97.565114 26.194666 L 97.491561 26.692844 L 97.491561 26.870109 L 97.715285 27.09322 L 97.991108 27.294936 L 98.426296 27.343837 L 98.812449 27.09322 L 98.901326 26.781477 Z M 98.96262 26.420833 " stroke="#f68d2f" stroke-width="0.05" stroke-opacity="1" stroke-miterlimit="4"/><path stroke-linecap="butt" transform="matrix(0.10334, 1.273888, -1.270396, 0.103625, 65.095531, -97.166244)" fill-opacity="1" fill="#fefefe" fill-rule="nonzero" stroke-linejoin="miter" d="M 95.370454 28.151592 L 95.825085 26.143812 L 96.316116 24.630966 C 96.558102 24.106406 96.753521 23.513486 97.186417 22.866088 L 98.021637 21.796342 C 98.246479 21.48255 98.621645 21.205585 98.96355 20.92284 L 100.061531 20.46791 C 100.469038 20.396515 100.871887 20.42006 101.278657 20.508496 C 101.701717 20.622855 101.991801 20.750996 102.257018 20.883264 C 102.687606 21.093556 103.019537 21.348094 103.354514 21.60288 L 104.378302 22.700854 C 104.81792 23.139417 105.118845 23.662019 105.435748 24.176695 L 106.042634 25.197708 L 106.572692 26.409261 L 107.139453 27.998929 L 107.519216 29.625657 L 107.632362 30.609582 L 107.632115 31.630405 L 107.48148 32.577499 L 107.290931 33.487522 L 107.027143 34.317792 L 106.419581 35.378383 L 105.778427 36.098011 L 104.981104 36.777261 L 104.036439 37.38303 L 102.789247 37.712053 C 102.211528 37.840323 101.804509 37.754942 101.423674 37.837732 L 99.835274 37.687 L 98.360605 36.967451 L 97.223131 36.173862 C 96.762429 35.579842 96.341577 34.985988 96.012609 34.39346 L 95.445608 32.957514 L 95.255929 31.896643 L 95.218837 30.27934 L 95.293619 29.209233 Z M 95.370454 28.151592 " stroke="#fefefe" stroke-width="0.05" stroke-opacity="1" stroke-miterlimit="4"/><path stroke-linecap="butt" transform="matrix(0.10334, 1.273888, -1.270396, 0.103625, 65.095531, -97.166244)" fill-opacity="1" fill="#f68d2f" fill-rule="nonzero" stroke-linejoin="miter" d="M 98.964023 26.420673 L 99.288597 25.370885 L 99.711287 24.547392 L 100.361948 23.748592 L 101.035323 23.311395 L 101.235427 23.075536 L 101.311987 22.586717 C 101.296562 22.474768 101.176507 22.32971 100.961208 22.14923 L 100.661488 22.026455 L 100.336599 22.024625 L 99.686599 22.476023 L 99.311811 22.82374 L 98.939821 23.174759 L 98.488518 23.746864 L 98.189214 24.29751 L 97.991182 24.84717 L 97.739008 25.49697 L 97.565604 26.196225 L 97.491344 26.694456 L 97.489366 26.869561 L 97.716418 27.094044 L 97.991399 27.294752 L 98.426018 27.342406 L 98.814179 27.094171 L 98.900945 26.781447 Z M 98.964023 26.420673 " stroke="#f68d2f" stroke-width="0.05" stroke-opacity="1" stroke-miterlimit="4"/><path stroke-linecap="butt" transform="matrix(1.274592, 0, 0, 1.278095, -110.914299, -6.475376)" fill-opacity="1" fill="#fefefe" fill-rule="nonzero" stroke-linejoin="miter" d="M 105.652874 21.836374 C 105.980798 20.809456 106.446633 19.862001 106.989086 18.963447 C 107.641869 17.936529 108.294651 16.918779 108.990339 16.142477 C 109.578763 15.509822 110.216222 14.935237 111.055952 14.632662 C 111.59534 14.299525 112.134728 14.244511 112.674117 14.25368 C 113.311576 14.378989 113.927582 14.764083 114.479229 15.149178 C 115.089105 15.702369 115.401705 16.124139 115.628494 16.506178 C 116.079005 17.325267 116.526453 18.144357 116.7655 18.963447 L 117.295694 20.989778 C 117.421347 21.778305 117.543935 22.802167 117.666523 23.887155 L 117.666523 24.953806 L 116.174011 24.828497 C 115.361864 24.822385 114.509876 24.797934 113.94597 24.91713 C 112.989781 24.944637 112.238928 25.335844 111.445169 25.647587 L 110.139604 26.509465 L 108.852428 27.646411 L 107.853333 25.238042 C 107.672516 24.807103 107.36298 24.253912 106.967633 23.612088 C 106.58761 23.086403 106.238233 22.606563 105.652874 21.836374 Z M 105.652874 21.836374 " stroke="#fefefe" stroke-width="0.05" stroke-opacity="1" stroke-miterlimit="4"/><path stroke-linecap="butt" transform="matrix(1.274592, 0, 0, 1.278095, -110.914299, -6.475376)" fill-opacity="1" fill="#f68d2f" fill-rule="nonzero" stroke-linejoin="round" d="M 110.34494 20.002591 L 110.792387 19.000123 L 111.310322 18.229934 L 112.051981 17.514758 L 112.772187 17.163283 L 112.998975 16.949342 L 113.130758 16.475614 C 113.127693 16.362531 113.029623 16.203603 112.836546 16.001887 L 112.554593 15.839903 L 112.232799 15.803227 L 111.534046 16.169984 L 110.706575 16.775132 L 110.191704 17.291648 L 109.830069 17.802051 L 109.566504 18.324679 L 109.238581 18.938997 L 108.98421 19.611384 L 108.849363 20.097336 L 108.82791 20.271546 L 109.024051 20.522163 L 109.275357 20.754442 L 109.701351 20.8553 L 110.115087 20.653584 L 110.24074 20.354066 Z M 110.34494 20.002591 " stroke="#f68d2f" stroke-width="0.05" stroke-opacity="1" stroke-miterlimit="4"/></svg>