<svg xmlns="http://www.w3.org/2000/svg" xmlns:xlink="http://www.w3.org/1999/xlink" width="80" zoomAndPan="magnify" viewBox="0 0 60 67.92" height="80" preserveAspectRatio="xMidYMid meet" version="1.0"><path stroke-linecap="round" transform="matrix(1.325997, 0, 0, 1.304315, 1.394219, -8.073695)" fill-opacity="1" fill="#4dc4d5" fill-rule="nonzero" stroke-linejoin="round" d="M 39.937761 29.286399 C 39.937761 39.627674 31.715762 48.00731 21.573039 48.00731 C 11.430316 48.00731 3.208317 39.627674 3.208317 29.286399 C 3.208317 18.94812 11.430316 10.568483 21.573039 10.568483 C 31.715762 10.568483 39.937761 18.94812 39.937761 29.286399 Z M 39.937761 29.286399 " stroke="#4dc4d5" stroke-width="3" stroke-opacity="1" stroke-miterlimit="4"/><path stroke-linecap="round" transform="matrix(1.274592, 0, 0, 1.278095, -737.446835, -6.617974)" fill-opacity="1" fill="#f9f9f9" fill-rule="nonzero" stroke-linejoin="round" d="M 598.759016 15.703913 L 597.695563 15.859785 C 597.156175 15.994262 596.702598 16.226541 596.42984 16.516891 L 595.476716 17.299305 L 594.664569 18.017537 L 593.631763 18.500433 L 592.602021 18.735768 L 591.320974 19.047511 L 590.291233 20.01636 L 589.666033 21.205263 L 589.010185 22.550038 C 588.850821 22.770092 588.507573 22.959582 588.032544 23.127679 C 587.646391 23.347733 587.566709 23.387465 587.08555 23.852024 C 586.82505 24.172936 586.635038 24.564143 586.641167 25.147897 L 586.733108 26.162591 L 586.92925 26.914442 C 586.739238 27.174228 586.892473 27.641842 586.947638 28.048331 C 587.042644 28.739056 587.18975 29.390049 587.499285 29.921846 C 587.897697 30.719542 588.633226 31.517238 589.282944 32.314934 L 591.376139 34.322926 L 593.791127 36.361482 L 595.633016 37.642074 L 595.320416 38.360306 L 594.603275 39.454463 C 594.425522 39.747869 594.318257 40.038218 594.351969 40.328567 C 594.373422 40.970391 594.633922 41.276021 594.915875 41.548032 C 595.498169 41.728354 596.080463 41.850607 596.665822 41.768086 L 608.228959 41.768086 L 609.197407 41.392161 C 609.497748 41.257683 609.721471 41.031517 609.758248 40.579184 C 609.804218 40.261328 609.779701 39.967922 609.666307 39.70508 C 609.669371 38.959342 608.872548 38.329743 608.4772 37.642074 C 609.378224 37.113333 610.325218 36.648775 611.069942 35.805234 L 613.822048 33.393809 L 615.728296 31.486675 L 616.601737 30.1419 L 617.070637 29.01718 L 617.294361 27.953586 L 617.321943 27.265917 L 617.321943 26.954174 L 617.361784 26.180928 C 617.444531 26.012832 617.487437 25.43519 617.570184 25.111222 C 617.637608 24.735296 617.416949 24.362427 617.226937 23.986501 L 616.853043 23.454704 L 615.967343 23.054328 L 615.16439 22.550038 L 614.879372 22.024353 C 614.940666 21.727891 614.514672 21.235826 614.38289 20.89352 C 614.244978 20.523707 613.806725 19.976628 613.414443 19.454 L 612.758595 19.007779 L 611.416254 18.579897 L 610.383448 18.32928 L 609.197407 17.766919 L 608.1646 16.828634 C 607.983783 16.538285 607.315677 16.247936 606.791612 15.95453 L 606.071406 15.703913 L 604.885365 15.703913 L 603.196711 16.110402 L 602.476505 16.174584 L 601.284335 16.168472 L 600.009417 15.859785 Z M 598.759016 15.703913 " stroke="#f9f9f9" stroke-width="0.05" stroke-opacity="1" stroke-miterlimit="4"/><path stroke-linecap="round" transform="matrix(1.274592, 0, 0, 1.278095, -737.446835, -6.617974)" fill-opacity="1" fill="#4dc4d5" fill-rule="nonzero" stroke-linejoin="round" d="M 591.158545 23.757278 L 590.94708 23.968163 L 590.723356 24.209611 L 590.539474 24.365483 L 590.312686 24.53358 L 590.046056 24.67417 L 589.807009 24.802535 L 597.585234 32.693915 Z M 591.158545 23.757278 " stroke="#4dc4d5" stroke-width="0.05" stroke-opacity="1" stroke-miterlimit="4"/><path stroke-linecap="round" transform="matrix(1.274592, 0, 0, 1.278095, -737.446835, -6.617974)" fill-opacity="1" fill="#4dc4d5" fill-rule="nonzero" stroke-linejoin="round" d="M 596.656628 19.402043 L 596.42984 19.585421 L 596.218375 19.7688 L 595.994651 19.90939 L 595.783187 20.037754 L 595.712698 20.04998 L 595.571722 20.108049 L 595.317351 20.276146 L 595.078304 20.334216 L 600.009417 32.20185 Z M 596.656628 19.402043 " stroke="#4dc4d5" stroke-width="0.05" stroke-opacity="1" stroke-miterlimit="4"/><path stroke-linecap="round" transform="matrix(1.274592, 0, 0, 1.278095, -737.446835, -6.617974)" fill-opacity="1" fill="#4dc4d5" fill-rule="nonzero" stroke-linejoin="round" d="M 601.786946 18.148958 L 602.068899 18.234534 L 602.265041 18.246759 L 602.421341 18.246759 L 602.68797 18.234534 L 602.942341 18.246759 L 603.20897 18.234534 L 603.349947 18.219253 L 603.533829 18.176464 L 603.604317 18.176464 L 602.660388 32.580832 Z M 601.786946 18.148958 " stroke="#4dc4d5" stroke-width="0.05" stroke-opacity="1" stroke-miterlimit="4"/><path stroke-linecap="round" transform="matrix(1.274592, 0, 0, 1.278095, -737.446835, -6.617974)" fill-opacity="1" fill="#4dc4d5" fill-rule="nonzero" stroke-linejoin="round" d="M 608.707053 19.402043 L 608.961424 19.612928 L 609.157565 19.784081 L 609.396612 19.924671 L 609.623401 20.010248 L 609.678565 20.037754 L 609.834865 20.178344 L 610.031007 20.263921 L 610.285377 20.373948 L 605.323618 32.256864 Z M 608.707053 19.402043 " stroke="#4dc4d5" stroke-width="0.05" stroke-opacity="1" stroke-miterlimit="4"/><path stroke-linecap="round" transform="matrix(1.274592, 0, 0, 1.278095, -737.446835, -6.617974)" fill-opacity="1" fill="#4dc4d5" fill-rule="nonzero" stroke-linejoin="round" d="M 614.232719 23.745053 L 614.42886 23.955938 L 614.612743 24.19433 L 614.910019 24.420496 L 615.231813 24.619156 L 615.556672 24.787253 L 607.720218 32.76421 Z M 614.232719 23.745053 " stroke="#4dc4d5" stroke-width="0.05" stroke-opacity="1" stroke-miterlimit="4"/></svg>