<svg xmlns="http://www.w3.org/2000/svg" xmlns:xlink="http://www.w3.org/1999/xlink" width="80" zoomAndPan="magnify" viewBox="0 0 60 67.92" height="80" preserveAspectRatio="xMidYMid meet" version="1.0"><path stroke-linecap="round" transform="matrix(1.417976, 0, 0, 1.39479, -0.590064, -10.787873)" fill-opacity="1" fill="#c09328" fill-rule="nonzero" stroke-linejoin="round" d="M 39.936603 29.287828 C 39.936603 39.627645 31.716257 48.007042 21.573055 48.007042 C 11.429853 48.007042 3.209506 39.627645 3.209506 29.287828 C 3.209506 18.948011 11.429853 10.568614 21.573055 10.568614 C 31.716257 10.568614 39.936603 18.948011 39.936603 29.287828 Z M 39.936603 29.287828 " stroke="#c09328" stroke-width="0.4" stroke-opacity="1" stroke-miterlimit="4"/><path stroke-linecap="round" transform="matrix(1.253349, 0, 0, 1.256794, -500.324357, -5.503149)" fill-opacity="1" fill="#ffffff" fill-rule="nonzero" stroke-linejoin="round" d="M 435.062693 39.888845 C 434.947377 39.596683 434.88816 39.276548 434.719861 39.015467 L 434.21808 38.543035 L 433.373468 37.980467 L 432.344974 37.576413 L 430.873915 37.169251 L 429.655304 36.948576 L 428.031529 36.824251 L 427.031085 36.886414 L 425.812474 37.324657 L 424.438031 37.825062 L 423.375254 38.011548 L 421.686029 38.042629 L 420.405086 37.887224 L 419.061809 37.669657 L 417.7497 37.480062 L 416.593422 37.386819 L 415.21898 37.231414 L 413.875703 37.293576 L 413.751037 36.917495 L 413.564038 36.075198 L 413.657538 35.450468 L 413.81337 35.229792 L 414.751482 34.636144 L 415.624144 33.824928 L 416.032425 33.23128 L 416.063592 32.420064 L 416.001259 31.636821 L 415.873476 31.074253 L 415.686477 30.573848 L 415.686477 30.076551 L 416.032425 29.731551 L 416.593422 29.513983 L 417.157536 29.200065 L 417.593867 28.761821 L 417.967865 28.168173 L 418.154864 27.543443 L 418.376146 27.136281 L 418.313813 26.79439 L 417.874366 26.387228 L 417.469201 26.387228 L 417.157536 26.573714 L 416.905087 27.1052 L 416.686922 27.698849 L 416.43759 28.106011 L 415.84231 28.388849 L 415.156647 28.668578 L 414.686032 29.168984 L 414.374367 29.793713 L 414.343201 30.449524 L 414.5302 31.232767 L 414.686032 32.012902 L 414.813815 32.60655 L 414.686032 32.95155 L 414.125035 33.386685 L 413.657538 33.762766 L 413.12459 34.138847 L 412.750592 34.449658 L 412.438927 35.012225 L 412.248812 35.85763 L 412.311145 36.762089 L 412.438927 37.262495 L 412.532427 37.731819 L 411.812481 38.011548 L 411.092534 38.574116 L 410.718536 39.136683 L 410.531537 39.919926 L 410.749703 40.762223 L 411.469649 41.576547 L 412.563593 42.57425 L 413.626371 43.167898 L 414.969647 43.668303 L 416.250591 43.951141 L 418.282647 44.168709 L 420.467419 44.293033 L 423.001256 44.513709 L 425.248361 44.451546 L 427.436249 44.261952 L 429.15664 43.951141 L 430.749249 43.512898 L 432.407307 42.794925 L 433.657083 42.073844 L 434.560912 41.231547 L 435.00036 40.544656 L 435.065809 39.904386 " stroke="#ffffff" stroke-width="0.05" stroke-opacity="1" stroke-miterlimit="4"/><path stroke-linecap="round" transform="matrix(1.253349, 0, 0, 1.256794, -500.324357, -5.503149)" fill-opacity="1" fill="#c09328" fill-rule="nonzero" stroke-linejoin="round" d="M 428.795109 42.421952 L 429.633488 42.266547 L 430.275518 42.089385 L 431.104547 41.747493 L 431.656194 41.449115 L 432.076942 41.19425 L 432.416657 40.939385 L 432.803121 40.597494 L 433.09297 40.199656 L 433.323602 39.724115 L 433.410868 39.33871 L 433.423335 39.071413 L 433.410868 38.962629 L 433.579167 39.183305 L 433.700717 39.481683 L 433.74435 39.724115 L 433.710066 40.013169 L 433.653967 40.233845 L 433.544884 40.454521 L 433.379702 40.709385 L 433.202052 40.917629 L 432.881037 41.160061 L 432.550673 41.427358 L 432.198491 41.657358 L 431.73411 41.955736 L 431.444262 42.123574 L 431.126363 42.266547 L 430.771065 42.375331 L 430.418884 42.496547 L 430.085402 42.530736 L 429.711404 42.552493 L 429.334289 42.521412 L 429.091191 42.496547 Z M 428.795109 42.421952 " stroke="#c09328" stroke-width="0.05" stroke-opacity="1" stroke-miterlimit="4"/><path stroke-linecap="round" transform="matrix(1.253349, 0, 0, 1.256794, -500.324357, -5.503149)" fill-opacity="1" fill="#fefefe" fill-rule="nonzero" stroke-linejoin="round" d="M 419.158426 25.327363 L 421.633046 21.57277 L 419.691373 19.692365 L 421.015949 18.368311 L 426.516837 23.847904 L 425.192261 25.175066 L 423.247471 23.251147 L 419.644623 25.746958 Z M 419.158426 25.327363 " stroke="#fefefe" stroke-width="0.05" stroke-opacity="1" stroke-miterlimit="4"/><path stroke-linecap="round" transform="matrix(1.253349, 0, 0, 1.256794, -263.102744, -422.941544)" fill-opacity="1" fill="#ffffff" fill-rule="nonzero" stroke-linejoin="round" d="M 231.281337 348.767032 L 239.060497 356.546624 L 249.267527 346.181086 C 248.553814 345.226897 247.575186 344.449871 246.506175 343.72879 C 246.15711 343.340276 245.377947 342.892709 244.626834 342.44825 C 244.037787 341.764466 243.236808 341.366628 242.086764 341.034061 C 241.796916 340.679737 240.737255 340.555412 239.63396 340.260142 Z M 231.281337 348.767032 " stroke="#ffffff" stroke-width="0.05" stroke-opacity="1" stroke-miterlimit="4"/></svg>