<svg xmlns="http://www.w3.org/2000/svg" xmlns:xlink="http://www.w3.org/1999/xlink" width="80" zoomAndPan="magnify" viewBox="0 0 60 67.92" height="80" preserveAspectRatio="xMidYMid meet" version="1.0"><path stroke-linecap="round" transform="matrix(1.325997, 0, 0, 1.304315, 1.394203, -7.925917)" fill-opacity="1" fill="#28429d" fill-rule="nonzero" stroke-linejoin="round" d="M 39.937773 29.286905 C 39.937773 39.628179 31.715774 48.007816 21.573051 48.007816 C 11.430328 48.007816 3.208329 39.628179 3.208329 29.286905 C 3.208329 18.948625 11.430328 10.565994 21.573051 10.565994 C 31.715774 10.565994 39.937773 18.948625 39.937773 29.286905 Z M 39.937773 29.286905 " stroke="#28429d" stroke-width="3" stroke-opacity="1" stroke-miterlimit="4"/><path stroke-linecap="butt" transform="matrix(1.274592, 0, 0, 1.278095, -166.857664, -6.882746)" fill-opacity="1" fill="#c3ead8" fill-rule="nonzero" stroke-linejoin="miter" d="M 139.758464 30.792225 L 141.033382 30.19319 L 139.531676 28.973724 C 139.733946 28.643643 139.917829 28.313562 140.199782 27.983481 C 140.772882 27.311093 141.232588 26.632594 142.007959 25.972432 C 142.639288 25.47731 143.239971 24.960795 144.003083 24.615432 C 144.570053 24.322027 145.198318 24.086691 145.838842 23.866637 C 146.749059 23.619076 147.815577 23.377628 149.09356 23.145349 C 149.571654 22.998646 150.089589 22.906957 150.503325 22.683847 L 151.290954 21.693604 C 151.747596 21.311566 152.16746 20.920359 152.728302 20.565827 C 153.221719 20.345773 153.546578 20.082931 154.502767 19.979017 C 154.855208 19.908722 155.198455 19.963735 155.538637 20.089044 C 155.759296 20.202127 155.946243 20.339661 155.973826 20.590278 C 155.927855 20.895908 155.82672 21.201539 155.642837 21.507169 L 154.77859 22.965027 C 154.686649 23.1698 154.530349 23.31039 154.515026 23.594626 C 155.259749 23.823849 156.004473 24.03779 156.749196 24.349533 C 157.457144 24.563475 158.008791 24.866049 158.597214 25.147229 C 159.292903 25.413128 159.74035 25.682083 160.233768 25.951038 C 161.033656 26.41254 161.677244 26.870986 162.354545 27.332488 L 163.166692 28.023213 C 163.525262 27.500584 163.773504 27.087983 164.59178 26.458384 C 165.128104 26.094684 165.624586 25.718758 166.390763 25.437578 C 167.003704 25.293932 167.549222 25.098328 168.373628 25.101385 C 168.692357 25.116666 169.259328 25.119722 169.363528 25.361171 L 168.493151 26.064121 C 168.128451 26.360582 167.760687 26.797634 167.395987 27.201066 C 166.982251 27.836778 166.773851 28.267717 166.626745 28.63753 C 166.52561 29.028737 166.384633 29.416888 166.442863 29.808095 C 166.445928 30.235978 166.752398 30.78 166.963863 31.284291 L 168.054898 32.61684 L 169.360463 33.759898 C 169.13061 34.129711 169.164322 34.028853 168.566704 34.325315 C 168.106998 34.450623 167.650357 34.432285 167.190651 34.377272 L 166.053645 33.967727 C 165.618457 33.652927 165.103586 33.356466 164.840021 33.029441 L 163.755115 31.935284 L 163.142174 31.174264 C 162.906192 31.531851 162.621174 31.864989 162.287121 32.164507 C 161.818221 32.567939 161.318674 32.89802 160.822191 33.231157 L 159.651473 33.833249 L 158.355103 34.407835 C 157.374397 34.808211 156.381432 35.153573 155.385402 35.486711 L 154.104355 35.85958 C 154.079837 36.125479 154.21162 36.314969 154.41389 36.467785 L 155.317979 37.121834 L 156.047379 37.763658 C 155.805267 37.965374 155.46202 38.041782 155.14329 38.151809 C 154.855208 38.22516 154.47212 38.191541 154.104355 38.170147 C 153.525125 37.998994 153.050096 37.751433 152.682331 37.424408 L 152.087778 36.871217 L 151.530001 36.137704 C 151.165301 35.978776 150.800601 35.890143 150.435901 35.829017 L 148.140436 35.560062 C 147.05553 35.480598 145.958365 35.324726 144.830553 34.991589 C 143.9755 34.664564 143.157224 34.261132 142.403306 33.732391 C 141.7873 33.20365 141.205006 32.681022 140.772882 32.19507 Z M 139.758464 30.792225 " stroke="#c3ead8" stroke-width="0.05" stroke-opacity="1" stroke-miterlimit="4"/><path stroke-linecap="butt" transform="matrix(1.793826, 0, 0, 1.798757, -247.15403, -25.851266)" fill-opacity="1" fill="#28429d" fill-rule="nonzero" stroke-linejoin="miter" d="M 149.312984 30.272477 C 149.312984 30.735036 148.936258 31.108558 148.474605 31.108558 C 148.012952 31.108558 147.638404 30.735036 147.638404 30.272477 C 147.638404 29.809918 148.012952 29.434224 148.474605 29.434224 C 148.936258 29.434224 149.312984 29.809918 149.312984 30.272477 Z M 149.312984 30.272477 " stroke="#28429d" stroke-width="0.05" stroke-opacity="1" stroke-miterlimit="4"/><path stroke-linecap="butt" transform="matrix(1.274592, 0, 0, 1.278095, -166.857664, -6.882746)" fill-opacity="1" fill="#28429d" fill-rule="nonzero" stroke-linejoin="miter" d="M 148.195601 34.658452 L 148.882095 34.047191 L 149.724889 32.998878 L 150.325572 31.819144 C 150.497195 31.461556 150.647366 31.030617 150.702531 30.590509 L 150.806731 29.588041 C 150.800601 29.150989 150.794472 28.713938 150.705595 28.221873 C 150.622848 27.714526 150.497195 27.191898 150.288795 26.638706 L 149.700372 25.397846 L 148.992425 24.309802 L 148.784025 23.970552 L 149.286636 24.407603 L 150.104913 25.2542 L 150.491066 25.773772 L 151.045778 26.770127 L 151.33386 27.580048 L 151.517743 28.209647 L 151.621943 28.799514 L 151.649525 29.59721 L 151.597425 30.367399 L 151.413543 31.165095 L 151.199013 31.858876 L 150.797537 32.512925 L 150.457354 32.971371 L 149.997648 33.481774 L 149.268248 34.034966 L 148.535783 34.527031 Z M 148.195601 34.658452 " stroke="#28429d" stroke-width="0.05" stroke-opacity="1" stroke-miterlimit="4"/></svg>