<svg xmlns="http://www.w3.org/2000/svg" xmlns:xlink="http://www.w3.org/1999/xlink" width="80" zoomAndPan="magnify" viewBox="0 0 60 67.92" height="80" preserveAspectRatio="xMidYMid meet" version="1.0"><path stroke-linecap="round" transform="matrix(1.325997, 0, 0, 1.304315, 1.394193, -8.007749)" fill-opacity="1" fill="#02a75b" fill-rule="nonzero" stroke-linejoin="round" d="M 39.93778 29.286752 C 39.93778 39.628026 31.715782 48.007663 21.573058 48.007663 C 11.430335 48.007663 3.208337 39.628026 3.208337 29.286752 C 3.208337 18.948472 11.430335 10.568835 21.573058 10.568835 C 31.715782 10.568835 39.93778 18.948472 39.93778 29.286752 Z M 39.93778 29.286752 " stroke="#02a75b" stroke-width="3" stroke-opacity="1" stroke-miterlimit="4"/><path stroke-linecap="round" transform="matrix(1.274592, 0, 0, 1.278095, -282.33909, -6.148021)" fill-opacity="1" fill="#fefefe" fill-rule="nonzero" stroke-linejoin="round" d="M 231.98849 37.74199 L 232.812896 38.325745 L 233.652625 38.698614 L 234.688496 39.013413 L 235.561938 39.230411 L 236.937991 39.450465 L 237.845144 39.581886 L 238.675679 39.60328 L 239.717679 39.545211 L 241.345039 39.260974 L 242.656733 39.043976 L 243.726315 38.778078 L 245.641757 38.298238 L 246.717469 37.980382 L 248.27434 37.448585 L 249.515546 37.069603 C 249.913958 36.938182 250.269464 36.870943 250.628034 36.797592 C 251.011123 36.708959 251.427923 36.672283 251.850852 36.657002 C 252.454599 36.647833 252.908176 36.684509 253.453694 36.800648 C 253.790811 36.874 254.130994 37.002364 254.468111 37.136842 C 254.811359 37.32022 255.15767 37.485261 255.491723 37.748103 C 255.822712 37.949819 256.070953 38.209605 256.343712 38.451053 L 257.342806 39.481028 C 257.682988 39.905855 258.078336 40.318456 258.344965 40.76162 L 258.691277 41.140602 C 258.731118 41.131433 258.767895 41.113095 258.795477 41.030575 C 258.918065 41.134489 258.97323 41.247573 259.031459 41.360656 C 258.918065 41.3576 258.801606 41.369825 258.688212 41.388163 L 258.2898 41.296474 L 257.477653 41.161996 L 256.282418 41.149771 L 255.090247 41.232291 L 253.530311 41.513471 C 252.972535 41.641836 252.390241 41.834383 251.811011 42.011649 L 248.957769 42.980498 C 247.759469 43.490901 246.472292 43.848489 245.237216 44.294709 L 243.438233 44.637015 L 241.774097 44.933477 L 240.563538 45.074067 L 238.592932 45.107687 L 237.029932 44.887633 C 236.603938 44.759268 236.177944 44.630903 235.748885 44.420018 C 235.160461 44.17857 234.740596 43.820982 234.28089 43.481732 C 233.787473 42.971329 233.266472 42.439532 233.012102 41.83744 L 232.598366 41.039744 L 232.24899 39.982262 L 232.141725 39.3221 L 232.09269 38.512179 L 232.062043 38.261562 Z M 231.98849 37.74199 " stroke="#fefefe" stroke-width="0.05" stroke-opacity="1" stroke-miterlimit="4"/><path stroke-linecap="round" transform="matrix(1.274592, 0, 0, 1.278095, -282.33909, -6.148021)" fill-opacity="1" fill="#02a75b" fill-rule="nonzero" stroke-linejoin="round" d="M 234.152173 41.825214 L 234.090879 41.485965 L 234.069426 41.327037 L 234.136849 40.972505 L 234.283955 40.532397 L 234.415737 40.321512 L 234.660914 40.144246 L 234.970449 39.979206 L 235.310632 39.902798 L 235.620167 39.890573 L 236.073744 39.979206 L 236.493608 40.168697 L 236.947185 40.431539 L 237.354791 40.795239 L 237.664326 41.272023 L 237.98612 41.889397 L 238.084191 42.476207 L 238.074997 42.916315 L 237.863532 43.469507 C 237.811432 43.533689 237.759332 43.591759 237.710297 43.634547 L 237.639809 43.613153 L 237.354791 43.824038 L 237.112679 43.967685 L 236.340373 43.955459 L 235.776467 43.778194 L 235.289179 43.503126 L 234.869314 43.139426 L 234.550584 42.751275 L 234.33912 42.34173 L 234.241049 42.112507 Z M 234.152173 41.825214 " stroke="#02a75b" stroke-width="0.05" stroke-opacity="1" stroke-miterlimit="4"/><path stroke-linecap="round" transform="matrix(1.274592, 0, 0, 1.278095, -282.33909, -6.148021)" fill-opacity="1" fill="#02a75b" fill-rule="nonzero" stroke-linejoin="round" d="M 238.387597 42.127789 L 238.320173 41.910791 C 238.30485 41.816046 238.240491 41.733525 238.289526 41.620442 L 238.292591 41.204784 C 238.29872 41.003068 238.396791 40.792183 238.46115 40.627143 C 238.519379 40.529341 238.61745 40.434595 238.736973 40.355131 L 238.902468 40.193147 C 238.960697 40.135077 239.064897 40.107571 239.172162 40.080064 C 239.288621 40.049501 239.285556 40.02505 239.558315 39.985319 L 239.941403 39.991431 L 240.333685 40.064782 C 240.520633 40.132021 240.704515 40.168697 240.891462 40.28178 L 241.38488 40.587411 L 241.728127 40.893041 L 242.074439 41.330093 C 242.221545 41.540978 242.341068 41.791595 242.439139 42.00248 C 242.485109 42.158352 242.503498 42.314223 242.53108 42.470095 C 242.546404 42.717656 242.543339 42.959104 242.497368 43.18527 C 242.472851 43.405324 242.380909 43.567309 242.285903 43.72318 C 242.233803 43.787363 242.190898 43.848489 242.138798 43.894333 L 242.028468 44.001304 L 241.774097 44.126612 L 241.43698 44.242752 C 241.182609 44.313047 240.928239 44.258034 240.670803 44.26109 L 240.091574 44.065486 C 239.929144 43.973797 239.71155 43.912671 239.585897 43.762912 C 239.466374 43.726236 239.325397 43.497014 239.187485 43.377818 L 238.847303 43.014117 L 238.657291 42.708487 L 238.500991 42.3998 Z M 238.387597 42.127789 " stroke="#02a75b" stroke-width="0.05" stroke-opacity="1" stroke-miterlimit="4"/><path stroke-linecap="round" transform="matrix(1.274592, 0, 0, 1.278095, -282.33909, -6.148021)" fill-opacity="1" fill="#02a75b" fill-rule="nonzero" stroke-linejoin="round" d="M 242.788515 41.7213 L 242.708833 41.461514 L 242.684315 41.189503 C 242.623021 40.966393 242.675121 40.838028 242.678186 40.669931 L 242.831421 40.272611 L 243.015304 40.031163 C 243.091921 39.936418 243.165474 39.838616 243.242092 39.792771 C 243.367745 39.728589 243.502592 39.646069 243.609857 39.618562 L 243.968427 39.554379 L 244.323933 39.536042 C 244.51088 39.566605 244.707022 39.591055 244.87558 39.630787 C 245.03188 39.685801 245.221892 39.740814 245.310769 39.795828 C 245.467069 39.890573 245.660145 39.966981 245.776604 40.08312 C 245.972745 40.22371 246.095334 40.355131 246.211792 40.483496 C 246.346639 40.62103 246.469228 40.709663 246.634722 40.938886 C 246.794087 41.24146 246.993293 41.547091 247.036198 41.840496 C 247.063781 42.054437 247.109751 42.314223 247.07604 42.402856 C 247.06991 42.589291 247.008616 42.720712 246.941193 42.84602 C 246.846187 43.038568 246.751181 43.228059 246.60714 43.368649 C 246.55504 43.432831 246.484551 43.493957 246.432451 43.536745 L 246.331316 43.613153 L 246.058557 43.686504 L 245.804186 43.8057 C 245.546751 43.86377 245.289316 43.817926 245.03188 43.796531 L 244.467974 43.619266 L 243.980686 43.344198 L 243.560821 42.977442 L 243.242092 42.592347 L 243.030627 42.182802 L 242.932557 41.950523 Z M 242.788515 41.7213 " stroke="#02a75b" stroke-width="0.05" stroke-opacity="1" stroke-miterlimit="4"/><path stroke-linecap="round" transform="matrix(1.274592, 0, 0, 1.278095, -282.33909, -6.148021)" fill-opacity="1" fill="#02a75b" fill-rule="nonzero" stroke-linejoin="round" d="M 246.791022 40.174809 C 246.738922 40.02505 246.729728 39.863066 246.726663 39.704138 L 246.717469 39.334325 L 246.778763 39.147891 C 246.849251 38.946175 246.91974 38.857542 246.990228 38.723064 L 247.17411 38.50301 L 247.416222 38.325745 L 247.725757 38.160704 L 248.069004 38.084297 L 248.37854 38.072071 L 248.832116 38.160704 L 249.251981 38.304351 L 249.708622 38.499954 L 250.165264 38.81781 L 250.569805 39.26403 C 250.784334 39.505479 250.851758 39.670519 250.980476 39.869179 C 251.069352 40.077008 251.176617 40.287893 251.161293 40.486553 C 251.19194 40.709663 251.179681 40.862478 251.182746 41.036688 C 251.118387 41.250629 251.054029 41.443176 250.925311 41.632667 C 250.873211 41.69685 250.784334 41.822158 250.732234 41.864946 L 250.548352 42.008593 L 250.382858 42.112507 L 249.907828 42.219478 C 249.647328 42.250041 249.383764 42.253097 249.101811 42.188915 L 248.479675 41.993311 L 247.934157 41.690737 C 247.75334 41.60516 247.661399 41.470683 247.548004 41.348431 L 247.250728 40.981674 L 247.039263 40.651593 L 246.907481 40.42237 Z M 246.791022 40.174809 " stroke="#02a75b" stroke-width="0.05" stroke-opacity="1" stroke-miterlimit="4"/><path stroke-linecap="round" transform="matrix(1.274592, 0, 0, 1.278095, -282.33909, -6.148021)" fill-opacity="1" fill="#02a75b" fill-rule="nonzero" stroke-linejoin="round" d="M 251.084676 39.147891 L 251.001929 38.820866 L 250.980476 38.631375 C 250.98354 38.512179 250.986605 38.39604 251.008058 38.289069 C 251.023381 38.136254 251.121452 37.952875 251.182746 37.781722 L 251.366629 37.586119 L 251.642452 37.408853 C 251.755846 37.359952 251.86924 37.307995 251.985699 37.259094 L 252.307493 37.240756 L 252.626223 37.222418 L 253.116576 37.311051 C 253.248358 37.372177 253.288199 37.366065 253.493535 37.445529 C 253.705 37.573893 253.947111 37.690033 254.072764 37.85813 C 254.183094 37.900918 254.265841 37.992607 254.360847 38.065959 L 254.731676 38.429659 C 254.881847 38.637488 254.970723 38.894217 255.0596 39.150947 C 255.108635 39.358776 255.166865 39.566605 255.166865 39.774433 C 255.136217 39.933361 255.130088 40.064782 255.117829 40.202316 L 254.961529 40.517116 C 254.909429 40.581298 254.750064 40.755508 254.697964 40.798296 L 254.53247 40.914435 L 254.366976 40.975561 L 254.057441 41.061138 L 253.4445 41.091701 L 252.846882 40.951111 L 252.371852 40.700494 L 251.912146 40.367357 L 251.421793 39.863066 L 251.280817 39.655238 L 251.185811 39.419902 Z M 251.084676 39.147891 " stroke="#02a75b" stroke-width="0.05" stroke-opacity="1" stroke-miterlimit="4"/><path stroke-linecap="round" transform="matrix(1.274592, 0, 0, 1.278095, -282.33909, -6.148021)" fill-opacity="1" fill="#ffffff" fill-rule="nonzero" stroke-linejoin="round" d="M 238.384532 17.903511 L 238.736973 16.687102 L 239.025056 15.871068 L 239.444921 15.030584 L 239.907691 14.168706 L 240.505309 13.331278 L 240.989533 12.710848 L 241.345039 12.313529 L 241.85378 11.760337 L 242.626086 12.182108 L 243.487268 12.799481 L 244.504751 13.572727 L 245.234151 14.345972 L 245.828704 14.966402 L 246.404869 15.782435 L 246.91361 16.488442 L 247.333475 17.218899 L 247.618493 17.924906 L 247.863669 18.698151 L 247.995452 19.450002 L 248.038357 20.290486 L 247.995452 21.063731 L 247.731887 21.836977 L 247.443804 22.610222 L 247.002487 23.340679 L 246.558104 23.890814 L 245.985004 24.578483 L 245.408839 25.153068 L 244.305545 25.947707 C 243.753898 22.338211 243.306451 18.728714 242.537209 15.119217 C 242.813033 18.554504 243.315645 22.295422 243.753898 25.947707 L 243.15628 25.749048 L 242.647539 25.639021 L 242.007015 25.351728 L 241.167286 24.908564 L 240.768874 24.667115 L 240.39498 24.379823 L 239.886238 23.979447 L 239.487827 23.560733 L 239.089415 23.096174 L 238.694068 22.432956 L 238.295656 21.308236 L 238.206779 20.843677 L 238.09645 19.935955 L 238.185326 19.141315 L 238.295656 18.36807 Z M 238.384532 17.903511 " stroke="#ffffff" stroke-width="0.05" stroke-opacity="0.941" stroke-miterlimit="4"/><path stroke-linecap="round" transform="matrix(1.274592, 0, 0, 1.278095, -282.33909, -6.148021)" fill-opacity="1" fill="#ffffff" fill-rule="nonzero" stroke-linejoin="round" d="M 243.554692 29.150716 L 234.936737 28.288837 L 236.836855 28.686157 L 238.605191 28.97345 L 239.975115 29.150716 L 241.875233 29.459402 L 243.42291 29.636668 L 243.003045 30.321281 L 242.494304 31.008949 L 241.85378 31.669111 L 241.256162 32.155064 L 240.569668 32.598228 L 239.797362 32.864127 L 239.113932 32.995548 L 238.185326 32.995548 L 237.36705 32.842733 L 236.548773 32.598228 L 235.399508 32.069487 L 234.185884 31.296242 L 233.278731 30.544391 L 232.595302 29.813934 L 231.887355 28.930662 L 231.446037 28.310232 L 231.069078 27.735646 L 231.620725 27.249694 L 232.506425 26.476448 L 233.100978 26.03634 L 233.698596 25.660415 L 234.869314 25.085829 L 235.666138 24.709904 L 236.594744 24.48985 L 237.719491 24.333978 L 238.648097 24.312584 L 239.509279 24.465399 L 240.23868 24.642665 L 241.078409 25.107223 L 241.829262 25.859075 L 242.537209 26.788191 L 243.134827 27.760097 L 243.398392 28.686157 Z M 243.554692 29.150716 " stroke="#ffffff" stroke-width="0.05" stroke-opacity="0.941" stroke-miterlimit="4"/><path stroke-linecap="round" transform="matrix(1.274592, 0, 0, 1.278095, -282.33909, -6.148021)" fill-opacity="1" fill="#ffffff" fill-rule="nonzero" stroke-linejoin="round" d="M 245.102369 28.863423 L 245.18818 28.136022 L 245.18818 27.515592 L 245.323028 26.962401 L 245.543686 26.146367 L 245.985004 25.21725 L 246.558104 24.379823 L 247.465257 23.539339 L 248.347893 23.07478 L 249.034387 22.808882 L 250.005899 22.677461 L 250.78127 22.588828 L 251.774235 22.610222 L 252.681388 22.677461 L 253.695805 22.854726 L 254.670382 23.142019 L 255.553018 23.4721 L 256.392747 23.780787 L 257.275383 24.333978 L 257.1436 24.929958 L 256.812612 25.681809 L 256.303871 26.898218 L 255.752223 27.781491 L 255.286388 28.398864 L 254.645864 29.285193 L 254.072764 29.945355 C 253.836782 30.205141 253.582411 30.330449 253.233035 30.587179 L 252.436211 31.118976 L 251.731329 31.449057 L 250.977411 31.693562 L 250.205105 31.782195 L 249.276499 31.73635 L 248.415316 31.470451 L 247.376381 31.008949 L 246.472292 30.409913 L 245.696922 29.79254 L 245.29851 29.285193 L 248.792275 27.912912 L 250.536093 27.228299 L 252.681388 26.366421 L 254.403753 25.639021 L 256.591953 24.79548 L 254.471176 25.504543 L 252.546541 26.189156 L 250.977411 26.742347 L 249.497158 27.206905 L 247.796246 27.870124 L 246.735857 28.224655 Z M 245.102369 28.863423 " stroke="#ffffff" stroke-width="0.05" stroke-opacity="0.941" stroke-miterlimit="4"/><path stroke-linecap="round" transform="matrix(1.274592, 0, 0, 1.278095, -282.33909, -6.148021)" fill-opacity="1" fill="#ffffff" fill-rule="nonzero" stroke-linejoin="round" d="M 243.775351 25.926313 L 244.305545 25.947707 L 244.394421 26.43366 L 244.437327 26.852374 L 244.45878 27.472804 L 244.526204 28.224655 L 244.657986 29.040689 L 245.102369 28.820635 L 245.277057 29.260743 L 244.682504 29.526641 L 244.746863 30.122621 L 244.768316 30.587179 L 244.768316 31.580478 L 244.72541 32.222303 L 244.657986 32.7541 L 244.593627 33.304235 L 244.45878 33.946059 L 244.238121 34.69791 L 244.017463 35.29389 L 243.72938 35.868475 L 243.334033 36.574482 L 243.024498 37.106279 L 242.647539 36.950407 L 242.935621 36.553087 L 243.288062 35.91432 L 243.665021 35.073836 L 243.907133 34.343379 L 244.084886 33.814638 L 244.195216 33.282841 L 244.305545 32.7541 C 244.369904 32.243697 244.409745 31.669111 244.415874 30.984499 L 244.394421 30.058438 L 244.284092 29.703907 L 243.444362 29.658062 L 243.576145 29.17211 L 244.216669 29.239348 L 244.063433 28.487497 L 243.974557 27.604225 L 243.953104 27.05409 Z M 243.775351 25.926313 " stroke="#ffffff" stroke-width="0.05" stroke-opacity="0.941" stroke-miterlimit="4"/></svg>