<svg xmlns="http://www.w3.org/2000/svg" xmlns:xlink="http://www.w3.org/1999/xlink" width="600" zoomAndPan="magnify" viewBox="0 0 450 89.999999" height="120" preserveAspectRatio="xMidYMid meet" version="1.0"><defs><g/></defs><rect x="-45" width="540" fill="#ffffff" y="-9" height="107.999999" fill-opacity="1"/><rect x="-45" width="540" fill="#1b1b1b" y="-9" height="107.999999" fill-opacity="1"/><g fill="#ffffff" fill-opacity="1"><g transform="translate(9.000002, 61.383592)"><g><path d="M 11.890625 5.765625 L 9.84375 5.53125 L 6.953125 5.734375 L 6.125 5.5625 L 5.0625 5.703125 L 4.109375 5.734375 L 2.671875 6.03125 L 2.015625 5.921875 L 1.9375 5.59375 L 2.109375 5.109375 C 2.285156 5.109375 2.425781 5.0625 2.53125 4.96875 C 2.644531 4.882812 2.789062 4.675781 2.96875 4.34375 C 3.113281 4.101562 3.207031 3.929688 3.25 3.828125 C 3.300781 3.734375 3.328125 3.628906 3.328125 3.515625 L 3.328125 2.671875 L 3.59375 2.015625 L 3.71875 -1.875 L 4.078125 -2.734375 L 4.28125 -2.703125 L 4.375 -3.03125 L 4.515625 -3.390625 L 4.375 -3.65625 C 4.375 -3.414062 4.265625 -3.285156 4.046875 -3.265625 L 3.890625 -3.6875 L 3.65625 -3.890625 L 3.75 -4.671875 L 3.8125 -6.25 L 4.046875 -7.671875 L 4.28125 -7.671875 L 4.484375 -8.09375 L 4.484375 -8.203125 L 4.140625 -8.234375 L 4.015625 -8.5625 L 3.78125 -8.953125 L 3.8125 -10.40625 L 3.6875 -14.328125 L 3.78125 -14.8125 L 3.625 -15.34375 L 4.015625 -15.46875 L 4.078125 -15.90625 L 4.21875 -16.390625 L 3.859375 -16.859375 L 3.59375 -17.046875 L 3.5625 -17.71875 L 3.421875 -18.890625 C 3.421875 -19.046875 3.519531 -19.222656 3.71875 -19.421875 C 3.613281 -19.597656 3.460938 -19.6875 3.265625 -19.6875 L 3.265625 -20.578125 L 3.5625 -20.875 L 3.484375 -21 C 3.242188 -21.15625 3.125 -21.390625 3.125 -21.703125 L 3.15625 -22.6875 L 3.09375 -24.71875 L 3 -25.484375 C 2.976562 -25.941406 2.945312 -26.226562 2.90625 -26.34375 C 2.875 -26.46875 2.769531 -26.585938 2.59375 -26.703125 L 2.640625 -27.484375 L 2.5625 -27.5625 L 2.34375 -27.484375 L 1.9375 -27.59375 L 1.375 -27.65625 L 1.125 -27.625 L 1.046875 -27.921875 L 1.3125 -28.4375 L 1.71875 -28.515625 C 1.820312 -28.691406 1.914062 -28.8125 2 -28.875 C 2.09375 -28.9375 2.21875 -28.988281 2.375 -29.03125 C 2.519531 -29.28125 2.707031 -29.40625 2.9375 -29.40625 L 3.515625 -29.40625 L 4.3125 -29.5 L 5.984375 -29.359375 L 6.484375 -29.40625 L 6.71875 -29.40625 L 7.015625 -29.328125 L 7.546875 -28.96875 L 7.875 -28.96875 L 8.125 -28.90625 L 9.578125 -29.171875 L 12.015625 -28.578125 L 12.34375 -28.546875 L 12.546875 -28.734375 L 13.0625 -28.671875 L 14.0625 -28.671875 L 14.6875 -28.609375 L 15.28125 -28.640625 L 16.296875 -28.734375 L 16.75 -28.4375 L 17.8125 -28.34375 L 18.015625 -28.671875 L 18.296875 -28.640625 L 20.609375 -28.875 L 22.328125 -28.78125 L 22.90625 -28.9375 L 25.015625 -29.296875 L 26.640625 -29.53125 L 27.265625 -29.328125 L 26.859375 -28.546875 L 25.96875 -28.015625 L 25.484375 -27.625 L 24.6875 -27.21875 L 24.125 -27.296875 L 23.671875 -27.359375 L 23.109375 -27.625 L 21.921875 -27.625 L 20.609375 -27.65625 L 19.6875 -27.5625 L 18.765625 -27.5625 L 17.9375 -27.390625 L 15.28125 -27.59375 L 12.375 -27.328125 L 10.796875 -27.421875 L 10.046875 -27.359375 L 9.15625 -27.5625 L 8.03125 -27.59375 L 7.375 -27.625 L 6.875 -27.515625 L 6.15625 -27.515625 L 5.890625 -27.1875 L 6.125 -26.828125 L 6.15625 -25.84375 L 6.21875 -25.515625 C 6.019531 -25.316406 5.890625 -25.1875 5.828125 -25.125 C 5.765625 -25.070312 5.707031 -25.046875 5.65625 -25.046875 L 5.4375 -25.125 L 5.234375 -24.6875 L 5.328125 -24.421875 L 5.765625 -24.03125 L 6.125 -23.765625 L 5.953125 -23.078125 L 5.953125 -22.84375 L 6.125 -22.390625 L 6.1875 -21.921875 L 6.546875 -21.859375 L 7.671875 -21.765625 L 8.984375 -21.5 L 11.09375 -21.40625 L 12.078125 -21.265625 L 13.890625 -21.359375 L 14.421875 -21.265625 L 15.96875 -21.328125 L 16.71875 -21.234375 L 18.109375 -21.296875 L 19.125 -21.359375 L 19.515625 -21.53125 L 20.609375 -21.46875 L 20.9375 -21.53125 L 21.234375 -21.828125 L 21.53125 -21.859375 L 22.390625 -21.828125 L 23.546875 -22.15625 L 24.03125 -22.21875 L 24.453125 -22.21875 L 24.421875 -21.859375 L 24.328125 -21.4375 L 23.9375 -21.171875 L 23.734375 -20.546875 L 23.40625 -20.34375 L 23.203125 -20.078125 L 22.546875 -19.921875 L 21.140625 -20.109375 L 20.609375 -19.984375 L 19.921875 -20.25 L 19.265625 -20.015625 L 18.9375 -20.015625 L 17.671875 -20.109375 L 16.421875 -20.015625 L 16.03125 -20.140625 L 15.203125 -20.1875 L 14.546875 -20.21875 L 12.90625 -20.015625 L 11.5625 -20.21875 L 10.015625 -20.28125 L 9.015625 -20.28125 L 8.625 -20.3125 L 8.09375 -20.140625 L 7.765625 -20.1875 L 7.5 -20.140625 L 6.65625 -20.109375 L 6.21875 -20.046875 L 6.421875 -19.359375 L 6.484375 -16.921875 L 6.625 -15.765625 L 6.625 -15.40625 L 6.421875 -15.40625 L 6.328125 -15.25 C 5.992188 -15.21875 5.828125 -15.070312 5.828125 -14.8125 L 5.890625 -14.390625 L 6.125 -14.390625 C 6.363281 -14.234375 6.484375 -14.023438 6.484375 -13.765625 L 6.484375 -13.140625 L 6.125 -12.734375 L 6.25 -12.3125 C 6.425781 -11.957031 6.519531 -11.734375 6.53125 -11.640625 C 6.539062 -11.554688 6.546875 -11.460938 6.546875 -11.359375 L 6.515625 -10.734375 C 6.191406 -10.710938 6.03125 -10.566406 6.03125 -10.296875 L 6.625 -9.34375 L 6.515625 -8.828125 L 6.71875 -6.953125 L 6.78125 -6.78125 L 6.65625 -5.859375 L 6.546875 -3.953125 L 6.625 -3.265625 C 6.175781 -3.148438 5.953125 -3.003906 5.953125 -2.828125 L 6.21875 -2.109375 C 6.375 -2.265625 6.484375 -2.34375 6.546875 -2.34375 C 6.660156 -2.34375 6.796875 -2.207031 6.953125 -1.9375 L 6.71875 -1.1875 L 6.78125 -0.921875 L 6.953125 -0.59375 L 6.875 0.75 L 7.078125 2.171875 L 6.75 2.96875 L 6.453125 3.453125 L 6.125 3.5625 L 6.359375 4.078125 L 6.6875 4.28125 L 7.46875 4.109375 L 8.265625 4.140625 L 9.375 4.078125 L 10.46875 4.140625 L 11.453125 4.140625 L 11.8125 4.25 L 12.078125 4.4375 C 12.117188 4.507812 12.1875 4.546875 12.28125 4.546875 C 12.457031 4.546875 12.632812 4.488281 12.8125 4.375 L 13.234375 4.078125 L 13.65625 3.984375 L 14.0625 4.015625 L 14.453125 4.015625 L 16 4.078125 L 17.484375 4.140625 L 25.671875 3.953125 L 26.9375 4.140625 L 27.125 4.78125 L 27.6875 4.8125 L 27.59375 4.703125 L 27.71875 4.1875 L 27.953125 4.078125 L 28.9375 4.140625 L 29.203125 4.140625 L 29.5 3.953125 L 29.921875 3.921875 C 30.117188 3.921875 30.285156 4.019531 30.421875 4.21875 L 31.578125 4.046875 C 31.640625 3.847656 31.726562 3.703125 31.84375 3.609375 C 31.96875 3.523438 32.195312 3.457031 32.53125 3.40625 C 32.875 3.351562 33.398438 3.289062 34.109375 3.21875 L 34.859375 3.0625 L 35.265625 2.796875 L 35.390625 2.765625 C 35.472656 2.765625 35.550781 2.804688 35.625 2.890625 C 35.707031 2.984375 35.75 3.082031 35.75 3.1875 L 35.71875 3.359375 L 35.515625 3.859375 L 35.359375 4.3125 L 35.03125 4.609375 L 34.734375 5.171875 C 34.578125 5.390625 34.28125 5.519531 33.84375 5.5625 L 31.28125 5.703125 L 30.125 5.859375 L 27.65625 5.5625 L 25.515625 5.46875 L 25.015625 5.296875 L 24.828125 5.5625 L 24.5625 5.59375 L 22.28125 5.328125 L 20.25 5.4375 L 18.859375 5.140625 L 18.265625 5.203125 L 17.96875 5.171875 L 17.71875 5.46875 L 17.1875 5.40625 L 15.28125 5.5 L 14.8125 5.4375 L 14.484375 5.359375 L 14.1875 5.5 L 13.828125 5.46875 L 13.109375 5.5 L 12.875 5.328125 L 13.109375 5.203125 L 12.609375 5.140625 L 12.21875 5.265625 L 12.109375 5.59375 Z M 11.890625 5.765625 "/></g></g></g><g fill="#ffffff" fill-opacity="1"><g transform="translate(37.539996, 61.383592)"><g><path d="M 4.578125 -30.90625 L 4.8125 -30.546875 L 4.84375 -29.859375 L 4.96875 -29.40625 L 5 -29.140625 L 5 -28.734375 L 4.90625 -27.5625 L 4.90625 -27.453125 L 4.9375 -26.890625 C 4.9375 -26.691406 4.914062 -26.550781 4.875 -26.46875 L 4.484375 -25.640625 L 4.4375 -25.3125 C 4.664062 -25.289062 4.800781 -25.253906 4.84375 -25.203125 C 4.882812 -25.148438 4.914062 -25 4.9375 -24.75 L 4.9375 -24.390625 C 4.957031 -24.328125 4.921875 -24.238281 4.828125 -24.125 C 4.742188 -24.019531 4.648438 -23.9375 4.546875 -23.875 L 4.546875 -23.46875 L 4.515625 -23.140625 C 4.515625 -23.117188 4.515625 -23.097656 4.515625 -23.078125 C 4.515625 -23.054688 4.515625 -23.035156 4.515625 -23.015625 L 4.8125 -22.546875 L 4.671875 -19.484375 L 4.671875 -17.28125 L 4.25 -16.421875 L 4.484375 -15.203125 L 4.140625 -14.421875 C 4.191406 -14.304688 4.289062 -14.1875 4.4375 -14.0625 L 4.703125 -13.765625 L 4.84375 -8.5625 L 4.4375 -8.09375 C 4.46875 -7.945312 4.484375 -7.816406 4.484375 -7.703125 C 4.484375 -7.597656 4.484375 -7.507812 4.484375 -7.4375 C 4.484375 -7.28125 4.472656 -7.125 4.453125 -6.96875 C 4.441406 -6.820312 4.40625 -6.628906 4.34375 -6.390625 L 4.484375 -6.03125 L 4.9375 -6.03125 L 4.9375 -5.4375 L 5.265625 -2.859375 L 5.203125 -2.015625 L 5.234375 -1.34375 C 5.234375 -1.195312 5.15625 -1.066406 5 -0.953125 L 5.109375 -0.5625 L 4.734375 -0.5 L 3.6875 0.171875 L 3.265625 0.234375 L 2.765625 0.53125 C 2.742188 0.53125 2.707031 0.535156 2.65625 0.546875 C 2.613281 0.554688 2.570312 0.5625 2.53125 0.5625 C 2.332031 0.5625 2.234375 0.492188 2.234375 0.359375 L 2.234375 -0.03125 L 2.140625 -0.75 L 2.375 -2.5 L 2.4375 -4.734375 C 2.4375 -5.046875 2.457031 -5.289062 2.5 -5.46875 C 2.539062 -5.644531 2.640625 -5.851562 2.796875 -6.09375 L 2.59375 -6.578125 C 2.425781 -6.890625 2.34375 -7.085938 2.34375 -7.171875 C 2.34375 -7.367188 2.472656 -7.675781 2.734375 -8.09375 C 2.835938 -8.269531 2.890625 -8.445312 2.890625 -8.625 C 2.890625 -8.78125 2.726562 -8.921875 2.40625 -9.046875 L 2.46875 -9.3125 L 2.34375 -9.375 L 2.34375 -9.875 L 2.59375 -11 L 2.59375 -13.765625 L 2.9375 -15.046875 C 2.9375 -15.222656 2.800781 -15.410156 2.53125 -15.609375 L 2.53125 -16.359375 L 2.46875 -19.265625 C 2.445312 -19.410156 2.585938 -19.769531 2.890625 -20.34375 L 3.125 -20.78125 C 2.726562 -20.945312 2.53125 -21.109375 2.53125 -21.265625 C 2.53125 -21.328125 2.539062 -21.390625 2.5625 -21.453125 C 2.582031 -21.523438 2.609375 -21.671875 2.640625 -21.890625 L 2.296875 -22.1875 L 2.296875 -22.8125 L 2.234375 -23.578125 C 2.234375 -23.617188 2.234375 -23.644531 2.234375 -23.65625 C 2.234375 -23.664062 2.234375 -23.679688 2.234375 -23.703125 L 2.5 -24.53125 L 2.234375 -25.671875 L 2.296875 -26.234375 L 1.96875 -28.109375 L 1.96875 -28.375 L 2.109375 -28.90625 L 2.203125 -29.5625 L 3.65625 -30.359375 L 4.3125 -30.84375 Z M 4.578125 -30.90625 "/></g></g></g><g fill="#ffffff" fill-opacity="1"><g transform="translate(44.781966, 61.383592)"><g/></g></g><g fill="#ffffff" fill-opacity="1"><g transform="translate(52.254379, 61.383592)"><g><path d="M 25.09375 4.640625 L 25.75 4.8125 L 26.015625 4.84375 L 26.375 4.78125 L 26.96875 4.4375 L 28.671875 3.953125 L 28.96875 3.78125 L 29.4375 3.921875 C 29.539062 3.921875 29.691406 3.882812 29.890625 3.8125 C 30.085938 3.75 30.316406 3.675781 30.578125 3.59375 L 31.90625 3.1875 L 32.53125 2.96875 L 33.015625 2.46875 L 33.640625 2.203125 L 34.203125 1.9375 L 34.53125 1.875 L 35.15625 2.046875 L 35.15625 1.84375 L 35.296875 1.421875 C 35.472656 1.242188 35.710938 1.085938 36.015625 0.953125 C 36.328125 0.816406 36.554688 0.75 36.703125 0.75 C 36.921875 0.75 37.03125 0.875 37.03125 1.125 C 37.03125 1.25 37 1.398438 36.9375 1.578125 L 36.40625 2.765625 L 36.28125 3.21875 L 35.921875 3.515625 L 34.4375 3.78125 L 33.9375 4.046875 L 32.390625 4.375 L 31.078125 4.703125 L 29.953125 4.875 L 29 5.203125 L 28.3125 5.203125 L 27.921875 5.234375 L 27.5625 5.140625 C 27.488281 5.441406 27.363281 5.59375 27.1875 5.59375 L 25.90625 5.703125 L 23.109375 6.328125 L 21.65625 6.390625 L 21.234375 6.421875 L 20.875 6.390625 L 20.375 6.71875 L 20.015625 6.6875 L 18.265625 6.65625 L 17.96875 6.421875 L 17.34375 6.359375 L 17.15625 6.328125 L 16.796875 6.625 L 15.96875 6.625 L 15.609375 6.421875 L 15.40625 6.21875 C 15.382812 6.175781 15.269531 6.148438 15.0625 6.140625 C 14.851562 6.128906 14.460938 6.113281 13.890625 6.09375 C 13.453125 6.09375 12.894531 5.90625 12.21875 5.53125 L 11.15625 4.96875 L 10.5625 4.734375 L 8.890625 3.6875 C 8.648438 3.570312 8.492188 3.476562 8.421875 3.40625 C 8.359375 3.332031 8.335938 3.226562 8.359375 3.09375 L 8.75 3.125 L 8.75 2.828125 C 8.75 2.628906 8.578125 2.429688 8.234375 2.234375 C 8.078125 2.410156 7.941406 2.5 7.828125 2.5 L 7.640625 2.46875 L 6.84375 1.875 L 5.921875 1.25 L 5.59375 0.75 L 4.4375 -0.75 C 4.175781 -1.125 3.914062 -1.566406 3.65625 -2.078125 C 3.394531 -2.597656 3.175781 -3.113281 3 -3.625 C 2.820312 -4.144531 2.734375 -4.550781 2.734375 -4.84375 C 2.734375 -4.988281 2.84375 -5.109375 3.0625 -5.203125 L 3.0625 -5.5625 L 2.734375 -5.765625 L 2.640625 -6.390625 L 2.140625 -7.40625 L 2.140625 -8.0625 L 2.078125 -8.828125 L 2.171875 -9.421875 L 2.046875 -9.75 L 1.96875 -10.078125 L 2.015625 -10.34375 L 2.375 -11.15625 L 2.4375 -11.5625 C 2.257812 -11.707031 2.171875 -11.847656 2.171875 -11.984375 L 2.171875 -12.1875 L 2.375 -12.84375 L 2.796875 -14.625 L 3.328125 -14.8125 L 3.515625 -14.8125 L 3.625 -15.109375 C 3.40625 -15.421875 3.296875 -15.660156 3.296875 -15.828125 L 3.359375 -16.203125 L 3.78125 -17.34375 L 4.140625 -18.46875 C 4.316406 -18.925781 4.59375 -19.375 4.96875 -19.8125 L 5.109375 -19.6875 L 5.5625 -19.515625 L 6.25 -19.921875 L 6.25 -20.25 C 5.988281 -20.289062 5.820312 -20.363281 5.75 -20.46875 C 5.6875 -20.582031 5.671875 -20.796875 5.703125 -21.109375 L 5.953125 -21.40625 L 6.84375 -22.515625 L 7.171875 -22.8125 L 7.734375 -23.734375 L 8.421875 -24.265625 L 8.65625 -24.53125 C 8.96875 -24.550781 9.164062 -24.585938 9.25 -24.640625 C 9.332031 -24.691406 9.375 -24.796875 9.375 -24.953125 L 9.375 -25.125 L 9.71875 -25.421875 L 11 -26.40625 L 11.390625 -26.765625 L 11.921875 -27.15625 L 13.53125 -27.984375 L 14.125 -28.3125 L 14.515625 -28.21875 L 14.8125 -28.484375 L 15.078125 -28.84375 L 15.546875 -28.78125 L 15.765625 -28.84375 L 15.765625 -29.0625 L 16.5 -29.40625 L 17.421875 -29.625 L 19.09375 -29.921875 L 19.8125 -30.328125 L 20.484375 -30.359375 L 21.734375 -30.65625 L 22.953125 -30.546875 L 25.71875 -30.578125 C 26.019531 -30.578125 26.300781 -30.4375 26.5625 -30.15625 L 26.9375 -30.1875 L 27.328125 -30.25 L 28.21875 -29.859375 L 29.234375 -29.953125 L 29.953125 -29.765625 L 31.9375 -29.234375 C 32.632812 -29.097656 32.984375 -28.867188 32.984375 -28.546875 L 32.953125 -28.25 L 32.625 -27.984375 L 31.96875 -27.359375 L 31.578125 -27.15625 C 31.484375 -27.15625 31.367188 -27.179688 31.234375 -27.234375 C 31.109375 -27.296875 30.878906 -27.425781 30.546875 -27.625 C 30.085938 -27.863281 29.59375 -28.050781 29.0625 -28.1875 L 28.515625 -28.515625 L 28.515625 -28.375 L 28.34375 -28.40625 L 28.484375 -28.671875 L 28.4375 -28.875 L 28.3125 -28.90625 L 27.484375 -28.734375 L 26.265625 -29.0625 L 25.90625 -29.171875 L 25.9375 -29.40625 L 25.640625 -29.65625 C 25.359375 -29.550781 25.144531 -29.472656 25 -29.421875 C 24.863281 -29.378906 24.738281 -29.359375 24.625 -29.359375 L 22.21875 -29.53125 L 20.546875 -29.140625 L 18.015625 -28.734375 L 15.9375 -27.5625 L 15.171875 -27.265625 L 14.390625 -26.765625 L 13.234375 -25.8125 C 12.679688 -25.59375 12.375 -25.453125 12.3125 -25.390625 C 12.25 -25.335938 12.207031 -25.191406 12.1875 -24.953125 L 11.921875 -24.75 L 11.359375 -24.359375 L 11.125 -24.03125 L 10.4375 -23.578125 L 9.546875 -22.65625 L 9.375 -22.71875 L 9.34375 -22.625 L 9.515625 -22.328125 L 9.3125 -22.03125 L 8.5625 -20.84375 L 7.96875 -20.25 L 7.578125 -19.65625 L 6.71875 -17.453125 L 6.0625 -15.96875 L 5.828125 -14.84375 L 5.65625 -14.328125 C 5.59375 -13.953125 5.535156 -13.726562 5.484375 -13.65625 C 5.429688 -13.59375 5.238281 -13.519531 4.90625 -13.4375 C 4.925781 -13.21875 4.960938 -13.066406 5.015625 -12.984375 C 5.078125 -12.910156 5.179688 -12.828125 5.328125 -12.734375 L 5.140625 -12.3125 L 5.265625 -11 L 5.171875 -9.578125 L 5.328125 -7.609375 L 5.359375 -7.109375 L 5.5 -6.75 L 5.40625 -5.984375 L 5.765625 -5.65625 L 5.890625 -5.328125 L 6.03125 -5.0625 L 6.28125 -3.6875 L 6.578125 -3.328125 L 6.984375 -2.234375 L 7.078125 -1.75 L 7.078125 -1.515625 L 6.6875 -1.453125 L 6.953125 -0.984375 L 7.3125 -0.984375 L 7.609375 -0.796875 L 8 -0.625 L 8.5625 0.171875 L 9.046875 0.5625 L 9.609375 1.1875 L 10.53125 1.78125 L 10.671875 2.234375 L 11 2.5625 L 11.8125 2.9375 L 13.859375 4.046875 L 14.421875 4.21875 L 15.015625 4.640625 L 15.203125 4.9375 L 15.3125 4.875 L 15.765625 4.640625 L 16.234375 4.78125 L 17.28125 5.03125 L 17.75 5.234375 L 20.375 5.265625 L 20.8125 5.53125 C 21.113281 5.53125 21.351562 5.429688 21.53125 5.234375 L 21.921875 5.234375 L 23.90625 5 Z M 25.09375 4.640625 "/></g></g></g><g fill="#ffffff" fill-opacity="1"><g transform="translate(87.312142, 61.383592)"><g><path d="M 6.6875 -13.65625 L 7.171875 -13.765625 L 8.625 -14.21875 L 9.78125 -14.359375 L 10.46875 -14.65625 L 10.796875 -14.6875 C 11.347656 -14.6875 11.8125 -14.390625 12.1875 -13.796875 C 12.40625 -13.816406 12.554688 -13.925781 12.640625 -14.125 L 13.0625 -13.765625 L 13.65625 -13.4375 L 15.015625 -12.109375 C 15.234375 -11.804688 15.398438 -11.554688 15.515625 -11.359375 C 15.640625 -11.160156 15.75 -10.929688 15.84375 -10.671875 C 15.945312 -10.421875 16.078125 -10.054688 16.234375 -9.578125 L 16.359375 -9.1875 L 16.203125 -9.125 L 15.578125 -9.25 L 14.875 -9.015625 L 14.359375 -9.125 L 13.765625 -8.953125 L 12.640625 -9.09375 L 11.5625 -9.015625 L 10.4375 -9.21875 L 8.59375 -9.1875 L 7.703125 -9.21875 L 5.53125 -8.921875 L 4.734375 -8.953125 L 3.65625 -8.625 L 3.265625 -8.5625 L 3.1875 -8.171875 C 3.164062 -7.898438 3.128906 -7.71875 3.078125 -7.625 C 3.023438 -7.539062 2.910156 -7.425781 2.734375 -7.28125 L 2.765625 -6.984375 C 2.984375 -6.828125 3.125 -6.710938 3.1875 -6.640625 C 3.257812 -6.578125 3.304688 -6.523438 3.328125 -6.484375 L 3.75 -4.84375 L 3.953125 -4.4375 C 3.835938 -4.332031 3.78125 -4.234375 3.78125 -4.140625 C 3.78125 -4.140625 3.78125 -4.132812 3.78125 -4.125 C 3.78125 -4.113281 3.789062 -4.097656 3.8125 -4.078125 L 4.4375 -3.890625 L 4.578125 -3.484375 C 4.640625 -3.265625 4.707031 -3.101562 4.78125 -3 C 4.863281 -2.90625 4.9375 -2.835938 5 -2.796875 L 5.859375 -2.4375 L 6.15625 -1.8125 C 6.21875 -1.789062 6.289062 -1.769531 6.375 -1.75 C 6.46875 -1.726562 6.632812 -1.691406 6.875 -1.640625 L 7.109375 -1.21875 L 7.609375 -1.15625 L 8.984375 -0.65625 L 10.140625 -0.890625 L 13.203125 -1.375 L 13.859375 -1.78125 L 14.875 -2.40625 L 15.734375 -3.515625 C 15.867188 -3.691406 16.046875 -3.78125 16.265625 -3.78125 C 16.640625 -3.78125 16.828125 -3.617188 16.828125 -3.296875 C 16.828125 -3.140625 16.800781 -3.019531 16.75 -2.9375 L 16.421875 -2.375 L 15.671875 -1.046875 L 14.984375 -1.015625 L 14.546875 -0.65625 C 14.460938 -0.570312 14.300781 -0.503906 14.0625 -0.453125 L 11.15625 0.09375 L 10.703125 0.265625 L 9.671875 0.171875 L 8.203125 0.296875 L 6.515625 0.203125 L 6.0625 0.203125 C 5.84375 0.0234375 5.695312 -0.0820312 5.625 -0.125 L 4.046875 -0.6875 L 3.515625 -1.1875 L 2.46875 -1.90625 L 1.640625 -3.03125 L 1.3125 -3.296875 C 1.445312 -3.554688 1.515625 -3.785156 1.515625 -3.984375 C 1.515625 -4.066406 1.492188 -4.132812 1.453125 -4.1875 L 1.015625 -4.875 L 0.921875 -5.796875 L 0.890625 -6.515625 C 0.867188 -6.691406 0.921875 -7.019531 1.046875 -7.5 C 1.140625 -7.789062 1.222656 -8.039062 1.296875 -8.25 C 1.378906 -8.457031 1.453125 -8.59375 1.515625 -8.65625 L 2.109375 -9.421875 L 2.40625 -10.109375 L 3.15625 -10.828125 L 3.984375 -11.921875 L 4.703125 -12.3125 L 5.765625 -13.03125 L 6.453125 -13.5 Z M 7.25 -10.640625 L 7.609375 -10.5625 L 8.5625 -10.375 L 8.59375 -10.375 L 9.671875 -10.5625 L 10.015625 -10.640625 L 10.265625 -10.265625 L 10.640625 -10.265625 L 12.046875 -10.5625 L 12.640625 -10.5 C 12.898438 -10.539062 13.03125 -10.660156 13.03125 -10.859375 C 13.03125 -10.972656 12.972656 -11.117188 12.859375 -11.296875 C 12.753906 -11.472656 12.613281 -11.691406 12.4375 -11.953125 L 11.328125 -12.734375 L 10.96875 -13.140625 L 10.4375 -13.171875 L 9.21875 -13.265625 L 8.921875 -13.203125 L 8.234375 -12.8125 L 7.34375 -12.609375 L 6.21875 -12.1875 L 5.796875 -12.015625 L 5.265625 -11.265625 C 5.128906 -11.171875 5.019531 -11.082031 4.9375 -11 C 4.851562 -10.925781 4.785156 -10.867188 4.734375 -10.828125 L 4.671875 -10.640625 L 6.65625 -10.5 L 6.875 -10.53125 Z M 7.25 -10.640625 "/></g></g></g><g fill="#ffffff" fill-opacity="1"><g transform="translate(104.791661, 61.383592)"><g><path d="M 4.578125 -30.90625 L 4.8125 -30.546875 L 4.84375 -29.859375 L 4.96875 -29.40625 L 5 -29.140625 L 5 -28.734375 L 4.90625 -27.5625 L 4.90625 -27.453125 L 4.9375 -26.890625 C 4.9375 -26.691406 4.914062 -26.550781 4.875 -26.46875 L 4.484375 -25.640625 L 4.4375 -25.3125 C 4.664062 -25.289062 4.800781 -25.253906 4.84375 -25.203125 C 4.882812 -25.148438 4.914062 -25 4.9375 -24.75 L 4.9375 -24.390625 C 4.957031 -24.328125 4.921875 -24.238281 4.828125 -24.125 C 4.742188 -24.019531 4.648438 -23.9375 4.546875 -23.875 L 4.546875 -23.46875 L 4.515625 -23.140625 C 4.515625 -23.117188 4.515625 -23.097656 4.515625 -23.078125 C 4.515625 -23.054688 4.515625 -23.035156 4.515625 -23.015625 L 4.8125 -22.546875 L 4.671875 -19.484375 L 4.671875 -17.28125 L 4.25 -16.421875 L 4.484375 -15.203125 L 4.140625 -14.421875 C 4.191406 -14.304688 4.289062 -14.1875 4.4375 -14.0625 L 4.703125 -13.765625 L 4.84375 -8.5625 L 4.4375 -8.09375 C 4.46875 -7.945312 4.484375 -7.816406 4.484375 -7.703125 C 4.484375 -7.597656 4.484375 -7.507812 4.484375 -7.4375 C 4.484375 -7.28125 4.472656 -7.125 4.453125 -6.96875 C 4.441406 -6.820312 4.40625 -6.628906 4.34375 -6.390625 L 4.484375 -6.03125 L 4.9375 -6.03125 L 4.9375 -5.4375 L 5.265625 -2.859375 L 5.203125 -2.015625 L 5.234375 -1.34375 C 5.234375 -1.195312 5.15625 -1.066406 5 -0.953125 L 5.109375 -0.5625 L 4.734375 -0.5 L 3.6875 0.171875 L 3.265625 0.234375 L 2.765625 0.53125 C 2.742188 0.53125 2.707031 0.535156 2.65625 0.546875 C 2.613281 0.554688 2.570312 0.5625 2.53125 0.5625 C 2.332031 0.5625 2.234375 0.492188 2.234375 0.359375 L 2.234375 -0.03125 L 2.140625 -0.75 L 2.375 -2.5 L 2.4375 -4.734375 C 2.4375 -5.046875 2.457031 -5.289062 2.5 -5.46875 C 2.539062 -5.644531 2.640625 -5.851562 2.796875 -6.09375 L 2.59375 -6.578125 C 2.425781 -6.890625 2.34375 -7.085938 2.34375 -7.171875 C 2.34375 -7.367188 2.472656 -7.675781 2.734375 -8.09375 C 2.835938 -8.269531 2.890625 -8.445312 2.890625 -8.625 C 2.890625 -8.78125 2.726562 -8.921875 2.40625 -9.046875 L 2.46875 -9.3125 L 2.34375 -9.375 L 2.34375 -9.875 L 2.59375 -11 L 2.59375 -13.765625 L 2.9375 -15.046875 C 2.9375 -15.222656 2.800781 -15.410156 2.53125 -15.609375 L 2.53125 -16.359375 L 2.46875 -19.265625 C 2.445312 -19.410156 2.585938 -19.769531 2.890625 -20.34375 L 3.125 -20.78125 C 2.726562 -20.945312 2.53125 -21.109375 2.53125 -21.265625 C 2.53125 -21.328125 2.539062 -21.390625 2.5625 -21.453125 C 2.582031 -21.523438 2.609375 -21.671875 2.640625 -21.890625 L 2.296875 -22.1875 L 2.296875 -22.8125 L 2.234375 -23.578125 C 2.234375 -23.617188 2.234375 -23.644531 2.234375 -23.65625 C 2.234375 -23.664062 2.234375 -23.679688 2.234375 -23.703125 L 2.5 -24.53125 L 2.234375 -25.671875 L 2.296875 -26.234375 L 1.96875 -28.109375 L 1.96875 -28.375 L 2.109375 -28.90625 L 2.203125 -29.5625 L 3.65625 -30.359375 L 4.3125 -30.84375 Z M 4.578125 -30.90625 "/></g></g></g><g fill="#ffffff" fill-opacity="1"><g transform="translate(112.033632, 61.383592)"><g><path d="M 4.578125 -30.90625 L 4.8125 -30.546875 L 4.84375 -29.859375 L 4.96875 -29.40625 L 5 -29.140625 L 5 -28.734375 L 4.90625 -27.5625 L 4.90625 -27.453125 L 4.9375 -26.890625 C 4.9375 -26.691406 4.914062 -26.550781 4.875 -26.46875 L 4.484375 -25.640625 L 4.4375 -25.3125 C 4.664062 -25.289062 4.800781 -25.253906 4.84375 -25.203125 C 4.882812 -25.148438 4.914062 -25 4.9375 -24.75 L 4.9375 -24.390625 C 4.957031 -24.328125 4.921875 -24.238281 4.828125 -24.125 C 4.742188 -24.019531 4.648438 -23.9375 4.546875 -23.875 L 4.546875 -23.46875 L 4.515625 -23.140625 C 4.515625 -23.117188 4.515625 -23.097656 4.515625 -23.078125 C 4.515625 -23.054688 4.515625 -23.035156 4.515625 -23.015625 L 4.8125 -22.546875 L 4.671875 -19.484375 L 4.671875 -17.28125 L 4.25 -16.421875 L 4.484375 -15.203125 L 4.140625 -14.421875 C 4.191406 -14.304688 4.289062 -14.1875 4.4375 -14.0625 L 4.703125 -13.765625 L 4.84375 -8.5625 L 4.4375 -8.09375 C 4.46875 -7.945312 4.484375 -7.816406 4.484375 -7.703125 C 4.484375 -7.597656 4.484375 -7.507812 4.484375 -7.4375 C 4.484375 -7.28125 4.472656 -7.125 4.453125 -6.96875 C 4.441406 -6.820312 4.40625 -6.628906 4.34375 -6.390625 L 4.484375 -6.03125 L 4.9375 -6.03125 L 4.9375 -5.4375 L 5.265625 -2.859375 L 5.203125 -2.015625 L 5.234375 -1.34375 C 5.234375 -1.195312 5.15625 -1.066406 5 -0.953125 L 5.109375 -0.5625 L 4.734375 -0.5 L 3.6875 0.171875 L 3.265625 0.234375 L 2.765625 0.53125 C 2.742188 0.53125 2.707031 0.535156 2.65625 0.546875 C 2.613281 0.554688 2.570312 0.5625 2.53125 0.5625 C 2.332031 0.5625 2.234375 0.492188 2.234375 0.359375 L 2.234375 -0.03125 L 2.140625 -0.75 L 2.375 -2.5 L 2.4375 -4.734375 C 2.4375 -5.046875 2.457031 -5.289062 2.5 -5.46875 C 2.539062 -5.644531 2.640625 -5.851562 2.796875 -6.09375 L 2.59375 -6.578125 C 2.425781 -6.890625 2.34375 -7.085938 2.34375 -7.171875 C 2.34375 -7.367188 2.472656 -7.675781 2.734375 -8.09375 C 2.835938 -8.269531 2.890625 -8.445312 2.890625 -8.625 C 2.890625 -8.78125 2.726562 -8.921875 2.40625 -9.046875 L 2.46875 -9.3125 L 2.34375 -9.375 L 2.34375 -9.875 L 2.59375 -11 L 2.59375 -13.765625 L 2.9375 -15.046875 C 2.9375 -15.222656 2.800781 -15.410156 2.53125 -15.609375 L 2.53125 -16.359375 L 2.46875 -19.265625 C 2.445312 -19.410156 2.585938 -19.769531 2.890625 -20.34375 L 3.125 -20.78125 C 2.726562 -20.945312 2.53125 -21.109375 2.53125 -21.265625 C 2.53125 -21.328125 2.539062 -21.390625 2.5625 -21.453125 C 2.582031 -21.523438 2.609375 -21.671875 2.640625 -21.890625 L 2.296875 -22.1875 L 2.296875 -22.8125 L 2.234375 -23.578125 C 2.234375 -23.617188 2.234375 -23.644531 2.234375 -23.65625 C 2.234375 -23.664062 2.234375 -23.679688 2.234375 -23.703125 L 2.5 -24.53125 L 2.234375 -25.671875 L 2.296875 -26.234375 L 1.96875 -28.109375 L 1.96875 -28.375 L 2.109375 -28.90625 L 2.203125 -29.5625 L 3.65625 -30.359375 L 4.3125 -30.84375 Z M 4.578125 -30.90625 "/></g></g></g><g fill="#ffffff" fill-opacity="1"><g transform="translate(119.275603, 61.383592)"><g><path d="M 6.6875 -13.65625 L 7.171875 -13.765625 L 8.625 -14.21875 L 9.78125 -14.359375 L 10.46875 -14.65625 L 10.796875 -14.6875 C 11.347656 -14.6875 11.8125 -14.390625 12.1875 -13.796875 C 12.40625 -13.816406 12.554688 -13.925781 12.640625 -14.125 L 13.0625 -13.765625 L 13.65625 -13.4375 L 15.015625 -12.109375 C 15.234375 -11.804688 15.398438 -11.554688 15.515625 -11.359375 C 15.640625 -11.160156 15.75 -10.929688 15.84375 -10.671875 C 15.945312 -10.421875 16.078125 -10.054688 16.234375 -9.578125 L 16.359375 -9.1875 L 16.203125 -9.125 L 15.578125 -9.25 L 14.875 -9.015625 L 14.359375 -9.125 L 13.765625 -8.953125 L 12.640625 -9.09375 L 11.5625 -9.015625 L 10.4375 -9.21875 L 8.59375 -9.1875 L 7.703125 -9.21875 L 5.53125 -8.921875 L 4.734375 -8.953125 L 3.65625 -8.625 L 3.265625 -8.5625 L 3.1875 -8.171875 C 3.164062 -7.898438 3.128906 -7.71875 3.078125 -7.625 C 3.023438 -7.539062 2.910156 -7.425781 2.734375 -7.28125 L 2.765625 -6.984375 C 2.984375 -6.828125 3.125 -6.710938 3.1875 -6.640625 C 3.257812 -6.578125 3.304688 -6.523438 3.328125 -6.484375 L 3.75 -4.84375 L 3.953125 -4.4375 C 3.835938 -4.332031 3.78125 -4.234375 3.78125 -4.140625 C 3.78125 -4.140625 3.78125 -4.132812 3.78125 -4.125 C 3.78125 -4.113281 3.789062 -4.097656 3.8125 -4.078125 L 4.4375 -3.890625 L 4.578125 -3.484375 C 4.640625 -3.265625 4.707031 -3.101562 4.78125 -3 C 4.863281 -2.90625 4.9375 -2.835938 5 -2.796875 L 5.859375 -2.4375 L 6.15625 -1.8125 C 6.21875 -1.789062 6.289062 -1.769531 6.375 -1.75 C 6.46875 -1.726562 6.632812 -1.691406 6.875 -1.640625 L 7.109375 -1.21875 L 7.609375 -1.15625 L 8.984375 -0.65625 L 10.140625 -0.890625 L 13.203125 -1.375 L 13.859375 -1.78125 L 14.875 -2.40625 L 15.734375 -3.515625 C 15.867188 -3.691406 16.046875 -3.78125 16.265625 -3.78125 C 16.640625 -3.78125 16.828125 -3.617188 16.828125 -3.296875 C 16.828125 -3.140625 16.800781 -3.019531 16.75 -2.9375 L 16.421875 -2.375 L 15.671875 -1.046875 L 14.984375 -1.015625 L 14.546875 -0.65625 C 14.460938 -0.570312 14.300781 -0.503906 14.0625 -0.453125 L 11.15625 0.09375 L 10.703125 0.265625 L 9.671875 0.171875 L 8.203125 0.296875 L 6.515625 0.203125 L 6.0625 0.203125 C 5.84375 0.0234375 5.695312 -0.0820312 5.625 -0.125 L 4.046875 -0.6875 L 3.515625 -1.1875 L 2.46875 -1.90625 L 1.640625 -3.03125 L 1.3125 -3.296875 C 1.445312 -3.554688 1.515625 -3.785156 1.515625 -3.984375 C 1.515625 -4.066406 1.492188 -4.132812 1.453125 -4.1875 L 1.015625 -4.875 L 0.921875 -5.796875 L 0.890625 -6.515625 C 0.867188 -6.691406 0.921875 -7.019531 1.046875 -7.5 C 1.140625 -7.789062 1.222656 -8.039062 1.296875 -8.25 C 1.378906 -8.457031 1.453125 -8.59375 1.515625 -8.65625 L 2.109375 -9.421875 L 2.40625 -10.109375 L 3.15625 -10.828125 L 3.984375 -11.921875 L 4.703125 -12.3125 L 5.765625 -13.03125 L 6.453125 -13.5 Z M 7.25 -10.640625 L 7.609375 -10.5625 L 8.5625 -10.375 L 8.59375 -10.375 L 9.671875 -10.5625 L 10.015625 -10.640625 L 10.265625 -10.265625 L 10.640625 -10.265625 L 12.046875 -10.5625 L 12.640625 -10.5 C 12.898438 -10.539062 13.03125 -10.660156 13.03125 -10.859375 C 13.03125 -10.972656 12.972656 -11.117188 12.859375 -11.296875 C 12.753906 -11.472656 12.613281 -11.691406 12.4375 -11.953125 L 11.328125 -12.734375 L 10.96875 -13.140625 L 10.4375 -13.171875 L 9.21875 -13.265625 L 8.921875 -13.203125 L 8.234375 -12.8125 L 7.34375 -12.609375 L 6.21875 -12.1875 L 5.796875 -12.015625 L 5.265625 -11.265625 C 5.128906 -11.171875 5.019531 -11.082031 4.9375 -11 C 4.851562 -10.925781 4.785156 -10.867188 4.734375 -10.828125 L 4.671875 -10.640625 L 6.65625 -10.5 L 6.875 -10.53125 Z M 7.25 -10.640625 "/></g></g></g><g fill="#ffffff" fill-opacity="1"><g transform="translate(136.755122, 61.383592)"><g><path d="M 1.75 -12.78125 C 1.789062 -13.019531 1.851562 -13.207031 1.9375 -13.34375 C 2.03125 -13.488281 2.140625 -13.628906 2.265625 -13.765625 L 3.265625 -14.28125 L 3.859375 -14.6875 C 4.160156 -14.59375 4.363281 -14.484375 4.46875 -14.359375 C 4.582031 -14.242188 4.640625 -14.054688 4.640625 -13.796875 C 4.640625 -13.773438 4.640625 -13.757812 4.640625 -13.75 C 4.640625 -13.738281 4.640625 -13.722656 4.640625 -13.703125 L 4.640625 -13.265625 C 4.640625 -12.867188 4.726562 -12.671875 4.90625 -12.671875 C 4.925781 -12.671875 4.941406 -12.671875 4.953125 -12.671875 C 4.960938 -12.671875 4.96875 -12.671875 4.96875 -12.671875 L 5.796875 -13.109375 L 6.578125 -13.40625 L 7.96875 -14.15625 L 8.421875 -14.359375 L 8.796875 -14.25 L 9.515625 -14.484375 C 9.953125 -14.617188 10.269531 -14.6875 10.46875 -14.6875 L 11.15625 -14.625 C 11.351562 -14.3125 11.53125 -14.15625 11.6875 -14.15625 C 11.707031 -14.15625 11.722656 -14.160156 11.734375 -14.171875 C 11.742188 -14.179688 11.757812 -14.1875 11.78125 -14.1875 L 12.140625 -14.390625 C 12.234375 -14.429688 12.300781 -14.453125 12.34375 -14.453125 C 12.601562 -14.453125 12.859375 -14.3125 13.109375 -14.03125 C 13.273438 -13.8125 13.359375 -13.625 13.359375 -13.46875 C 13.359375 -13.425781 13.335938 -13.378906 13.296875 -13.328125 L 12.375 -12.609375 L 11.890625 -12.078125 L 11.59375 -11.984375 L 11.15625 -12.25 L 10.859375 -12.546875 L 9.90625 -12.578125 L 8.984375 -12.9375 L 8.625 -13.03125 C 8.488281 -12.8125 8.34375 -12.671875 8.1875 -12.609375 C 8.039062 -12.546875 7.738281 -12.515625 7.28125 -12.515625 L 6.75 -12.28125 L 6.359375 -12.40625 L 6.03125 -12.140625 L 4.734375 -11.15625 C 4.535156 -10.894531 4.414062 -10.378906 4.375 -9.609375 L 4.34375 -8.390625 L 3.984375 -8.171875 C 4.117188 -7.941406 4.207031 -7.765625 4.25 -7.640625 C 4.289062 -7.523438 4.3125 -7.347656 4.3125 -7.109375 L 4.546875 -7.109375 L 4.578125 -6.65625 L 4.640625 -4.578125 L 4.671875 -3.484375 L 4.609375 -2.5 C 4.273438 -2.320312 4.109375 -2.171875 4.109375 -2.046875 C 4.109375 -2.023438 4.125 -1.984375 4.15625 -1.921875 C 4.195312 -1.867188 4.226562 -1.8125 4.25 -1.75 L 4.671875 -1.84375 L 4.640625 -1.71875 L 4.78125 -1.046875 C 4.78125 -1.023438 4.78125 -1.015625 4.78125 -1.015625 C 4.78125 -1.015625 4.78125 -1.003906 4.78125 -0.984375 C 4.78125 -0.828125 4.691406 -0.660156 4.515625 -0.484375 C 4.335938 -0.316406 4.160156 -0.222656 3.984375 -0.203125 L 3.359375 -0.125 L 2.40625 0.359375 L 2.015625 0.125 L 2.078125 -0.203125 L 2.296875 -1.125 L 2.203125 -2.375 L 2.296875 -2.53125 L 2.640625 -2.53125 L 2.640625 -2.734375 L 2.59375 -3.03125 L 2.40625 -3.484375 L 2.375 -4.140625 L 2.234375 -4.703125 C 2.234375 -4.722656 2.234375 -4.734375 2.234375 -4.734375 L 2.234375 -5.171875 L 2.265625 -5.703125 C 2.359375 -5.804688 2.441406 -5.898438 2.515625 -5.984375 C 2.597656 -6.078125 2.710938 -6.265625 2.859375 -6.546875 L 3.03125 -6.953125 L 3 -7.109375 C 2.78125 -7.085938 2.59375 -7.113281 2.4375 -7.1875 C 2.28125 -7.269531 2.210938 -7.351562 2.234375 -7.4375 L 2.296875 -8.65625 L 2.203125 -9.875 C 2.242188 -9.988281 2.3125 -10.085938 2.40625 -10.171875 L 2.40625 -10.640625 L 2.203125 -10.828125 L 2.140625 -11.21875 L 2.109375 -12.078125 Z M 1.75 -12.78125 "/></g></g></g><g fill="#ffffff" fill-opacity="1"><g transform="translate(149.461518, 61.383592)"><g/></g></g><g fill="#ffffff" fill-opacity="1"><g transform="translate(156.93393, 61.383592)"><g><path d="M 1.09375 -6.359375 L 1.046875 -6.6875 L 1.25 -7.078125 L 2.265625 -9.421875 C 2.316406 -9.523438 2.398438 -9.632812 2.515625 -9.75 C 2.640625 -9.875 2.765625 -9.9375 2.890625 -9.9375 C 2.890625 -9.9375 2.90625 -9.9375 2.9375 -9.9375 L 3.453125 -9.90625 L 3.65625 -11.265625 L 4.28125 -11.75 L 4.9375 -12.515625 L 5.40625 -12.8125 L 5.703125 -13.0625 C 5.742188 -13.09375 5.789062 -13.117188 5.84375 -13.140625 C 5.894531 -13.160156 5.957031 -13.179688 6.03125 -13.203125 C 6.113281 -13.179688 6.1875 -13.171875 6.25 -13.171875 C 6.320312 -13.171875 6.367188 -13.171875 6.390625 -13.171875 C 6.585938 -13.148438 6.722656 -13.117188 6.796875 -13.078125 C 6.867188 -13.046875 6.953125 -12.957031 7.046875 -12.8125 C 7.148438 -12.976562 7.257812 -13.09375 7.375 -13.15625 C 7.488281 -13.226562 7.65625 -13.296875 7.875 -13.359375 L 7.828125 -13.859375 L 8.296875 -14.0625 C 8.554688 -14.125 8.789062 -14.191406 9 -14.265625 C 9.207031 -14.347656 9.378906 -14.398438 9.515625 -14.421875 L 10.078125 -14.390625 L 10.828125 -14.65625 L 11.1875 -14.421875 C 11.238281 -14.398438 11.285156 -14.378906 11.328125 -14.359375 C 11.367188 -14.335938 11.429688 -14.300781 11.515625 -14.25 L 11.59375 -14.09375 C 11.71875 -14 11.789062 -13.953125 11.8125 -13.953125 C 11.90625 -13.953125 12.03125 -14.109375 12.1875 -14.421875 L 13.03125 -14.21875 C 13.664062 -14.0625 14.066406 -13.945312 14.234375 -13.875 C 14.398438 -13.800781 14.550781 -13.675781 14.6875 -13.5 L 15.640625 -13.53125 L 15.5 -13.859375 L 15.34375 -14.125 L 15.25 -15.28125 L 15.140625 -15.609375 L 15.28125 -16.421875 L 15.140625 -18.671875 L 15.171875 -18.890625 L 15.703125 -19.09375 L 15.46875 -19.421875 L 15.40625 -19.859375 L 15.171875 -20.578125 C 15.085938 -20.773438 15.046875 -21.035156 15.046875 -21.359375 L 15.046875 -21.5625 L 15.203125 -23.828125 L 15.078125 -24.859375 L 15.171875 -25.28125 C 15.367188 -25.320312 15.476562 -25.429688 15.5 -25.609375 L 15.3125 -25.8125 C 15.070312 -25.832031 14.863281 -25.910156 14.6875 -26.046875 L 14.6875 -26.4375 L 14.546875 -27.421875 L 14.484375 -28.515625 C 14.460938 -28.734375 14.34375 -28.914062 14.125 -29.0625 C 14.207031 -29.4375 14.382812 -29.660156 14.65625 -29.734375 L 15.640625 -29.921875 L 16.296875 -30.359375 L 17.015625 -30.515625 L 17.375 -30.625 C 17.601562 -30.375 17.71875 -30.097656 17.71875 -29.796875 L 17.671875 -29.40625 L 17.515625 -28.546875 L 17.546875 -28.078125 L 17.484375 -26.671875 L 17.484375 -25.484375 L 17.28125 -24.796875 L 17.3125 -23.3125 C 17.269531 -23.15625 17.140625 -22.9375 16.921875 -22.65625 L 17.421875 -21.296875 L 17.3125 -20.9375 L 17.3125 -20.1875 L 17.1875 -19.859375 L 17.3125 -18.765625 C 17.3125 -18.609375 17.269531 -18.410156 17.1875 -18.171875 L 16.828125 -18.171875 C 16.734375 -17.816406 16.6875 -17.578125 16.6875 -17.453125 C 16.6875 -17.378906 16.695312 -17.332031 16.71875 -17.3125 L 17.28125 -16.53125 L 17.25 -15.375 L 17.34375 -14.03125 L 17.28125 -13.46875 L 17.25 -13.234375 L 17.28125 -12.90625 L 17.046875 -12.640625 L 17.15625 -11.125 L 17.125 -10.046875 L 17.25 -9.015625 L 17.25 -8.328125 L 17.34375 -7.546875 L 17.34375 -6.28125 L 17.578125 -5.03125 L 17.609375 -4.015625 L 17.8125 -3.296875 L 17.84375 -2.640625 L 17.84375 -2.140625 C 17.976562 -2.023438 18.078125 -1.785156 18.140625 -1.421875 C 18.203125 -1.066406 18.234375 -0.789062 18.234375 -0.59375 L 18.203125 -0.265625 L 17.875 -0.171875 L 16.796875 0.03125 L 15.609375 0.125 C 15.535156 -0.351562 15.46875 -0.644531 15.40625 -0.75 C 15.34375 -0.863281 15.265625 -0.941406 15.171875 -0.984375 C 15.023438 -0.859375 14.847656 -0.757812 14.640625 -0.6875 C 14.429688 -0.625 14.238281 -0.535156 14.0625 -0.421875 C 13.53125 -0.160156 12.851562 0.0351562 12.03125 0.171875 C 11.207031 0.316406 10.375 0.410156 9.53125 0.453125 C 8.6875 0.503906 7.945312 0.53125 7.3125 0.53125 C 6.695312 0.53125 6.238281 0.46875 5.9375 0.34375 C 5.644531 0.226562 5.429688 0.0234375 5.296875 -0.265625 C 5.117188 -0.242188 4.96875 -0.15625 4.84375 0 L 4.34375 -0.171875 C 4.320312 -0.390625 4.273438 -0.535156 4.203125 -0.609375 C 4.140625 -0.679688 4.007812 -0.765625 3.8125 -0.859375 L 3.625 -0.65625 C 3.269531 -0.75 3 -0.863281 2.8125 -1 C 2.625 -1.144531 2.332031 -1.4375 1.9375 -1.875 C 1.988281 -1.96875 2.015625 -2.046875 2.015625 -2.109375 C 2.015625 -2.171875 2.015625 -2.222656 2.015625 -2.265625 C 2.015625 -2.535156 1.898438 -2.757812 1.671875 -2.9375 L 1.21875 -3.359375 L 1.15625 -3.6875 L 0.890625 -4.90625 L 0.890625 -5.171875 C 0.890625 -5.367188 0.898438 -5.546875 0.921875 -5.703125 C 0.941406 -5.867188 1 -6.085938 1.09375 -6.359375 Z M 3.921875 -3.65625 L 4.3125 -3.484375 C 4.550781 -3.140625 4.863281 -2.789062 5.25 -2.4375 C 5.632812 -2.082031 5.992188 -1.828125 6.328125 -1.671875 L 7.046875 -1.34375 L 7.28125 -1.21875 L 7.765625 -1.15625 L 8.171875 -1.15625 L 9.09375 -0.828125 L 10.109375 -0.828125 L 11.71875 -0.890625 C 12.09375 -0.929688 12.535156 -1.03125 13.046875 -1.1875 C 13.566406 -1.34375 13.90625 -1.460938 14.0625 -1.546875 L 14.78125 -2.171875 L 15.140625 -2.59375 L 14.984375 -3.03125 L 15.078125 -3.453125 L 15.109375 -3.921875 L 15.078125 -4.578125 L 15.015625 -5.296875 L 15.046875 -5.40625 L 15.078125 -5.921875 L 14.953125 -6.65625 C 14.921875 -6.675781 14.90625 -6.691406 14.90625 -6.703125 C 14.90625 -6.710938 14.90625 -6.71875 14.90625 -6.71875 C 14.90625 -6.976562 15.148438 -7.140625 15.640625 -7.203125 L 15.46875 -8.234375 C 15.207031 -8.335938 15.078125 -8.46875 15.078125 -8.625 C 15.078125 -8.644531 15.078125 -8.65625 15.078125 -8.65625 C 15.078125 -8.65625 15.078125 -8.664062 15.078125 -8.6875 L 15.203125 -9.375 L 15.109375 -10.640625 L 15.109375 -10.96875 L 14.953125 -11.328125 L 14.984375 -11.71875 C 14.984375 -11.875 14.914062 -11.953125 14.78125 -11.953125 C 14.738281 -11.953125 14.707031 -11.972656 14.6875 -12.015625 L 14.03125 -11.890625 L 13.859375 -11.859375 L 13.625 -11.890625 L 10.640625 -12.609375 L 9.546875 -12.640625 L 9.21875 -12.640625 C 9.101562 -12.640625 9.035156 -12.628906 9.015625 -12.609375 L 8.453125 -12.375 L 7.734375 -12.375 L 6.78125 -11.75 L 6.125 -11.65625 L 5.65625 -11.328125 L 5 -10.734375 C 4.757812 -10.492188 4.609375 -10.265625 4.546875 -10.046875 L 4.484375 -9.640625 L 3.859375 -8.984375 L 3.1875 -8 C 3.082031 -7.757812 3.015625 -7.585938 2.984375 -7.484375 C 2.953125 -7.390625 2.9375 -7.265625 2.9375 -7.109375 C 2.9375 -6.867188 2.976562 -6.660156 3.0625 -6.484375 L 3.15625 -6.1875 L 3.515625 -4.875 L 3.890625 -4.21875 L 3.921875 -3.859375 Z M 3.921875 -3.65625 "/></g></g></g><g fill="#ffffff" fill-opacity="1"><g transform="translate(176.882297, 61.383592)"><g><path d="M 6.6875 -13.65625 L 7.171875 -13.765625 L 8.625 -14.21875 L 9.78125 -14.359375 L 10.46875 -14.65625 L 10.796875 -14.6875 C 11.347656 -14.6875 11.8125 -14.390625 12.1875 -13.796875 C 12.40625 -13.816406 12.554688 -13.925781 12.640625 -14.125 L 13.0625 -13.765625 L 13.65625 -13.4375 L 15.015625 -12.109375 C 15.234375 -11.804688 15.398438 -11.554688 15.515625 -11.359375 C 15.640625 -11.160156 15.75 -10.929688 15.84375 -10.671875 C 15.945312 -10.421875 16.078125 -10.054688 16.234375 -9.578125 L 16.359375 -9.1875 L 16.203125 -9.125 L 15.578125 -9.25 L 14.875 -9.015625 L 14.359375 -9.125 L 13.765625 -8.953125 L 12.640625 -9.09375 L 11.5625 -9.015625 L 10.4375 -9.21875 L 8.59375 -9.1875 L 7.703125 -9.21875 L 5.53125 -8.921875 L 4.734375 -8.953125 L 3.65625 -8.625 L 3.265625 -8.5625 L 3.1875 -8.171875 C 3.164062 -7.898438 3.128906 -7.71875 3.078125 -7.625 C 3.023438 -7.539062 2.910156 -7.425781 2.734375 -7.28125 L 2.765625 -6.984375 C 2.984375 -6.828125 3.125 -6.710938 3.1875 -6.640625 C 3.257812 -6.578125 3.304688 -6.523438 3.328125 -6.484375 L 3.75 -4.84375 L 3.953125 -4.4375 C 3.835938 -4.332031 3.78125 -4.234375 3.78125 -4.140625 C 3.78125 -4.140625 3.78125 -4.132812 3.78125 -4.125 C 3.78125 -4.113281 3.789062 -4.097656 3.8125 -4.078125 L 4.4375 -3.890625 L 4.578125 -3.484375 C 4.640625 -3.265625 4.707031 -3.101562 4.78125 -3 C 4.863281 -2.90625 4.9375 -2.835938 5 -2.796875 L 5.859375 -2.4375 L 6.15625 -1.8125 C 6.21875 -1.789062 6.289062 -1.769531 6.375 -1.75 C 6.46875 -1.726562 6.632812 -1.691406 6.875 -1.640625 L 7.109375 -1.21875 L 7.609375 -1.15625 L 8.984375 -0.65625 L 10.140625 -0.890625 L 13.203125 -1.375 L 13.859375 -1.78125 L 14.875 -2.40625 L 15.734375 -3.515625 C 15.867188 -3.691406 16.046875 -3.78125 16.265625 -3.78125 C 16.640625 -3.78125 16.828125 -3.617188 16.828125 -3.296875 C 16.828125 -3.140625 16.800781 -3.019531 16.75 -2.9375 L 16.421875 -2.375 L 15.671875 -1.046875 L 14.984375 -1.015625 L 14.546875 -0.65625 C 14.460938 -0.570312 14.300781 -0.503906 14.0625 -0.453125 L 11.15625 0.09375 L 10.703125 0.265625 L 9.671875 0.171875 L 8.203125 0.296875 L 6.515625 0.203125 L 6.0625 0.203125 C 5.84375 0.0234375 5.695312 -0.0820312 5.625 -0.125 L 4.046875 -0.6875 L 3.515625 -1.1875 L 2.46875 -1.90625 L 1.640625 -3.03125 L 1.3125 -3.296875 C 1.445312 -3.554688 1.515625 -3.785156 1.515625 -3.984375 C 1.515625 -4.066406 1.492188 -4.132812 1.453125 -4.1875 L 1.015625 -4.875 L 0.921875 -5.796875 L 0.890625 -6.515625 C 0.867188 -6.691406 0.921875 -7.019531 1.046875 -7.5 C 1.140625 -7.789062 1.222656 -8.039062 1.296875 -8.25 C 1.378906 -8.457031 1.453125 -8.59375 1.515625 -8.65625 L 2.109375 -9.421875 L 2.40625 -10.109375 L 3.15625 -10.828125 L 3.984375 -11.921875 L 4.703125 -12.3125 L 5.765625 -13.03125 L 6.453125 -13.5 Z M 7.25 -10.640625 L 7.609375 -10.5625 L 8.5625 -10.375 L 8.59375 -10.375 L 9.671875 -10.5625 L 10.015625 -10.640625 L 10.265625 -10.265625 L 10.640625 -10.265625 L 12.046875 -10.5625 L 12.640625 -10.5 C 12.898438 -10.539062 13.03125 -10.660156 13.03125 -10.859375 C 13.03125 -10.972656 12.972656 -11.117188 12.859375 -11.296875 C 12.753906 -11.472656 12.613281 -11.691406 12.4375 -11.953125 L 11.328125 -12.734375 L 10.96875 -13.140625 L 10.4375 -13.171875 L 9.21875 -13.265625 L 8.921875 -13.203125 L 8.234375 -12.8125 L 7.34375 -12.609375 L 6.21875 -12.1875 L 5.796875 -12.015625 L 5.265625 -11.265625 C 5.128906 -11.171875 5.019531 -11.082031 4.9375 -11 C 4.851562 -10.925781 4.785156 -10.867188 4.734375 -10.828125 L 4.671875 -10.640625 L 6.65625 -10.5 L 6.875 -10.53125 Z M 7.25 -10.640625 "/></g></g></g><g fill="#ffffff" fill-opacity="1"><g transform="translate(204.921378, 57.651993)"><g><path d="M 42.828125 7.921875 L 43.953125 8.203125 L 44.40625 8.265625 L 45.015625 8.15625 L 46.03125 7.59375 L 48.953125 6.75 L 49.453125 6.46875 L 50.25 6.6875 C 50.4375 6.6875 50.695312 6.628906 51.03125 6.515625 C 51.363281 6.398438 51.757812 6.269531 52.21875 6.125 L 54.453125 5.453125 L 55.53125 5.0625 L 56.375 4.21875 L 57.4375 3.765625 L 58.390625 3.3125 L 58.953125 3.203125 L 60.03125 3.484375 L 60.03125 3.140625 L 60.25 2.421875 C 60.550781 2.117188 60.960938 1.851562 61.484375 1.625 C 62.003906 1.40625 62.398438 1.296875 62.671875 1.296875 C 63.046875 1.296875 63.234375 1.5 63.234375 1.90625 C 63.234375 2.132812 63.175781 2.398438 63.0625 2.703125 L 62.15625 4.71875 L 61.9375 5.515625 L 61.3125 6.015625 L 58.78125 6.46875 L 57.953125 6.90625 L 55.296875 7.46875 L 53.0625 8.03125 L 51.140625 8.3125 L 49.515625 8.875 L 48.328125 8.875 L 47.65625 8.9375 L 47.046875 8.765625 C 46.929688 9.285156 46.722656 9.546875 46.421875 9.546875 L 44.234375 9.71875 L 39.453125 10.796875 L 36.984375 10.90625 L 36.25 10.953125 L 35.625 10.90625 L 34.796875 11.46875 L 34.171875 11.40625 L 31.1875 11.359375 L 30.6875 10.953125 L 29.625 10.84375 L 29.28125 10.796875 L 28.65625 11.296875 L 27.265625 11.296875 L 26.640625 10.953125 L 26.296875 10.625 C 26.265625 10.550781 26.066406 10.503906 25.703125 10.484375 C 25.347656 10.460938 24.6875 10.429688 23.71875 10.390625 C 22.96875 10.390625 22.007812 10.070312 20.84375 9.4375 L 19.046875 8.484375 L 18.046875 8.09375 L 15.171875 6.296875 C 14.765625 6.109375 14.503906 5.945312 14.390625 5.8125 C 14.273438 5.6875 14.238281 5.507812 14.28125 5.28125 L 14.953125 5.34375 L 14.953125 4.828125 C 14.953125 4.492188 14.648438 4.160156 14.046875 3.828125 C 13.785156 4.117188 13.5625 4.265625 13.375 4.265625 L 13.046875 4.21875 L 11.6875 3.203125 L 10.109375 2.140625 L 9.546875 1.296875 L 7.59375 -1.296875 C 7.132812 -1.929688 6.679688 -2.6875 6.234375 -3.5625 C 5.785156 -4.445312 5.410156 -5.328125 5.109375 -6.203125 C 4.816406 -7.085938 4.671875 -7.773438 4.671875 -8.265625 C 4.671875 -8.523438 4.859375 -8.726562 5.234375 -8.875 L 5.234375 -9.5 L 4.671875 -9.828125 L 4.5 -10.90625 L 3.65625 -12.640625 L 3.65625 -13.765625 L 3.546875 -15.0625 L 3.703125 -16.078125 L 3.484375 -16.640625 L 3.375 -17.203125 L 3.421875 -17.640625 L 4.046875 -19.046875 L 4.15625 -19.734375 C 3.851562 -19.992188 3.703125 -20.234375 3.703125 -20.453125 L 3.703125 -20.796875 L 4.046875 -21.921875 L 4.78125 -24.953125 L 5.671875 -25.296875 L 6.015625 -25.296875 L 6.1875 -25.796875 C 5.8125 -26.316406 5.625 -26.726562 5.625 -27.03125 L 5.734375 -27.65625 L 6.46875 -29.625 L 7.078125 -31.53125 C 7.378906 -32.3125 7.847656 -33.078125 8.484375 -33.828125 L 8.71875 -33.609375 L 9.5 -33.328125 L 10.671875 -34 L 10.671875 -34.5625 C 10.222656 -34.632812 9.941406 -34.765625 9.828125 -34.953125 C 9.722656 -35.140625 9.6875 -35.5 9.71875 -36.03125 L 10.171875 -36.53125 L 11.6875 -38.4375 L 12.25 -38.953125 L 13.203125 -40.515625 L 14.390625 -41.421875 L 14.78125 -41.875 C 15.300781 -41.90625 15.632812 -41.96875 15.78125 -42.0625 C 15.9375 -42.15625 16.015625 -42.335938 16.015625 -42.609375 L 16.015625 -42.890625 L 16.578125 -43.390625 L 18.765625 -45.078125 L 19.453125 -45.6875 L 20.34375 -46.375 L 23.09375 -47.765625 L 24.109375 -48.328125 L 24.78125 -48.171875 L 25.296875 -48.609375 L 25.734375 -49.234375 L 26.53125 -49.125 L 26.921875 -49.234375 L 26.921875 -49.625 L 28.15625 -50.1875 L 29.734375 -50.578125 L 32.59375 -51.09375 L 33.828125 -51.765625 L 34.953125 -51.8125 L 37.09375 -52.328125 L 39.171875 -52.15625 L 43.890625 -52.21875 C 44.421875 -52.21875 44.910156 -51.972656 45.359375 -51.484375 L 45.96875 -51.53125 L 46.65625 -51.65625 L 48.171875 -50.96875 L 49.90625 -51.140625 L 51.140625 -50.8125 L 54.515625 -49.90625 C 55.710938 -49.6875 56.3125 -49.296875 56.3125 -48.734375 L 56.265625 -48.21875 L 55.703125 -47.765625 L 54.578125 -46.703125 L 53.90625 -46.375 C 53.75 -46.375 53.554688 -46.421875 53.328125 -46.515625 C 53.109375 -46.609375 52.71875 -46.820312 52.15625 -47.15625 C 51.363281 -47.5625 50.519531 -47.878906 49.625 -48.109375 L 48.671875 -48.671875 L 48.671875 -48.453125 L 48.390625 -48.5 L 48.609375 -48.953125 L 48.5625 -49.296875 L 48.328125 -49.34375 L 46.921875 -49.0625 L 44.84375 -49.625 L 44.234375 -49.796875 L 44.28125 -50.1875 L 43.78125 -50.640625 C 43.289062 -50.453125 42.925781 -50.320312 42.6875 -50.25 C 42.445312 -50.175781 42.234375 -50.140625 42.046875 -50.140625 L 37.9375 -50.421875 L 35.078125 -49.734375 L 30.75 -49.0625 L 27.203125 -47.046875 L 25.90625 -46.53125 L 24.5625 -45.6875 L 22.59375 -44.0625 C 21.65625 -43.6875 21.128906 -43.453125 21.015625 -43.359375 C 20.898438 -43.265625 20.828125 -43.015625 20.796875 -42.609375 L 20.34375 -42.265625 L 19.390625 -41.59375 L 19 -41.03125 L 17.8125 -40.234375 L 16.296875 -38.671875 L 16.015625 -38.78125 L 15.96875 -38.609375 L 16.25 -38.109375 L 15.90625 -37.59375 L 14.609375 -35.578125 L 13.59375 -34.5625 L 12.921875 -33.546875 L 11.46875 -29.78125 L 10.34375 -27.265625 L 9.953125 -25.34375 L 9.671875 -24.453125 C 9.554688 -23.816406 9.453125 -23.441406 9.359375 -23.328125 C 9.265625 -23.210938 8.9375 -23.082031 8.375 -22.9375 C 8.414062 -22.5625 8.484375 -22.304688 8.578125 -22.171875 C 8.671875 -22.035156 8.847656 -21.894531 9.109375 -21.75 L 8.765625 -21.015625 L 9 -18.765625 L 8.828125 -16.359375 L 9.109375 -12.984375 L 9.15625 -12.140625 L 9.390625 -11.515625 L 9.21875 -10.234375 L 9.828125 -9.671875 L 10.0625 -9.109375 L 10.28125 -8.65625 L 10.734375 -6.296875 L 11.234375 -5.671875 L 11.921875 -3.828125 L 12.078125 -2.984375 L 12.078125 -2.578125 L 11.40625 -2.46875 L 11.859375 -1.6875 L 12.484375 -1.6875 L 12.984375 -1.34375 L 13.65625 -1.0625 L 14.609375 0.28125 L 15.453125 0.953125 L 16.40625 2.015625 L 17.984375 3.03125 L 18.203125 3.828125 L 18.765625 4.390625 L 20.171875 5 L 23.65625 6.90625 L 24.609375 7.1875 L 25.625 7.921875 L 25.96875 8.4375 L 26.140625 8.3125 L 26.921875 7.921875 L 27.703125 8.15625 L 29.5 8.59375 L 30.296875 8.9375 L 34.796875 9 L 35.515625 9.4375 C 36.046875 9.4375 36.457031 9.269531 36.75 8.9375 L 37.4375 8.9375 L 40.796875 8.546875 Z M 42.828125 7.921875 "/></g></g></g><g fill="#ffffff" fill-opacity="1"><g transform="translate(264.780909, 57.651993)"><g><path d="M 8.3125 -11.40625 C 8.6875 -12.226562 9.378906 -12.625 10.390625 -12.59375 L 10.5625 -12.765625 L 11.125 -12.765625 C 11.382812 -13.054688 11.617188 -13.25 11.828125 -13.34375 C 12.035156 -13.4375 12.492188 -13.5625 13.203125 -13.71875 L 16.640625 -14.328125 L 17.640625 -14.21875 L 18.9375 -14.5 L 21.25 -14.71875 C 22.03125 -14.90625 22.421875 -15.28125 22.421875 -15.84375 C 22.421875 -15.925781 22.40625 -15.984375 22.375 -16.015625 L 22.09375 -17.25 L 22.3125 -19.046875 C 22.195312 -19.722656 21.726562 -20.117188 20.90625 -20.234375 L 20.515625 -20.84375 C 20.066406 -21.5625 19.71875 -22.015625 19.46875 -22.203125 C 19.226562 -22.390625 18.769531 -22.539062 18.09375 -22.65625 L 16.53125 -22.984375 L 15 -23.046875 L 14.28125 -22.9375 C 13.9375 -23.082031 13.726562 -23.34375 13.65625 -23.71875 L 12.921875 -23.375 L 12.078125 -22.59375 L 9.390625 -21.25 C 8.828125 -20.945312 8.453125 -20.644531 8.265625 -20.34375 L 7.875 -19.78125 C 7.6875 -19.476562 7.441406 -19.328125 7.140625 -19.328125 L 6.578125 -19.453125 L 5.78125 -19.84375 L 4.953125 -20.015625 C 4.609375 -20.117188 4.3125 -20.28125 4.0625 -20.5 C 3.820312 -20.726562 3.703125 -20.921875 3.703125 -21.078125 C 3.703125 -21.191406 3.722656 -21.25 3.765625 -21.25 L 4.21875 -21.578125 L 5.109375 -22.25 L 6.0625 -22.421875 L 7.53125 -23.15625 L 9.328125 -23.78125 L 9.828125 -23.890625 L 11.015625 -24.5 L 11.96875 -24.34375 L 15.28125 -25.0625 L 16.6875 -25.015625 L 17.765625 -25.015625 L 18.890625 -24.609375 L 22.140625 -24 L 22.65625 -23.71875 L 22.65625 -23.328125 L 22.25 -23.09375 C 22.363281 -22.457031 22.59375 -22.140625 22.9375 -22.140625 C 22.96875 -22.140625 22.992188 -22.148438 23.015625 -22.171875 C 23.035156 -22.191406 23.0625 -22.203125 23.09375 -22.203125 L 23.890625 -22.53125 C 23.921875 -22.53125 23.945312 -22.53125 23.96875 -22.53125 C 23.988281 -22.53125 24 -22.53125 24 -22.53125 C 24.144531 -22.53125 24.257812 -22.4375 24.34375 -22.25 L 24.890625 -21.25 L 25.453125 -20.796875 L 25.453125 -20.171875 L 25.34375 -18.765625 C 25.34375 -18.171875 25.644531 -17.648438 26.25 -17.203125 L 26.578125 -13.15625 L 25.859375 -12.140625 L 26.703125 -11.125 L 26.75 -10.796875 L 26.578125 -8.203125 L 26.8125 -6.234375 L 26.8125 -5.171875 L 26.421875 -5.0625 C 26.453125 -4.5 26.492188 -4.125 26.546875 -3.9375 C 26.609375 -3.75 26.789062 -3.351562 27.09375 -2.75 L 27.484375 -1.859375 L 27.203125 -1.34375 L 26.75 -0.671875 L 25.96875 -0.390625 L 24.84375 0.21875 L 23.78125 0.5625 C 23.476562 0.675781 23.222656 0.769531 23.015625 0.84375 C 22.804688 0.914062 22.664062 0.953125 22.59375 0.953125 C 22.445312 0.953125 22.316406 0.882812 22.203125 0.75 C 22.085938 0.625 22.03125 0.503906 22.03125 0.390625 C 22.03125 0.203125 22.125 -0.207031 22.3125 -0.84375 C 22.425781 -1.03125 22.5 -1.347656 22.53125 -1.796875 L 21.96875 -1.46875 L 19.5 -0.625 C 19.007812 -0.394531 18.523438 -0.28125 18.046875 -0.28125 C 18.046875 -0.28125 18.023438 -0.28125 17.984375 -0.28125 L 16.921875 -0.28125 L 15.625 0.34375 L 14.71875 0.453125 L 12.203125 0.953125 L 11.125 0.78125 L 10.390625 1.0625 L 9.890625 1.1875 L 9.046875 1.125 L 7.25 0.734375 L 6.015625 0.625 C 5.191406 0.507812 4.457031 0.21875 3.8125 -0.25 C 3.175781 -0.71875 2.726562 -1.304688 2.46875 -2.015625 L 1.75 -2.296875 L 1.578125 -2.984375 L 1.515625 -3.484375 L 1.125 -4.78125 L 2.140625 -6.796875 L 2.46875 -7.703125 C 2.539062 -7.890625 2.613281 -8.019531 2.6875 -8.09375 C 2.769531 -8.164062 3.035156 -8.390625 3.484375 -8.765625 L 5.625 -10.515625 L 6.515625 -10.84375 L 8.03125 -11.46875 C 8.03125 -11.46875 8.054688 -11.457031 8.109375 -11.4375 C 8.171875 -11.414062 8.238281 -11.40625 8.3125 -11.40625 Z M 5.671875 -6.625 L 5.625 -6.40625 L 6.234375 -3.9375 L 5.625 -2.359375 L 6.0625 -1.796875 L 6.796875 -2.703125 C 7.210938 -2.328125 7.566406 -2.070312 7.859375 -1.9375 C 8.160156 -1.8125 8.707031 -1.65625 9.5 -1.46875 L 10.0625 -0.671875 L 11.96875 -0.5 L 12.484375 -1.015625 L 13.046875 -0.734375 L 13.4375 -0.953125 L 13.71875 -1.125 C 14.164062 -0.976562 14.425781 -0.90625 14.5 -0.90625 C 15.0625 -0.90625 15.773438 -1.164062 16.640625 -1.6875 C 16.710938 -1.726562 16.796875 -1.773438 16.890625 -1.828125 C 16.984375 -1.878906 17.101562 -1.941406 17.25 -2.015625 C 18.15625 -2.015625 18.847656 -2.085938 19.328125 -2.234375 C 19.816406 -2.390625 20.210938 -2.65625 20.515625 -3.03125 L 21.078125 -3.765625 L 22.421875 -4.890625 L 22.484375 -5.234375 L 22.421875 -5.5625 C 22.722656 -5.675781 22.898438 -5.785156 22.953125 -5.890625 C 23.015625 -6.003906 23.0625 -6.25 23.09375 -6.625 C 22.832031 -6.894531 22.664062 -7.101562 22.59375 -7.25 L 22.703125 -8.375 L 22.484375 -10.90625 L 22.8125 -11.640625 L 21.921875 -12.140625 L 21.46875 -12.03125 L 18.9375 -12.203125 L 17.765625 -12.140625 L 16.859375 -12.765625 L 16.296875 -12.421875 L 14.78125 -12.359375 L 13.71875 -11.96875 L 13.09375 -12.3125 L 12.3125 -11.859375 L 8.203125 -9.890625 L 7.3125 -9.21875 L 6.578125 -8.15625 L 5.625 -7.59375 C 5.46875 -7.4375 5.390625 -7.265625 5.390625 -7.078125 C 5.390625 -7.078125 5.390625 -7.066406 5.390625 -7.046875 C 5.390625 -7.035156 5.410156 -7.007812 5.453125 -6.96875 Z M 5.671875 -6.625 "/></g></g></g><g fill="#ffffff" fill-opacity="1"><g transform="translate(294.907389, 57.651993)"><g><path d="M 3.203125 -22.203125 L 3.546875 -22.8125 L 4.109375 -23.5 L 5.109375 -23.9375 L 6.0625 -24.671875 C 6.363281 -24.898438 6.703125 -25.015625 7.078125 -25.015625 C 7.335938 -25.015625 7.570312 -24.945312 7.78125 -24.8125 C 7.988281 -24.675781 8.113281 -24.519531 8.15625 -24.34375 L 8.203125 -21.75 L 8.3125 -20.90625 L 8.828125 -21.078125 C 9.234375 -21.597656 9.71875 -22.109375 10.28125 -22.609375 C 10.84375 -23.117188 11.382812 -23.539062 11.90625 -23.875 C 12.4375 -24.21875 12.851562 -24.390625 13.15625 -24.390625 C 13.375 -24.390625 13.5625 -24.203125 13.71875 -23.828125 C 14.007812 -23.898438 14.203125 -23.960938 14.296875 -24.015625 C 14.390625 -24.078125 14.625 -24.222656 15 -24.453125 C 15.53125 -24.742188 15.984375 -24.890625 16.359375 -24.890625 C 16.429688 -24.890625 16.46875 -24.890625 16.46875 -24.890625 C 16.46875 -24.890625 16.488281 -24.890625 16.53125 -24.890625 L 18.765625 -24.671875 L 19.609375 -24.953125 L 22.140625 -24.609375 C 22.929688 -24.578125 23.609375 -24.28125 24.171875 -23.71875 L 24.5625 -23.78125 C 25.15625 -23.78125 25.640625 -23.515625 26.015625 -22.984375 L 26.421875 -22.3125 L 26.984375 -21.40625 C 27.085938 -21.257812 27.164062 -21.054688 27.21875 -20.796875 C 27.28125 -20.535156 27.332031 -20.066406 27.375 -19.390625 L 27.375 -17.875 L 27.484375 -17.203125 L 26.8125 -16.359375 L 27.03125 -15.6875 L 27.375 -15.0625 L 27.375 -13.9375 C 27.375 -13.789062 27.351562 -13.675781 27.3125 -13.59375 L 26.921875 -12.8125 C 26.847656 -12.664062 26.8125 -12.40625 26.8125 -12.03125 L 27.375 -11.296875 L 27.3125 -10.515625 L 27.265625 -8.59375 C 27.265625 -8.5625 27.265625 -8.523438 27.265625 -8.484375 C 27.265625 -8.453125 27.265625 -8.414062 27.265625 -8.375 L 27.65625 -7.3125 L 27.703125 -4.828125 L 27.875 -1.859375 L 27.59375 -1.0625 L 23.828125 0.734375 C 23.492188 0.316406 23.28125 0.0351562 23.1875 -0.109375 C 23.09375 -0.265625 23.046875 -0.394531 23.046875 -0.5 C 23.046875 -0.539062 23.046875 -0.570312 23.046875 -0.59375 C 23.046875 -0.613281 23.046875 -0.625 23.046875 -0.625 L 23.71875 -3.265625 L 23.78125 -4.4375 L 24 -4.390625 L 24.453125 -4.953125 C 24.296875 -5.242188 24.160156 -5.4375 24.046875 -5.53125 C 23.941406 -5.625 23.738281 -5.726562 23.4375 -5.84375 L 23.328125 -6.296875 L 23.78125 -11.40625 L 23.5 -12.140625 L 23.546875 -13.046875 L 23.546875 -15.125 L 23.890625 -16.125 L 23.375 -16.640625 L 23.4375 -18.265625 C 23.289062 -18.679688 23.160156 -18.988281 23.046875 -19.1875 C 22.929688 -19.394531 22.722656 -19.671875 22.421875 -20.015625 C 22.421875 -20.085938 22.421875 -20.140625 22.421875 -20.171875 C 22.421875 -20.210938 22.421875 -20.253906 22.421875 -20.296875 C 22.421875 -20.515625 22.347656 -20.679688 22.203125 -20.796875 L 21.53125 -20.84375 L 20.125 -21.6875 L 17.875 -21.578125 L 15.28125 -21.75 C 15.0625 -21.675781 14.820312 -21.453125 14.5625 -21.078125 L 14.046875 -21.1875 L 11.921875 -20.796875 L 11.125 -20.625 L 10.171875 -19.890625 L 8.9375 -19.328125 C 8.332031 -18.992188 7.992188 -18.566406 7.921875 -18.046875 L 7.875 -15.34375 L 7.53125 -13.65625 L 8.09375 -12.03125 L 8.09375 -11.125 L 8.03125 -7.875 L 7.53125 -6.75 L 7.46875 -6.34375 L 7.46875 -6.1875 L 7.984375 -5.28125 L 8.15625 -2.296875 L 8.375 -1.34375 C 8.375 -1.195312 8.304688 -1.039062 8.171875 -0.875 C 8.046875 -0.707031 7.90625 -0.601562 7.75 -0.5625 L 5.953125 -0.109375 L 5.453125 0 C 5.191406 0.488281 4.910156 0.734375 4.609375 0.734375 C 4.421875 0.734375 4.234375 0.640625 4.046875 0.453125 C 4.003906 0.410156 3.972656 0.367188 3.953125 0.328125 C 3.941406 0.296875 3.914062 0.257812 3.875 0.21875 C 3.800781 0.0703125 3.765625 0.0195312 3.765625 0.0625 L 4.15625 -1.96875 L 4.109375 -4.265625 L 4.390625 -5.234375 L 4.15625 -6.75 L 4.265625 -8.4375 L 4.328125 -11.96875 C 4.328125 -12.457031 4.644531 -12.722656 5.28125 -12.765625 C 5.25 -13.171875 5.15625 -13.421875 5 -13.515625 C 4.851562 -13.609375 4.554688 -13.65625 4.109375 -13.65625 L 4.15625 -18.609375 L 4.78125 -19 L 4.4375 -19.5625 L 3.703125 -21.578125 Z M 3.203125 -22.203125 "/></g></g></g><g fill="#ffffff" fill-opacity="1"><g transform="translate(325.76455, 57.651993)"><g/></g></g><g fill="#ffffff" fill-opacity="1"><g transform="translate(338.523353, 57.651993)"><g><path d="M 6.125 -32.203125 L 5.90625 -33.78125 L 5.78125 -34.390625 L 6.578125 -34.84375 C 6.203125 -35.332031 6.015625 -35.726562 6.015625 -36.03125 L 6.125 -36.53125 L 5.734375 -36.53125 L 5.453125 -37.09375 L 5.515625 -37.875 L 5.734375 -39.453125 L 5.734375 -41.703125 L 5.90625 -43.390625 L 5.34375 -46.03125 L 5.453125 -48.046875 L 5.171875 -48.609375 C 4.234375 -48.578125 3.765625 -48.75 3.765625 -49.125 C 3.765625 -49.3125 3.8125 -49.515625 3.90625 -49.734375 C 4 -49.960938 4.117188 -50.097656 4.265625 -50.140625 L 5.390625 -50.296875 L 7.984375 -51.65625 L 8.59375 -51.8125 C 8.863281 -51.8125 9.128906 -51.585938 9.390625 -51.140625 L 9.953125 -51.203125 L 10.453125 -50.6875 C 10.898438 -51.25 11.273438 -51.53125 11.578125 -51.53125 L 14.4375 -51.25 L 17.203125 -51.59375 L 20.625 -51.203125 L 24.5 -51.203125 L 27.3125 -50.96875 L 27.875 -51.3125 L 28.328125 -51.3125 L 32.59375 -50.8125 L 33.71875 -50.46875 L 36.984375 -50.25 C 37.878906 -50.0625 38.609375 -49.742188 39.171875 -49.296875 C 39.285156 -49.140625 39.34375 -48.894531 39.34375 -48.5625 L 38.84375 -48.5 L 38.78125 -47.65625 L 39.734375 -47.375 L 39.734375 -48.5 C 40.222656 -48.46875 40.617188 -48.300781 40.921875 -48 L 41.765625 -47.15625 L 41.875 -46.765625 L 41.640625 -45.078125 L 41.484375 -44.515625 L 41.984375 -44.453125 L 42.09375 -43.78125 C 42.09375 -43.332031 41.847656 -42.898438 41.359375 -42.484375 L 40.1875 -41.484375 L 37.65625 -38.890625 L 36.140625 -37.875 L 35.625 -37.03125 C 35.21875 -36.769531 34.929688 -36.59375 34.765625 -36.5 C 34.597656 -36.40625 34.4375 -36.359375 34.28125 -36.359375 L 33.953125 -36.421875 L 33.5 -36.03125 L 32.828125 -35.6875 L 30.796875 -33.828125 L 29.625 -33.390625 L 29.109375 -33.15625 L 28.546875 -33.4375 C 28.429688 -32.988281 28.304688 -32.707031 28.171875 -32.59375 C 28.046875 -32.476562 27.703125 -32.347656 27.140625 -32.203125 L 26.296875 -31.859375 L 26.421875 -31.359375 L 25.734375 -30.859375 L 23.5 -29.84375 L 22.203125 -28.78125 L 21.640625 -28.5 L 21.640625 -28.328125 L 22.3125 -28.15625 L 22.65625 -27.484375 L 23.546875 -25.6875 L 24.5 -24.671875 L 24.953125 -24.171875 L 25.171875 -23.78125 L 24.609375 -23.609375 L 24.84375 -22.9375 L 25.40625 -23.046875 C 25.8125 -23.046875 26.25 -22.800781 26.71875 -22.3125 C 27.1875 -21.820312 27.609375 -21.164062 27.984375 -20.34375 C 27.691406 -20.15625 27.546875 -19.96875 27.546875 -19.78125 C 27.546875 -19.445312 27.769531 -19.28125 28.21875 -19.28125 L 28.65625 -19.328125 L 29.34375 -18.765625 L 29.5625 -18.265625 L 30.75 -16.8125 L 32.484375 -13.875 L 36.1875 -9.328125 L 36.75 -8.09375 L 36.75 -7.359375 L 37.03125 -6.515625 L 37.484375 -6.296875 L 39.734375 -4.671875 L 42.4375 -1.1875 L 42.765625 0.390625 L 44.234375 1.296875 L 44.734375 1.1875 L 45.125 1.40625 L 45.53125 2.078125 L 46.703125 3.03125 L 47.046875 3.546875 L 48.109375 3.484375 L 48.390625 3.09375 L 48.84375 3.265625 L 49.34375 3.203125 L 50.078125 3.09375 L 50.296875 3.703125 L 50.25 4.109375 L 49.625 4.390625 L 48.734375 4.78125 L 47.71875 5.390625 L 45.53125 5.84375 L 43.109375 7.078125 L 42.484375 6.796875 L 42.15625 6.46875 L 41.3125 5.84375 L 40.75 4.828125 L 40.015625 3.828125 L 39.5625 2.140625 L 39.0625 1.859375 L 37.765625 0.84375 L 38.046875 0.21875 L 38.15625 -0.390625 L 37.65625 -0.734375 L 36.75 -1.40625 L 36.03125 -2.46875 L 34.953125 -3.984375 L 34.84375 -4.890625 L 32.65625 -6.6875 L 31.859375 -8.203125 L 31.53125 -8.71875 L 31.59375 -9.15625 C 31.59375 -9.644531 31.289062 -10.054688 30.6875 -10.390625 L 29.625 -11.125 L 28.21875 -13.09375 L 26.984375 -14.109375 L 25.90625 -15.234375 L 25.96875 -15.625 C 25.96875 -16.039062 25.757812 -16.472656 25.34375 -16.921875 L 24.84375 -17.484375 L 24.34375 -17.421875 C 24.113281 -17.421875 23.90625 -17.523438 23.71875 -17.734375 C 23.53125 -17.941406 23.285156 -18.363281 22.984375 -19 L 21.296875 -21.125 L 19.890625 -23.046875 L 17.984375 -24.78125 C 17.492188 -25.269531 17.109375 -25.597656 16.828125 -25.765625 C 16.546875 -25.929688 16.257812 -26.015625 15.96875 -26.015625 L 15.515625 -25.96875 L 11.75 -24.5 L 10.90625 -24.5 L 11.015625 -24.0625 L 10.5625 -23.71875 L 10.390625 -23.375 L 10.5625 -22.203125 L 10.390625 -21.359375 L 10.734375 -20.0625 L 10.671875 -13.9375 L 10.953125 -13.4375 L 10.796875 -11.296875 L 11.015625 -9.15625 L 10.625 -8.3125 L 10.453125 -7.703125 L 9.78125 -7.46875 L 9.828125 -5.78125 L 10.453125 -5.671875 L 10.625 -5.28125 L 10.5625 -4.71875 L 10.453125 -4.15625 L 10.796875 -3.59375 L 10.734375 -3.09375 L 10.796875 -1.015625 L 10.0625 0.21875 L 10.28125 0.90625 L 10.90625 1.015625 L 10.796875 1.515625 L 10.84375 3.09375 L 10.5625 4.15625 L 10 5.234375 L 8.828125 5.953125 L 8.15625 6.578125 L 7.03125 6.578125 L 5.90625 7.53125 L 4.828125 7.875 L 3.828125 7.75 L 3.9375 7.078125 L 4.828125 5.234375 L 5.0625 3.265625 L 5.5625 0.671875 L 5.625 -0.390625 L 5.671875 -1.0625 L 5.0625 -1.625 L 5.390625 -2.421875 L 5.734375 -3.484375 L 5.671875 -3.546875 L 5.34375 -5.515625 L 6.1875 -6.34375 L 6.1875 -7.421875 L 5.671875 -9.21875 L 6.234375 -13.828125 L 6.1875 -18.265625 L 6.96875 -19.390625 L 7.140625 -20.0625 C 6.609375 -20.21875 6.273438 -20.441406 6.140625 -20.734375 C 6.015625 -21.035156 5.9375 -21.769531 5.90625 -22.9375 L 5.84375 -23.5 L 6.0625 -23.65625 L 6.015625 -24 L 6.125 -25.578125 L 5.84375 -28.609375 C 5.957031 -28.984375 6.238281 -29.207031 6.6875 -29.28125 L 6.75 -29.625 L 6.515625 -30.296875 C 6.109375 -30.441406 5.90625 -30.59375 5.90625 -30.75 Z M 9.046875 -36.3125 L 9.21875 -36.359375 L 9.828125 -36.75 L 9.953125 -36.25 L 10.34375 -36.078125 L 10.453125 -34.109375 L 10.625 -31.25 L 10.5625 -30.6875 L 10.34375 -28.21875 L 10.390625 -27.9375 L 9.828125 -27.546875 L 9.890625 -26.984375 L 10.28125 -26.8125 L 12.203125 -27.484375 L 12.921875 -27.65625 L 13.203125 -27.3125 L 14 -27.59375 C 14.1875 -27.78125 14.332031 -27.890625 14.4375 -27.921875 C 14.550781 -27.960938 14.816406 -28.003906 15.234375 -28.046875 C 15.867188 -28.117188 16.46875 -28.304688 17.03125 -28.609375 L 26.640625 -33.953125 L 28.9375 -34.953125 L 30.75 -36.25 L 33.5 -38.78125 C 33.90625 -39.113281 34.351562 -39.316406 34.84375 -39.390625 L 35.75 -40.75 C 36.039062 -40.894531 36.234375 -41.023438 36.328125 -41.140625 C 36.421875 -41.253906 36.523438 -41.460938 36.640625 -41.765625 L 36.921875 -42.484375 C 36.734375 -42.972656 36.640625 -43.332031 36.640625 -43.5625 C 36.640625 -43.820312 36.847656 -44.082031 37.265625 -44.34375 L 37.03125 -44.6875 C 36.738281 -44.757812 36.535156 -44.820312 36.421875 -44.875 C 36.304688 -44.9375 36.15625 -45.097656 35.96875 -45.359375 L 35.46875 -45.96875 L 35.6875 -46.25 L 35.359375 -46.984375 L 35.40625 -47.265625 L 34.734375 -47.609375 L 34.453125 -47.546875 L 34.453125 -47.265625 L 34 -47.203125 L 33.328125 -47.484375 L 31.25 -48.109375 L 30.75 -48.453125 L 29.34375 -48.5 L 27.875 -48.953125 L 25.734375 -48.84375 L 24.78125 -49.296875 L 23.546875 -49.125 L 22.8125 -49.171875 L 22.375 -48.890625 L 20.96875 -49.125 L 20.578125 -48.890625 C 20.390625 -49.191406 20.191406 -49.390625 19.984375 -49.484375 C 19.773438 -49.578125 19.445312 -49.625 19 -49.625 L 18.046875 -49.453125 L 16.53125 -48.671875 L 15.625 -48.734375 L 14.5625 -48.609375 L 13.71875 -48.84375 L 12.359375 -48.453125 L 10.84375 -48.21875 C 10.507812 -48.03125 10.34375 -47.75 10.34375 -47.375 L 10.234375 -45.46875 L 9.828125 -44.6875 L 9.390625 -44.796875 L 9.21875 -44.234375 C 9.40625 -43.859375 9.570312 -43.554688 9.71875 -43.328125 C 9.875 -43.109375 10.140625 -42.789062 10.515625 -42.375 L 10.625 -40.75 C 10.625 -40.300781 10.546875 -39.925781 10.390625 -39.625 L 10.171875 -39.125 L 10.109375 -38.4375 L 9.5 -38.046875 C 9.53125 -37.671875 9.519531 -37.40625 9.46875 -37.25 C 9.414062 -37.101562 9.273438 -36.921875 9.046875 -36.703125 Z M 9.046875 -36.3125 "/></g></g></g><g fill="#ffffff" fill-opacity="1"><g transform="translate(380.902495, 57.651993)"><g><path d="M 1.515625 -9 L 1.515625 -10.109375 C 1.515625 -10.898438 1.609375 -11.671875 1.796875 -12.421875 C 1.984375 -13.171875 2.300781 -14.070312 2.75 -15.125 C 3.195312 -16.09375 3.535156 -16.765625 3.765625 -17.140625 C 3.992188 -17.515625 4.179688 -17.757812 4.328125 -17.875 L 5.453125 -18.609375 L 6.0625 -19.671875 C 6.289062 -20.085938 6.554688 -20.347656 6.859375 -20.453125 L 9.4375 -21.8125 L 10.90625 -22.984375 L 12.640625 -23.65625 L 15.734375 -24.734375 L 18.265625 -24.953125 L 20.296875 -25.015625 C 20.929688 -25.015625 21.367188 -24.945312 21.609375 -24.8125 C 21.847656 -24.675781 21.96875 -24.425781 21.96875 -24.0625 C 22.3125 -23.789062 22.519531 -23.65625 22.59375 -23.65625 C 22.851562 -23.65625 23.15625 -23.921875 23.5 -24.453125 L 24.171875 -24.28125 L 25.96875 -23.65625 L 26.703125 -23.046875 L 27.703125 -22.421875 L 28.71875 -20.84375 C 29.019531 -20.507812 29.5625 -20.34375 30.34375 -20.34375 C 30.945312 -19.59375 31.359375 -18.867188 31.578125 -18.171875 C 31.804688 -17.484375 31.957031 -16.375 32.03125 -14.84375 L 32.140625 -13.9375 L 31.53125 -14.046875 L 31.640625 -13.4375 L 31.03125 -12.984375 C 31.101562 -12.722656 31.175781 -12.535156 31.25 -12.421875 C 31.320312 -12.304688 31.488281 -12.175781 31.75 -12.03125 L 31.8125 -11.46875 C 31.8125 -10.488281 31.601562 -9.4375 31.1875 -8.3125 C 30.78125 -7.1875 30.21875 -6.082031 29.5 -5 C 29.09375 -4.40625 28.691406 -3.898438 28.296875 -3.484375 C 27.898438 -3.066406 27.554688 -2.65625 27.265625 -2.25 L 26.421875 -2.015625 L 21.25 0.390625 L 18.375 0.5 L 16.296875 1.015625 L 13.828125 0.953125 L 12.984375 1.1875 L 10.515625 0.734375 L 9.5 0.671875 L 8.9375 0.0625 L 7.421875 -0.171875 L 6.6875 -0.5625 C 5.75 -1.3125 5.09375 -1.816406 4.71875 -2.078125 C 4.34375 -2.335938 4.117188 -2.546875 4.046875 -2.703125 L 3.421875 -3.875 L 2.578125 -4.546875 L 1.90625 -6.296875 L 1.6875 -6.96875 L 1.96875 -7.1875 C 1.96875 -7.5625 2.171875 -7.828125 2.578125 -7.984375 L 2.421875 -8.4375 Z M 5.953125 -10.390625 C 5.390625 -9.941406 5.109375 -9.625 5.109375 -9.4375 C 5.109375 -9.4375 5.148438 -9.328125 5.234375 -9.109375 C 5.378906 -9.296875 5.523438 -9.390625 5.671875 -9.390625 C 5.859375 -9.390625 5.972656 -9.332031 6.015625 -9.21875 L 6.625 -7.1875 L 8.03125 -4.890625 L 7.875 -3.484375 C 8.019531 -3.335938 8.1875 -3.265625 8.375 -3.265625 C 8.601562 -3.265625 8.828125 -3.375 9.046875 -3.59375 L 9.609375 -3.421875 L 12.921875 -1.40625 L 16.296875 -1.0625 L 18.203125 -0.78125 L 20.40625 -1.1875 L 21.8125 -1.515625 L 23.609375 -3.3125 L 24.890625 -3.703125 L 25.515625 -4.390625 L 26.984375 -7.421875 L 27.703125 -8.03125 C 27.972656 -8.300781 28.109375 -8.53125 28.109375 -8.71875 C 28.109375 -8.71875 28.109375 -8.722656 28.109375 -8.734375 C 28.109375 -8.753906 28.109375 -8.785156 28.109375 -8.828125 L 27.65625 -10.109375 L 28.15625 -13.265625 L 27.140625 -16.40625 L 26.984375 -17.8125 L 26.703125 -18.328125 C 26.660156 -18.328125 26.617188 -18.328125 26.578125 -18.328125 C 26.546875 -18.328125 26.53125 -18.328125 26.53125 -18.328125 C 26.269531 -18.328125 26.046875 -18.457031 25.859375 -18.71875 L 24.5 -20.40625 L 24.0625 -21.078125 L 21.75 -22.140625 C 21.445312 -22.628906 21.238281 -22.929688 21.125 -23.046875 C 21.019531 -23.160156 20.851562 -23.21875 20.625 -23.21875 C 20.40625 -23.21875 20.03125 -23.125 19.5 -22.9375 C 19.007812 -23.15625 18.632812 -23.265625 18.375 -23.265625 L 17.59375 -23.15625 L 16.25 -23.09375 L 14.390625 -22.421875 L 13.9375 -22.8125 L 13.59375 -22.375 L 11.75 -21.25 L 8.3125 -18.265625 L 7.640625 -17.703125 C 7.566406 -17.109375 7.445312 -16.613281 7.28125 -16.21875 C 7.113281 -15.820312 6.820312 -15.25 6.40625 -14.5 L 6.015625 -13.828125 C 6.015625 -13.785156 6.015625 -13.734375 6.015625 -13.671875 C 6.015625 -13.617188 6.015625 -13.59375 6.015625 -13.59375 C 6.015625 -13.226562 5.957031 -12.976562 5.84375 -12.84375 C 5.726562 -12.707031 5.46875 -12.601562 5.0625 -12.53125 C 5.019531 -12.414062 4.988281 -12.335938 4.96875 -12.296875 C 4.957031 -12.265625 4.953125 -12.210938 4.953125 -12.140625 C 4.953125 -12.097656 4.957031 -12.054688 4.96875 -12.015625 C 4.988281 -11.984375 5 -11.96875 5 -11.96875 L 5.84375 -11.015625 Z M 5.953125 -10.390625 "/></g></g></g><g fill="#ffffff" fill-opacity="1"><g transform="translate(414.513776, 57.651993)"><g><path d="M 24.78125 -8.03125 C 24.78125 -7.320312 24.648438 -6.710938 24.390625 -6.203125 C 24.128906 -5.703125 23.8125 -5.453125 23.4375 -5.453125 C 23.363281 -5.453125 23.28125 -5.460938 23.1875 -5.484375 C 23.09375 -5.503906 22.988281 -5.53125 22.875 -5.5625 L 22.53125 -4.953125 L 22.03125 -3.59375 L 20.796875 -2.25 L 20.234375 -1.46875 L 19.453125 -1.40625 L 16.921875 -0.109375 L 15.734375 0.0625 L 13.71875 0.734375 L 12.140625 0.453125 L 9.71875 1.015625 C 9.570312 1.015625 9.328125 0.972656 8.984375 0.890625 C 8.648438 0.816406 8 0.6875 7.03125 0.5 C 6.539062 0.394531 6.207031 0.3125 6.03125 0.25 C 5.863281 0.195312 5.707031 0.113281 5.5625 0 L 4.5 -0.671875 L 3.140625 -1.46875 C 2.578125 -1.800781 2.117188 -2.265625 1.765625 -2.859375 C 1.410156 -3.460938 1.234375 -3.988281 1.234375 -4.4375 C 1.234375 -4.738281 1.53125 -5.128906 2.125 -5.609375 C 2.726562 -6.097656 3.425781 -6.53125 4.21875 -6.90625 L 4.828125 -6.125 L 5.34375 -3.703125 L 6.34375 -3.09375 L 7.921875 -1.859375 L 8.71875 -1.625 L 10.171875 -0.90625 L 11.1875 -0.90625 L 11.859375 -0.78125 L 13.203125 -1.1875 L 15.453125 -1.40625 L 16.578125 -1.96875 L 17.640625 -2.359375 C 18.097656 -2.617188 18.550781 -3.085938 19 -3.765625 C 19.445312 -4.441406 19.820312 -5.191406 20.125 -6.015625 C 20.425781 -6.835938 20.578125 -7.585938 20.578125 -8.265625 C 20.578125 -8.671875 20.460938 -9.007812 20.234375 -9.28125 L 19.171875 -10.796875 L 18.890625 -11.46875 L 18.203125 -11.796875 L 17.875 -11.359375 L 17.25 -11.40625 L 15.796875 -11.640625 L 13.59375 -11.640625 L 12.875 -12.703125 C 12.457031 -12.210938 12.125 -11.921875 11.875 -11.828125 C 11.632812 -11.734375 11.195312 -11.628906 10.5625 -11.515625 L 9.609375 -11.359375 L 9.046875 -11.640625 L 8.375 -11.640625 L 7.640625 -12.203125 L 6.75 -12.03125 L 5.90625 -12.421875 L 4.71875 -12.8125 C 4.269531 -12.96875 3.875 -13.320312 3.53125 -13.875 C 3.195312 -14.4375 3.03125 -15.019531 3.03125 -15.625 C 3.03125 -16.488281 3.328125 -17.414062 3.921875 -18.40625 C 4.523438 -19.394531 5.410156 -20.34375 6.578125 -21.25 C 7.546875 -22 8.59375 -22.660156 9.71875 -23.234375 C 10.84375 -23.816406 11.929688 -24.285156 12.984375 -24.640625 C 14.035156 -24.992188 14.914062 -25.171875 15.625 -25.171875 C 15.8125 -25.171875 16.082031 -25.125 16.4375 -25.03125 C 16.789062 -24.9375 17.210938 -24.796875 17.703125 -24.609375 L 18.484375 -24.34375 C 19.128906 -24.445312 19.617188 -24.523438 19.953125 -24.578125 C 20.285156 -24.640625 20.601562 -24.671875 20.90625 -24.671875 C 21.394531 -24.671875 21.796875 -24.585938 22.109375 -24.421875 C 22.429688 -24.253906 22.59375 -24.054688 22.59375 -23.828125 C 22.59375 -23.609375 22.335938 -23.28125 21.828125 -22.84375 C 21.328125 -22.414062 20.664062 -22.015625 19.84375 -21.640625 L 19 -21.25 L 18.265625 -21.296875 L 16.921875 -21.359375 L 15.84375 -21.640625 L 15.40625 -22.59375 L 15 -22.59375 L 14.5625 -22.09375 L 12.921875 -22.09375 L 11.796875 -21.921875 L 10.953125 -22.140625 L 10.515625 -21.8125 L 8.765625 -20.796875 C 7.523438 -19.742188 6.90625 -18.785156 6.90625 -17.921875 C 6.90625 -17.328125 7.09375 -16.9375 7.46875 -16.75 L 9.28125 -15.90625 L 9.828125 -15.625 L 9.828125 -14.953125 L 10.671875 -14.5 L 11.578125 -15.34375 L 12.03125 -15.28125 L 16.640625 -15.625 L 18.828125 -15.125 L 19.84375 -15.28125 L 21.125 -14.4375 L 23.046875 -13.375 C 23.234375 -13.257812 23.410156 -13.070312 23.578125 -12.8125 C 23.742188 -12.550781 23.90625 -12.160156 24.0625 -11.640625 L 24.28125 -10.90625 C 24.425781 -10.414062 24.546875 -9.9375 24.640625 -9.46875 C 24.734375 -9 24.78125 -8.519531 24.78125 -8.03125 Z M 24.78125 -8.03125 "/></g></g></g></svg>